<svg style="" width="68.750000" height="56.015625" version="1.1" xmlns="http://www.w3.org/2000/svg">
<path d="M63.125000 4.609375 C61.458325 3.098951 59.570323 1.953129 57.460938 1.171875 C55.351552 0.390621 53.203136 -0.000000 51.015625 -0.000000 C48.828114 -0.000000 46.679698 0.390621 44.570312 1.171875 C42.460927 1.953129 40.572925 3.098951 38.906250 4.609375 L34.375000 8.750000 L29.843750 4.609375 C28.177075 3.098951 26.289073 1.953129 24.179688 1.171875 C22.070302 0.390621 19.921886 -0.000000 17.734375 -0.000000 C15.546864 -0.000000 13.398448 0.390621 11.289062 1.171875 C9.179677 1.953129 7.291675 3.098951 5.625000 4.609375 C3.749991 6.328134 2.343755 8.268218 1.406250 10.429688 C0.468745 12.591157 0.000000 14.804676 0.000000 17.070312 C0.000000 19.335949 0.468745 21.562489 1.406250 23.750000 C2.343755 25.937511 3.749991 27.890616 5.625000 29.609375 L34.375000 56.015625 L63.125000 29.609375 C65.000009 27.890616 66.406245 25.937511 67.343750 23.750000 C68.281255 21.562489 68.750000 19.335949 68.750000 17.070312 C68.750000 14.804676 68.281255 12.591157 67.343750 10.429688 C66.406245 8.268218 65.000009 6.328134 63.125000 4.609375 Z M58.906250 25.468750 L34.375000 48.359375 L9.843750 25.468750 C8.645827 24.322911 7.786461 23.033861 7.265625 21.601562 C6.744789 20.169264 6.484375 18.671883 6.484375 17.109375 C6.484375 15.546867 6.679686 14.101569 7.070312 12.773438 C7.460939 11.445306 8.255202 10.234380 9.453125 9.140625 C10.546880 8.098953 11.809889 7.317711 13.242188 6.796875 C14.674486 6.276039 16.171867 6.015625 17.734375 6.015625 C19.296883 6.015625 20.794264 6.419267 22.226562 7.226562 C23.658861 8.033858 24.895828 8.932287 25.937500 9.921875 L34.375000 17.187500 L42.734375 9.921875 C43.828130 8.932287 45.091139 8.033858 46.523438 7.226562 C47.955736 6.419267 49.453117 6.015625 51.015625 6.015625 C52.578133 6.015625 54.075514 6.276039 55.507812 6.796875 C56.940111 7.317711 58.203120 8.098953 59.296875 9.140625 C60.494798 10.234380 61.289061 11.445306 61.679688 12.773438 C62.070314 14.101569 62.265625 15.546867 62.265625 17.109375 C62.265625 18.671883 62.005211 20.169264 61.484375 21.601562 C60.963539 23.033861 60.104173 24.322911 58.906250 25.468750 Z M74.375000 63.984375" style="fill:black"/>
</svg>