<svg style="" width="76.875000" height="76.796875" version="1.1" xmlns="http://www.w3.org/2000/svg">
<path d="M38.437500 -0.000000 C33.124973 -0.000000 28.138044 1.002594 23.476562 3.007812 C18.815081 5.013031 14.752621 7.747379 11.289062 11.210938 C7.825504 14.674496 5.078135 18.736956 3.046875 23.398438 C1.015615 28.059919 0.000000 33.046848 0.000000 38.359375 C0.000000 43.671902 1.015615 48.658831 3.046875 53.320312 C5.078135 57.981794 7.825504 62.044254 11.289062 65.507812 C14.752621 68.971371 18.815081 71.718740 23.476562 73.750000 C28.138044 75.781260 33.124973 76.796875 38.437500 76.796875 C43.750027 76.796875 48.736956 75.781260 53.398438 73.750000 C58.059919 71.718740 62.122379 68.971371 65.585938 65.507812 C69.049496 62.044254 71.796865 57.981794 73.828125 53.320312 C75.859385 48.658831 76.875000 43.671902 76.875000 38.359375 C76.875000 33.046848 75.859385 28.059919 73.828125 23.398438 C71.796865 18.736956 69.049496 14.674496 65.585938 11.210938 C62.122379 7.747379 58.059919 5.013031 53.398438 3.007812 C48.736956 1.002594 43.750027 -0.000000 38.437500 -0.000000 Z M29.062500 54.296875 L21.250000 54.296875 L21.250000 29.296875 L29.062500 29.296875 Z M25.078125 26.171875 C23.880202 26.171875 22.916670 25.794275 22.187500 25.039062 C21.458330 24.283850 21.093750 23.359380 21.093750 22.265625 C21.093750 21.171870 21.471350 20.260420 22.226562 19.531250 C22.981775 18.802080 23.984369 18.437500 25.234375 18.437500 C26.484381 18.437500 27.460934 18.802080 28.164062 19.531250 C28.867191 20.260420 29.244791 21.171870 29.296875 22.265625 C29.296875 23.359380 28.919275 24.283850 28.164062 25.039062 C27.408850 25.794275 26.380215 26.171875 25.078125 26.171875 Z M57.421875 54.296875 L49.687500 54.296875 L49.687500 40.390625 C49.687500 38.776034 49.375003 37.473963 48.750000 36.484375 C48.124997 35.494787 47.109382 35.000000 45.703125 35.000000 C44.661453 35.000000 43.815107 35.312497 43.164062 35.937500 C42.513018 36.562503 42.031252 37.213538 41.718750 37.890625 C41.614583 38.151043 41.549479 38.450519 41.523438 38.789062 C41.497396 39.127606 41.484375 39.479165 41.484375 39.843750 L41.484375 54.296875 L33.671875 54.296875 L33.671875 37.265625 C33.671875 35.703117 33.658854 34.257819 33.632812 32.929688 C33.606771 31.601556 33.567709 30.390630 33.515625 29.296875 L40.234375 29.296875 L40.625000 32.734375 L40.781250 32.734375 C41.302086 31.901038 42.187494 31.015630 43.437500 30.078125 C44.687506 29.140620 46.380198 28.671875 48.515625 28.671875 C51.067721 28.671875 53.190096 29.557283 54.882812 31.328125 C56.575529 33.098967 57.421875 35.833315 57.421875 39.531250 Z M78.437500 74.375000" style="fill:black"/>
</svg>