<svg style="" width="63.359375" height="63.203125" version="1.1" xmlns="http://www.w3.org/2000/svg">
<path d="M61.718750 53.437500 L46.640625 38.359375 C47.786464 36.484366 48.671872 34.453136 49.296875 32.265625 C49.921878 30.078114 50.234375 27.812512 50.234375 25.468750 C50.234375 22.083316 49.544278 18.841161 48.164062 15.742188 C46.783847 12.643214 44.921887 9.934907 42.578125 7.617188 C40.234363 5.299468 37.526057 3.450528 34.453125 2.070312 C31.380193 0.690097 28.125017 -0.000000 24.687500 -0.000000 C21.302066 -0.000000 18.098973 0.651035 15.078125 1.953125 C12.057277 3.255215 9.427095 5.013010 7.187500 7.226562 C4.947905 9.440115 3.190111 12.057277 1.914062 15.078125 C0.638014 18.098973 0.000000 21.302066 0.000000 24.687500 C0.000000 28.125017 0.677077 31.393214 2.031250 34.492188 C3.385423 37.591161 5.234363 40.299468 7.578125 42.617188 C9.921887 44.934907 12.630193 46.783847 15.703125 48.164062 C18.776057 49.544278 22.031233 50.234375 25.468750 50.234375 C27.760428 50.234375 29.947906 49.934899 32.031250 49.335938 C34.114594 48.736976 36.093741 47.916672 37.968750 46.875000 L53.125000 62.031250 C53.854170 62.812504 54.752599 63.203125 55.820312 63.203125 C56.888026 63.203125 57.786455 62.812504 58.515625 62.031250 L62.265625 58.281250 C62.994795 57.552080 63.281251 56.744796 63.125000 55.859375 C62.968749 54.973954 62.500004 54.166670 61.718750 53.437500 Z M7.578125 24.687500 C7.578125 22.343738 8.020829 20.130219 8.906250 18.046875 C9.791671 15.963531 11.015617 14.153654 12.578125 12.617188 C14.140633 11.080721 15.963531 9.856775 18.046875 8.945312 C20.130219 8.033850 22.343738 7.578125 24.687500 7.578125 C27.083345 7.578125 29.361968 8.072912 31.523438 9.062500 C33.684907 10.052088 35.585929 11.367179 37.226562 13.007812 C38.867196 14.648446 40.169266 16.549468 41.132812 18.710938 C42.096359 20.872407 42.578125 23.124988 42.578125 25.468750 C42.578125 27.864595 42.135421 30.104156 41.250000 32.187500 C40.364579 34.270844 39.140633 36.080721 37.578125 37.617188 C36.015617 39.153654 34.192719 40.377600 32.109375 41.289062 C30.026031 42.200525 27.812512 42.656250 25.468750 42.656250 C23.124988 42.656250 20.872407 42.161463 18.710938 41.171875 C16.549468 40.182287 14.648446 38.867196 13.007812 37.226562 C11.367179 35.585929 10.052088 33.684907 9.062500 31.523438 C8.072912 29.361968 7.578125 27.083345 7.578125 24.687500 Z M71.562500 67.578125" style="fill:black"/>
</svg>