<?xml version="1.0" standalone="no"?>
<!DOCTYPE svg PUBLIC "-//W3C//DTD SVG 20010904//EN"
 "http://www.w3.org/TR/2001/REC-SVG-20010904/DTD/svg10.dtd">
<svg version="1.0" xmlns="http://www.w3.org/2000/svg"
 width="700.000000pt" height="700.000000pt" viewBox="0 0 700.000000 700.000000"
 preserveAspectRatio="xMidYMid meet">
<metadata>
Created by potrace 1.11, written by Peter Selinger 2001-2013
</metadata>
<g transform="translate(0.000000,700.000000) scale(0.100000,-0.100000)"
fill="#000000" stroke="none">
<path d="M3358 6995 c-2 -2 -25 -6 -53 -9 -118 -15 -266 -56 -363 -102 -41
-19 -76 -34 -78 -34 -11 0 -147 -90 -209 -139 -334 -264 -526 -630 -551 -1048
l-5 -93 1401 0 1402 0 -6 93 c-4 51 -8 104 -11 117 -2 14 -6 42 -9 63 -11 89
-62 240 -121 362 -94 191 -233 365 -390 490 -27 22 -52 42 -55 45 -48 48 -321
185 -410 205 -8 2 -44 10 -80 19 -36 8 -83 18 -105 21 -40 7 -351 16 -357 10z"/>
<path d="M628 5845 c-61 -16 -119 -59 -157 -115 -38 -56 -44 -77 -45 -160 -2
-120 -8 -113 389 -517 116 -118 263 -269 328 -335 l117 -120 0 -657 0 -656
-512 0 c-506 0 -512 0 -567 -22 -75 -30 -146 -107 -167 -181 -40 -137 29 -285
160 -343 51 -23 54 -23 563 -24 282 -1 514 -3 517 -6 3 -2 7 -67 11 -144 3
-77 8 -153 9 -170 2 -16 7 -59 10 -95 24 -229 94 -497 186 -713 l42 -98 -59
-67 c-32 -37 -69 -80 -83 -96 -14 -16 -30 -34 -35 -40 -6 -6 -55 -63 -110
-126 -55 -63 -104 -120 -110 -126 -5 -6 -31 -35 -57 -65 -25 -30 -137 -157
-247 -284 -111 -126 -211 -250 -223 -275 -33 -70 -31 -178 5 -253 29 -58 84
-111 141 -136 76 -32 183 -22 257 24 20 14 124 125 231 247 106 123 197 228
203 234 21 25 109 126 261 302 86 100 161 182 166 182 4 0 25 -16 45 -36 107
-103 361 -269 553 -362 222 -107 485 -175 703 -181 l67 -2 0 2000 0 2001 280
0 280 0 0 -2001 0 -2002 98 7 c264 17 553 106 804 246 112 63 330 208 376 250
18 16 35 30 38 30 3 0 123 -120 267 -266 144 -146 343 -348 442 -448 99 -100
194 -192 210 -203 48 -33 143 -49 205 -35 198 46 283 291 158 452 -11 14 -138
147 -283 295 -145 149 -326 334 -402 412 -76 78 -162 167 -192 197 l-54 55 41
83 c61 124 130 305 147 384 2 10 15 66 28 124 48 203 73 420 76 660 l1 45 492
0 c271 -1 516 3 543 8 62 10 119 48 166 111 46 61 57 98 54 183 -4 108 -68
200 -169 244 -51 23 -55 23 -561 25 -280 1 -513 2 -517 3 -5 1 -8 295 -8 655
l0 654 208 212 c665 677 626 631 627 760 0 87 -23 144 -81 203 -92 92 -244
108 -344 37 -25 -18 -232 -225 -615 -617 l-188 -193 -1847 0 -1846 0 -330 336
c-449 459 -457 467 -506 492 -54 26 -128 33 -190 17z"/>
</g>
</svg>
