<svg xmlns="http://www.w3.org/2000/svg" xmlns:xlink="http://www.w3.org/1999/xlink" width="0" height="0" style="position:absolute">
	
		<symbol id="icon-attachment" viewBox="">
			<path d="M19.223 78.401c-2.605 0-5.079-.52-7.422-1.562-2.344-1.042-4.375-2.448-6.094-4.219a19.863 19.863 0 0 1-4.102-5.976 18.314 18.314 0 0 1-1.601-7.188c-.052-2.526.43-5.104 1.445-7.734 1.016-2.63 2.721-5.143 5.117-7.54a751.716 751.716 0 0 1 6.836-6.952A5572.77 5572.77 0 0 0 23.95 26.566l11.563-11.72c3.88-3.932 7.226-7.304 10.039-10.116 1.979-2.032 4.166-3.412 6.562-4.141 2.396-.73 4.792-.781 7.188-.156 2.396.677 4.479 1.914 6.25 3.71 1.77 1.798 2.994 3.894 3.672 6.29.625 2.448.572 4.896-.157 7.343-.729 2.448-2.083 4.662-4.062 6.641L27.738 62.151c-1.094 1.094-2.226 1.954-3.398 2.579-1.172.625-2.357 1.015-3.555 1.171a8.444 8.444 0 0 1-3.437-.39 7.31 7.31 0 0 1-2.891-1.797c-1.406-1.458-2.11-3.438-2.11-5.938 0-2.5 1.225-4.974 3.672-7.421L42.191 23.87c.521-.573 1.16-.86 1.914-.86.756 0 1.42.287 1.993.86.52.521.78 1.172.78 1.953 0 .782-.26 1.433-.78 1.953L19.848 54.34c-1.094 1.146-1.732 2.213-1.915 3.203-.182.99-.039 1.745.43 2.266.209.208.469.351.781.43a4.18 4.18 0 0 0 1.016.117c.573-.105 1.172-.326 1.797-.664.625-.339 1.25-.82 1.875-1.446l37.266-37.734c1.302-1.302 2.187-2.695 2.656-4.18.469-1.484.495-2.956.078-4.414-.365-1.458-1.094-2.734-2.188-3.828-1.093-1.094-2.343-1.849-3.75-2.266a7.827 7.827 0 0 0-4.375.157c-1.458.468-2.838 1.354-4.14 2.656-2.76 2.812-6.08 6.185-9.961 10.117L27.855 30.472a5572.77 5572.77 0 0 1-10.547 10.664c-3.203 3.229-5.507 5.547-6.914 6.953-3.593 3.698-5.208 7.46-4.843 11.289.364 3.828 1.718 6.94 4.062 9.336 2.344 2.344 5.404 3.71 9.18 4.102 3.776.39 7.487-1.263 11.133-4.961L68.91 28.4c.52-.572 1.159-.859 1.914-.859.755 0 1.42.287 1.992.86.521.52.782 1.171.782 1.953 0 .78-.26 1.432-.782 1.953L33.832 71.76c-2.344 2.344-4.766 4.036-7.266 5.078-2.5 1.042-4.948 1.562-7.343 1.562zM76.8 75.198"></path>
		</symbol>
	
		<symbol id="icon-cart" viewBox="">
			<path d="M52.031 64.063c0 2.187.781 4.062 2.344 5.624 1.563 1.563 3.437 2.344 5.625 2.344s4.062-.781 5.625-2.344c1.563-1.562 2.344-3.437 2.344-5.624 0-2.24-.781-4.141-2.344-5.704-1.563-1.562-3.437-2.343-5.625-2.343s-4.062.78-5.625 2.343c-1.563 1.563-2.344 3.464-2.344 5.703zm-40 0c0 2.187.781 4.062 2.344 5.624 1.563 1.563 3.437 2.344 5.625 2.344s4.062-.781 5.625-2.344c1.563-1.562 2.344-3.437 2.344-5.624 0-2.24-.781-4.141-2.344-5.704-1.563-1.562-3.437-2.343-5.625-2.343s-4.062.78-5.625 2.343c-1.563 1.563-2.344 3.464-2.344 5.703zm14.14-19.376L70.47 32.11c.416-.156.781-.43 1.094-.82.312-.39.468-.82.468-1.289V8.047H16.016V1.64c0-.47-.157-.86-.47-1.172C15.235.156 14.845 0 14.376 0H1.562C1.147 0 .782.156.47.469.156.78 0 1.172 0 1.64v6.406h7.969l7.656 35.781.39 3.828v6.563c0 .469.157.86.47 1.172.312.312.676.468 1.093.468h52.813c.468 0 .859-.169 1.171-.507.313-.339.47-.717.47-1.133v-6.172h-45c-2.292 0-3.49-.417-3.595-1.25-.104-.833.808-1.537 2.735-2.11zM80 72.031"></path>
		</symbol>
	
		<symbol id="icon-check" viewBox="">
			<path d="M19.9 55.967a5.84 5.84 0 0 1-2.5-.547 4.939 4.939 0 0 1-1.953-1.64L1.151 34.873C.213 33.675-.152 32.308.057 30.772c.208-1.537.937-2.748 2.187-3.633 1.198-.938 2.565-1.302 4.102-1.094 1.536.208 2.773.912 3.71 2.11l9.376 12.421L43.104 2.608C43.884 1.306 45.03.485 46.54.147c1.51-.339 2.917-.091 4.219.742 1.302.781 2.135 1.927 2.5 3.437.365 1.51.13 2.917-.703 4.22L24.588 53.388a5.386 5.386 0 0 1-1.875 1.875 4.917 4.917 0 0 1-2.578.703H19.9zm46.797 8.047"></path>
		</symbol>
	
		<symbol id="icon-chevron" viewBox="">
			<path d="M45.118 25.86c-.885.885-1.888 1.34-3.007 1.367-1.12.026-2.227-.43-3.32-1.368l-15.626-15-15.625 15c-1.094.938-2.2 1.394-3.32 1.368-1.12-.026-2.122-.482-3.008-1.368-.833-.885-1.237-1.979-1.21-3.28.025-1.303.429-2.37 1.21-3.204.417-.417 1.628-1.589 3.633-3.516s4.128-3.958 6.367-6.093c2.24-2.136 4.27-4.063 6.094-5.782l2.734-2.578A4.06 4.06 0 0 1 21.486.352 4.225 4.225 0 0 1 23.166 0c.572 0 1.132.117 1.679.352a4.06 4.06 0 0 1 1.445 1.054l2.735 2.578c1.823 1.72 3.854 3.646 6.093 5.782 2.24 2.135 4.362 4.166 6.368 6.093a394.374 394.374 0 0 1 3.632 3.516c.782.833 1.198 1.901 1.25 3.203.052 1.302-.364 2.396-1.25 3.281zM63.165 52.03"></path>
		</symbol>
	
		<symbol id="icon-chevron-double" viewBox="">
			<path d="M5.703 22.344L20 7.969l14.297 14.375c.364.312.768.547 1.21.703.444.156.821.234 1.134.234.364 0 .768-.078 1.21-.234.443-.156.82-.39 1.133-.703C39.661 21.667 40 20.885 40 20c0-.885-.339-1.667-1.016-2.344L22.344.938C21.667.311 20.885 0 20 0c-.885 0-1.667.312-2.344.938L1.016 17.655C.339 18.333 0 19.115 0 20c0 .885.339 1.667 1.016 2.344.677.625 1.458.937 2.343.937.886 0 1.667-.312 2.344-.937zm16.64 1.953c-.676-.677-1.458-1.016-2.343-1.016s-1.667.339-2.344 1.016l-16.64 16.64C.339 41.615 0 42.397 0 43.282c0 .886.339 1.667 1.016 2.344.677.677 1.458 1.016 2.343 1.016.886 0 1.667-.339 2.344-1.016L20 31.328l14.297 14.297c.364.365.768.625 1.21.781.444.157.821.235 1.134.235.364 0 .768-.078 1.21-.235.443-.156.82-.416 1.133-.781.677-.677 1.016-1.458 1.016-2.344 0-.885-.339-1.666-1.016-2.343zM60 56.64"></path>
		</symbol>
	
		<symbol id="icon-chevron-sm" viewBox="">
			<path d="M4.728 20c-.52.52-1.172.781-1.953.781-.781 0-1.432-.26-1.953-.781-.52-.52-.794-1.172-.82-1.953-.026-.781.247-1.432.82-1.953L16.447.78C16.967.261 17.619 0 18.4 0c.781 0 1.432.26 1.953.781l15.625 15.313c.573.52.86 1.172.86 1.953 0 .781-.287 1.432-.86 1.953-.52.52-1.172.781-1.953.781-.781 0-1.432-.26-1.953-.781L18.4 7.422zM58.4 47.422"></path>
		</symbol>
	
		<symbol id="icon-chevron-thin" viewBox="">
			<path d="M4.688 35.938c-.521.572-1.172.859-1.954.859-.78 0-1.432-.287-1.953-.86C.261 35.417 0 34.78 0 34.023c0-.755.26-1.393.781-1.914L32.421.781C32.944.261 33.595 0 34.376 0c.781 0 1.432.26 1.953.781l31.64 31.328c.522.521.782 1.16.782 1.914 0 .756-.26 1.394-.781 1.914-.521.573-1.172.86-1.953.86-.782 0-1.433-.287-1.954-.86L34.376 7.422zm69.687 20.468"></path>
		</symbol>
	
		<symbol id="icon-chevron_in_circle" viewBox="">
			<path d="M39.844 29.531c-.365-.416-.834-.625-1.407-.625-.572 0-1.041.209-1.406.625l-11.484 11.25c-.417.365-.625.82-.625 1.367s.208 1.03.625 1.446c.417.364.898.547 1.445.547s1.029-.183 1.445-.547l10-9.219 10 9.219c.417.364.899.547 1.446.547.547 0 1.028-.183 1.445-.547.417-.417.625-.899.625-1.446 0-.546-.208-1.002-.625-1.367zM38.437 0c-5.312 0-10.299 1.003-14.96 3.008-4.662 2.005-8.724 4.74-12.188 8.203-3.463 3.463-6.21 7.526-8.242 12.187C1.016 28.06 0 33.047 0 38.36c0 5.313 1.016 10.3 3.047 14.961 2.031 4.662 4.779 8.724 8.242 12.188 3.464 3.463 7.526 6.21 12.188 8.242 4.661 2.031 9.648 3.047 14.96 3.047 5.313 0 10.3-1.016 14.961-3.047 4.662-2.031 8.724-4.779 12.188-8.242 3.463-3.464 6.21-7.526 8.242-12.188 2.031-4.661 3.047-9.648 3.047-14.96 0-5.313-1.016-10.3-3.047-14.962-2.031-4.661-4.779-8.724-8.242-12.187-3.464-3.464-7.526-6.198-12.188-8.203C48.737 1.003 43.75 0 38.438 0zm0 71.797c-4.635 0-8.97-.873-13.007-2.617-4.037-1.745-7.578-4.128-10.625-7.149-3.047-3.02-5.443-6.562-7.188-10.625C5.872 47.344 5 42.995 5 38.36c0-4.583.872-8.906 2.617-12.968 1.745-4.063 4.14-7.605 7.188-10.625 3.047-3.021 6.588-5.417 10.625-7.188 4.036-1.77 8.372-2.656 13.008-2.656 4.635 0 8.97.885 13.007 2.656 4.037 1.771 7.565 4.167 10.586 7.188 3.021 3.02 5.417 6.562 7.188 10.625 1.77 4.062 2.656 8.385 2.656 12.968 0 4.636-.885 8.985-2.656 13.047-1.771 4.063-4.167 7.604-7.188 10.625-3.02 3.021-6.55 5.404-10.586 7.149-4.036 1.744-8.372 2.617-13.008 2.617zm40 2.578"></path>
		</symbol>
	
		<symbol id="icon-circle" viewBox="">
			<path d="M38.438 0c-5.313 0-10.3 1.003-14.961 3.008-4.662 2.005-8.724 4.74-12.188 8.203-3.463 3.463-6.21 7.526-8.242 12.187C1.016 28.06 0 33.047 0 38.36c0 5.313 1.016 10.3 3.047 14.961 2.031 4.662 4.779 8.724 8.242 12.188 3.464 3.463 7.526 6.21 12.188 8.242 4.661 2.031 9.648 3.047 14.96 3.047 5.313 0 10.3-1.016 14.961-3.047 4.662-2.031 8.724-4.779 12.188-8.242 3.463-3.464 6.21-7.526 8.242-12.188 2.031-4.661 3.047-9.648 3.047-14.96 0-5.313-1.016-10.3-3.047-14.962-2.031-4.661-4.779-8.724-8.242-12.187-3.464-3.464-7.526-6.198-12.188-8.203C48.737 1.003 43.75 0 38.438 0zm0 68.75c-4.22 0-8.165-.794-11.836-2.383-3.672-1.588-6.888-3.75-9.649-6.484-2.76-2.735-4.935-5.95-6.523-9.649-1.589-3.698-2.383-7.656-2.383-11.875 0-4.166.794-8.099 2.383-11.797 1.588-3.697 3.763-6.927 6.523-9.687s5.977-4.935 9.649-6.523c3.671-1.589 7.617-2.383 11.835-2.383 4.22 0 8.165.794 11.836 2.383 3.672 1.588 6.888 3.763 9.649 6.523 2.76 2.76 4.935 5.99 6.523 9.688 1.589 3.697 2.383 7.63 2.383 11.796 0 4.22-.794 8.177-2.383 11.875-1.588 3.698-3.763 6.914-6.523 9.649-2.76 2.734-5.977 4.896-9.649 6.484-3.671 1.589-7.617 2.383-11.836 2.383zm40 5.625"></path>
		</symbol>
	
		<symbol id="icon-circle_with_cross" viewBox="">
			<path d="M33.594 0c-4.636 0-8.998.885-13.086 2.656-4.089 1.771-7.643 4.167-10.664 7.188-3.021 3.02-5.417 6.575-7.188 10.664C.886 24.596 0 28.958 0 33.594c0 4.635.885 8.997 2.656 13.086 1.771 4.088 4.167 7.656 7.188 10.703 3.02 3.047 6.575 5.443 10.664 7.187 4.088 1.745 8.45 2.618 13.086 2.618 4.635 0 8.997-.873 13.086-2.618 4.088-1.744 7.643-4.14 10.664-7.187 3.02-3.047 5.416-6.615 7.187-10.703 1.771-4.089 2.656-8.45 2.656-13.086 0-4.636-.885-8.998-2.656-13.086-1.77-4.089-4.166-7.643-7.187-10.664S50.768 4.427 46.68 2.656C42.59.886 38.23 0 33.594 0zm19.14 45.86l-6.875 6.874-12.265-12.187-12.266 12.187-6.875-6.875L26.72 33.594 14.453 21.328l6.875-6.875L33.594 26.72l12.265-12.266 6.875 6.875L40.47 33.594zm20.86 23.75"></path>
		</symbol>
	
		<symbol id="icon-circle_with_minus" viewBox="">
			<path d="M33.594 0c-4.636 0-8.998.885-13.086 2.656-4.089 1.771-7.643 4.167-10.664 7.188-3.021 3.02-5.417 6.575-7.188 10.664C.886 24.596 0 28.958 0 33.594c0 4.635.885 8.997 2.656 13.086 1.771 4.088 4.167 7.656 7.188 10.703 3.02 3.047 6.575 5.443 10.664 7.187 4.088 1.745 8.45 2.618 13.086 2.618 4.635 0 8.997-.873 13.086-2.618 4.088-1.744 7.643-4.14 10.664-7.187 3.02-3.047 5.416-6.615 7.187-10.703 1.771-4.089 2.656-8.45 2.656-13.086 0-4.636-.885-8.998-2.656-13.086-1.77-4.089-4.166-7.643-7.187-10.664S50.768 4.427 46.68 2.656C42.59.886 38.23 0 33.594 0zm20 37.578h-40V29.61h40zm20 32.031"></path>
		</symbol>
	
		<symbol id="icon-circle_with_plus" viewBox="">
			<path d="M33.594 0c-4.636 0-8.998.885-13.086 2.656-4.089 1.771-7.643 4.167-10.664 7.188-3.021 3.02-5.417 6.575-7.188 10.664C.886 24.596 0 28.958 0 33.594c0 4.635.885 8.997 2.656 13.086 1.771 4.088 4.167 7.656 7.188 10.703 3.02 3.047 6.575 5.443 10.664 7.187 4.088 1.745 8.45 2.618 13.086 2.618 4.635 0 8.997-.873 13.086-2.618 4.088-1.744 7.643-4.14 10.664-7.187 3.02-3.047 5.416-6.615 7.187-10.703 1.771-4.089 2.656-8.45 2.656-13.086 0-4.636-.885-8.998-2.656-13.086-1.77-4.089-4.166-7.643-7.187-10.664S50.768 4.427 46.68 2.656C42.59.886 38.23 0 33.594 0zm20 37.578H37.578v16.016H29.61V37.578H13.594V29.61h16.015V13.594h7.97v16.015h16.015zm20 32.031"></path>
		</symbol>
	
		<symbol id="icon-cloud" viewBox="">
			<path d="M80 33.281c0 2.552-.508 4.974-1.523 7.266-1.016 2.292-2.383 4.284-4.102 5.976-1.719 1.693-3.737 3.021-6.055 3.985-2.317.963-4.804 1.445-7.46 1.445H14.452c-4.01 0-7.422-1.38-10.234-4.14C1.406 45.053 0 41.718 0 37.813c0-3.907 1.406-7.24 4.219-10 2.812-2.76 6.224-4.141 10.234-4.141.313 0 .612.013.899.039.286.026.56.065.82.117-.052-.52-.104-1.029-.156-1.523a14.547 14.547 0 0 1-.078-1.524c0-2.864.56-5.56 1.68-8.086 1.119-2.526 2.642-4.726 4.57-6.601 1.927-1.875 4.18-3.36 6.757-4.453C31.523.547 34.297 0 37.265 0c2.396 0 4.675.365 6.837 1.094 2.161.729 4.14 1.758 5.937 3.086a21.447 21.447 0 0 1 4.648 4.687 20.373 20.373 0 0 1 2.97 5.977c.52-.104 1.04-.183 1.562-.235.52-.052 1.067-.078 1.64-.078 2.657 0 5.144.495 7.461 1.485 2.318.99 4.336 2.33 6.055 4.023a19.368 19.368 0 0 1 4.102 5.938C79.492 28.242 80 30.677 80 33.28zm0 30.703"></path>
		</symbol>
	
		<symbol id="icon-cross" viewBox="">
			<path d="M36.25 40.156c-.938.938-2.07 1.407-3.398 1.407-1.329 0-2.461-.47-3.399-1.407l-10.625-12.11-10.625 12.11c-.937.938-2.07 1.407-3.398 1.407-1.328 0-2.461-.47-3.399-1.407C.47 39.22 0 38.1 0 36.796c0-1.301.469-2.421 1.406-3.358L12.5 20.78 1.406 8.203C.47 7.266 0 6.133 0 4.805c0-1.328.469-2.461 1.406-3.399C2.344.47 3.476 0 4.805 0c1.328 0 2.46.469 3.398 1.406l10.625 12.11 10.625-12.11C30.391.47 31.523 0 32.852 0c1.328 0 2.46.469 3.398 1.406.938.938 1.406 2.07 1.406 3.399 0 1.328-.468 2.46-1.406 3.398L25.156 20.781 36.25 33.438c.938.937 1.406 2.057 1.406 3.359s-.468 2.422-1.406 3.36zm22.578 16.64"></path>
		</symbol>
	
		<symbol id="icon-cup" viewBox="">
			<path d="M27.214 0c-4.27 0-8.125.326-11.562.977-3.438.65-6.329 1.47-8.672 2.46-2.344.99-4.128 2.084-5.352 3.282C.404 7.917-.13 9.089.027 10.234l5.78 53.907c.053.468.613 1.132 1.68 1.992 1.068.86 2.54 1.732 4.415 2.617s4.114 1.654 6.718 2.305c2.604.65 5.469.976 8.594.976 3.125 0 5.99-.325 8.594-.976 2.604-.651 4.844-1.42 6.719-2.305 1.875-.885 3.346-1.758 4.414-2.617 1.067-.86 1.627-1.524 1.68-1.992l5.78-53.907c.157-1.145-.377-2.317-1.601-3.515s-3.02-2.292-5.39-3.282c-2.37-.99-5.261-1.81-8.673-2.46C35.326.326 31.485 0 27.214 0zm0 17.188c-3.125 0-6.003-.235-8.633-.704-2.63-.468-4.896-1.041-6.797-1.718-1.9-.677-3.372-1.355-4.414-2.032-1.041-.677-1.562-1.224-1.562-1.64 0-.417.52-.977 1.562-1.68s2.513-1.38 4.414-2.031c1.901-.651 4.167-1.224 6.797-1.719 2.63-.495 5.508-.742 8.633-.742 3.125 0 6.003.247 8.633.742 2.63.495 4.896 1.068 6.797 1.719 1.9.65 3.372 1.328 4.414 2.031 1.041.703 1.562 1.263 1.562 1.68 0 .416-.534.963-1.601 1.64-1.068.677-2.54 1.355-4.414 2.032-1.875.677-4.128 1.25-6.758 1.718-2.63.47-5.508.703-8.633.703zm40 54.843"></path>
		</symbol>
	
		<symbol id="icon-cycle" viewBox="">
			<path d="M14.846 49.688c-2.24-2.396-3.919-5.105-5.039-8.126-1.12-3.02-1.653-6.08-1.601-9.18.052-3.098.677-6.132 1.875-9.1 1.198-2.97 2.968-5.626 5.312-7.97 1.927-1.979 4.063-3.541 6.406-4.687a24.514 24.514 0 0 1 7.266-2.266L28.753 0c-3.49.469-6.888 1.484-10.196 3.047-3.307 1.562-6.289 3.698-8.945 6.406-3.177 3.177-5.56 6.758-7.149 10.742C.875 24.18.055 28.242.003 32.383c-.053 4.14.69 8.229 2.226 12.265 1.537 4.037 3.815 7.67 6.836 10.899l-6.953 7.031 22.031 1.172V40.469zm26.64-47.813l.08 23.36 9.218-9.297c2.24 2.447 3.92 5.169 5.039 8.164 1.12 2.994 1.654 6.041 1.601 9.14-.052 3.1-.677 6.133-1.875 9.102-1.197 2.969-2.968 5.65-5.312 8.047-1.927 1.927-4.063 3.463-6.406 4.609a26.323 26.323 0 0 1-7.266 2.344l.313 8.281c3.49-.417 6.888-1.406 10.195-2.969 3.307-1.562 6.289-3.698 8.945-6.406 3.177-3.177 5.56-6.758 7.149-10.742 1.588-3.985 2.408-8.06 2.46-12.227.053-4.166-.677-8.255-2.187-12.265-1.51-4.01-3.802-7.657-6.875-10.938l6.953-6.953zm31.33 66.953"></path>
		</symbol>
	
		<symbol id="icon-dots" viewBox="">
			<path d="M36.797 0c-2.448 0-4.531.86-6.25 2.578-1.719 1.719-2.578 3.776-2.578 6.172 0 2.448.86 4.531 2.578 6.25 1.719 1.719 3.802 2.578 6.25 2.578s4.531-.86 6.25-2.578c1.719-1.719 2.578-3.802 2.578-6.25 0-2.396-.86-4.453-2.578-6.172C41.328.86 39.245 0 36.797 0zM8.828 0C6.38 0 4.297.86 2.578 2.578.86 4.297 0 6.354 0 8.75c0 2.448.86 4.531 2.578 6.25 1.719 1.719 3.802 2.578 6.25 2.578 2.396 0 4.453-.86 6.172-2.578 1.719-1.719 2.578-3.802 2.578-6.25 0-2.396-.86-4.453-2.578-6.172C13.281.86 11.224 0 8.828 0zm55.938 0c-2.396 0-4.453.86-6.172 2.578-1.719 1.719-2.578 3.776-2.578 6.172 0 2.448.859 4.531 2.578 6.25 1.719 1.719 3.776 2.578 6.172 2.578 2.448 0 4.53-.86 6.25-2.578 1.718-1.719 2.578-3.802 2.578-6.25 0-2.396-.86-4.453-2.578-6.172C69.296.86 67.214 0 64.766 0zm12.03 44.766"></path>
		</symbol>
	
		<symbol id="icon-email" viewBox="">
			<path d="M56.875 47.031c0 1.719.26 2.943.781 3.672.521.73 1.406 1.094 2.657 1.094 2.812 0 5.039-1.68 6.68-5.04 1.64-3.359 2.46-7.98 2.46-13.866 0-4.532-.768-8.464-2.305-11.797-1.536-3.334-3.645-6.107-6.328-8.32-2.682-2.214-5.82-3.868-9.414-4.961-3.594-1.094-7.448-1.641-11.562-1.641-4.219 0-8.268.703-12.149 2.11-3.88 1.406-7.304 3.489-10.273 6.25-2.969 2.76-5.339 6.171-7.11 10.234-1.77 4.062-2.656 8.776-2.656 14.14 0 5.104.808 9.623 2.422 13.555 1.615 3.932 3.906 7.24 6.875 9.922 2.969 2.682 6.55 4.7 10.742 6.054 4.193 1.355 8.867 2.032 14.024 2.032 3.49 0 6.614-.222 9.375-.664 2.76-.443 5.937-1.263 9.531-2.461l1.563 6.406a57.074 57.074 0 0 1-10.782 2.344c-3.594.416-6.875.625-9.843.625-6.72 0-12.67-.899-17.852-2.696-5.182-1.796-9.531-4.335-13.047-7.617-3.516-3.281-6.172-7.252-7.969-11.914C.898 49.831 0 44.635 0 38.906c0-5.781 1.003-11.054 3.008-15.82s4.778-8.867 8.32-12.305c3.542-3.437 7.76-6.093 12.656-7.969C28.88.938 34.22 0 40 0c5.99 0 11.289.846 15.898 2.54 4.61 1.692 8.464 3.983 11.563 6.874 3.099 2.89 5.43 6.29 6.992 10.195 1.563 3.907 2.344 8.073 2.344 12.5 0 3.75-.313 7.227-.938 10.43-.625 3.203-1.692 5.99-3.203 8.36-1.51 2.37-3.515 4.231-6.015 5.585-2.5 1.355-5.6 2.032-9.297 2.032-3.386 0-6.107-.703-8.164-2.11-2.058-1.406-3.242-3.593-3.555-6.562-.833 3.333-2.357 5.612-4.57 6.836-2.214 1.224-4.883 1.836-8.008 1.836-2.083 0-4.05-.404-5.899-1.211-1.849-.808-3.476-2.019-4.882-3.633-1.407-1.615-2.526-3.633-3.36-6.055-.833-2.422-1.25-5.273-1.25-8.554 0-3.23.378-6.146 1.133-8.75.755-2.605 1.862-4.818 3.32-6.641a14.75 14.75 0 0 1 5.391-4.219c2.135-.99 4.583-1.484 7.344-1.484 2.969 0 5.364.534 7.187 1.601 1.823 1.068 3.151 2.513 3.985 4.336l2.812-5.078h8.047v28.203zM45.078 34.375c0-2.604-.794-4.505-2.383-5.703-1.588-1.198-3.19-1.797-4.804-1.797-1.771 0-3.464.833-5.078 2.5-1.615 1.667-2.422 4.61-2.422 8.828 0 3.386.677 5.977 2.03 7.774 1.355 1.796 3.178 2.695 5.47 2.695 1.562 0 3.15-.56 4.765-1.68 1.615-1.12 2.422-3.086 2.422-5.898zm33.36 40"></path>
		</symbol>
	
		<symbol id="icon-fb_with_circle" viewBox="">
			<path d="M38.438 0c-5.313 0-10.3 1.003-14.961 3.008-4.662 2.005-8.724 4.74-12.188 8.203-3.463 3.463-6.21 7.526-8.242 12.187C1.016 28.06 0 33.047 0 38.36c0 5.313 1.016 10.3 3.047 14.961 2.031 4.662 4.779 8.724 8.242 12.188 3.464 3.463 7.526 6.21 12.188 8.242 4.661 2.031 9.648 3.047 14.96 3.047 5.313 0 10.3-1.016 14.961-3.047 4.662-2.031 8.724-4.779 12.188-8.242 3.463-3.464 6.21-7.526 8.242-12.188 2.031-4.661 3.047-9.648 3.047-14.96 0-5.313-1.016-10.3-3.047-14.962-2.031-4.661-4.779-8.724-8.242-12.187-3.464-3.464-7.526-6.198-12.188-8.203C48.737 1.003 43.75 0 38.438 0zM47.5 26.484h-5.703c-.365 0-.703.209-1.016.625-.312.417-.468.912-.468 1.485v4.218H47.5l-1.016 5.938h-6.172v17.813h-6.796V38.75h-6.172v-5.938h6.172v-3.515c0-2.5.78-4.649 2.343-6.445 1.563-1.797 3.542-2.696 5.938-2.696H47.5zm30.938 47.891"></path>
		</symbol>
	
		<symbol id="icon-fb_with_square" viewBox="">
			<path d="M63.984 0H8.047c-2.24 0-4.14.794-5.703 2.383C.78 3.97 0 5.859 0 8.047v56.016c0 2.187.781 4.062 2.344 5.624 1.562 1.563 3.463 2.344 5.703 2.344h27.969V44.062h-7.97v-9.921h7.97v-8.203c0-4.323 1.237-7.865 3.71-10.625 2.475-2.76 6.264-4.141 11.368-4.141h7.187V21.64h-4.765c-1.98 0-3.386.612-4.22 1.836-.832 1.224-1.25 2.513-1.25 3.867v6.797h10.235l-2.265 9.922h-7.97V72.03h15.938c2.24 0 4.141-.781 5.703-2.344 1.563-1.562 2.344-3.437 2.344-5.624V8.047c0-2.188-.781-4.076-2.344-5.664C68.126.794 66.225 0 63.984 0zm12.032 72.031"></path>
		</symbol>
	
		<symbol id="icon-g+" viewBox="">
			<path d="M3.828 17.5c0 3.02.495 5.599 1.485 7.734.99 2.136 2.473 3.828 4.453 5.078 1.614 1.042 3.255 1.706 4.921 1.993 1.667.286 2.995.43 3.985.43H19.766l.078 2.5c.052 1.666.807 3.489 2.265 5.468h-.156c-1.25 0-3.099.13-5.547.39-2.448.261-4.883.886-7.304 1.876-2.422.99-4.545 2.474-6.368 4.453C.911 49.402 0 52.135 0 55.625c0 3.49.82 6.224 2.46 8.203 1.642 1.98 3.53 3.45 5.665 4.414 2.135.964 4.219 1.563 6.25 1.797 2.031.234 3.437.352 4.219.352H19.609c.99 0 2.618-.144 4.883-.43 2.266-.287 4.597-1.003 6.992-2.148 3.073-1.51 5.391-3.568 6.953-6.172 1.563-2.605 2.344-5.73 2.344-9.375 0-3.542-.937-6.433-2.812-8.672-1.875-2.24-3.698-4.115-5.469-5.625a45.286 45.286 0 0 1-2.734-2.657c-.782-.833-1.172-1.64-1.172-2.421 0-.834.286-1.576.86-2.227.572-.651 1.301-1.367 2.187-2.148 1.354-1.198 2.578-2.76 3.672-4.688 1.093-1.927 1.64-4.557 1.64-7.89 0-2.917-.312-5.378-.937-7.383-.625-2.006-2.11-3.607-4.453-4.805.208-.156.664-.273 1.367-.352.703-.078 1.263-.169 1.68-.273a38.134 38.134 0 0 0 4.023-.742C40.065 2.044 40.78 1.38 40.78.39V0h-18.36c-.051 0-1.054.117-3.007.352-1.953.234-4.075.924-6.367 2.07s-4.401 2.89-6.328 5.234C4.792 10 3.829 13.281 3.829 17.5zm29.688 36.094c.156 2.812-.847 5.169-3.008 7.07-2.162 1.901-5.065 2.982-8.711 3.242-3.646.26-6.797-.377-9.453-1.914-2.657-1.536-4.063-3.71-4.219-6.523a7.996 7.996 0 0 1 .703-3.946c.573-1.276 1.432-2.434 2.578-3.476a13.537 13.537 0 0 1 4.14-2.578 17.536 17.536 0 0 1 5-1.172h1.251c3.385 0 6.146.885 8.281 2.656 2.136 1.771 3.281 3.984 3.438 6.64zm-4.844-39.922c.937 3.177.846 6.185-.274 9.023-1.12 2.839-2.773 4.57-4.96 5.196l-.782.156c-.26.052-.52.078-.781.078-1.98 0-3.854-.911-5.625-2.734-1.77-1.823-3.02-4.115-3.75-6.875-.365-1.563-.534-3.034-.508-4.414.026-1.38.274-2.722.742-4.024.47-1.302 1.094-2.37 1.875-3.203.782-.833 1.693-1.406 2.735-1.719A8.082 8.082 0 0 1 18.906 5c2.396 0 4.388.612 5.977 1.836 1.588 1.224 2.851 3.503 3.789 6.836zm31.172 13.515v-12.03h-7.969v12.03H39.844v7.97h12.031v12.03h7.969v-12.03h12.031v-7.97zm16.015 43.985"></path>
		</symbol>
	
		<symbol id="icon-g+_with_circle" viewBox="">
			<path d="M38.438 0c-5.313 0-10.3 1.003-14.961 3.008-4.662 2.005-8.724 4.74-12.188 8.203-3.463 3.463-6.21 7.526-8.242 12.187C1.016 28.06 0 33.047 0 38.36c0 5.313 1.016 10.3 3.047 14.961 2.031 4.662 4.779 8.724 8.242 12.188 3.464 3.463 7.526 6.21 12.188 8.242 4.661 2.031 9.648 3.047 14.96 3.047 5.313 0 10.3-1.016 14.961-3.047 4.662-2.031 8.724-4.779 12.188-8.242 3.463-3.464 6.21-7.526 8.242-12.188 2.031-4.661 3.047-9.648 3.047-14.96 0-5.313-1.016-10.3-3.047-14.962-2.031-4.661-4.779-8.724-8.242-12.187-3.464-3.464-7.526-6.198-12.188-8.203C48.737 1.003 43.75 0 38.438 0zM36.25 54.844c-1.198.573-2.383.937-3.555 1.093-1.172.157-1.992.235-2.46.235h-.313-.235c-.78 0-2.539-.365-5.273-1.094-2.734-.729-4.102-2.864-4.102-6.406 0-3.49 1.524-5.612 4.57-6.367 3.048-.756 5.222-1.133 6.524-1.133h.078c-.729-.99-1.106-1.914-1.132-2.774l-.04-1.289h-.546c-.521 0-1.198-.065-2.032-.195-.833-.13-1.666-.456-2.5-.977a5.809 5.809 0 0 1-2.226-2.578c-.495-1.093-.742-2.395-.742-3.906 0-4.27 1.55-6.81 4.648-7.617 3.099-.807 4.675-1.237 4.727-1.29h9.297v.235c0 .521-.365.873-1.094 1.055-.73.182-1.406.3-2.032.352a5.262 5.262 0 0 1-.859.117c-.364.026-.599.09-.703.195 1.198.625 1.953 1.445 2.266 2.46.312 1.017.468 2.254.468 3.712 0 1.667-.273 2.982-.82 3.945-.547.964-1.159 1.758-1.836 2.383-.469.417-.846.794-1.133 1.133-.286.338-.43.69-.43 1.054 0 .417.196.834.587 1.25.39.417.872.86 1.445 1.329.833.78 1.732 1.731 2.695 2.851.964 1.12 1.446 2.591 1.446 4.414 0 1.823-.391 3.399-1.172 4.727-.782 1.328-1.953 2.357-3.516 3.086zm20.156-16.485H50.47v6.016h-4.063v-6.016H40.47v-3.984h5.937v-6.016h4.063v6.016h5.937zm-25.078 4.61h-.625c-.885.104-1.732.312-2.539.625-.807.312-1.497.729-2.07 1.25-.573.573-1.003 1.185-1.29 1.836a4.902 4.902 0 0 0-.429 1.992c.104 1.406.833 2.487 2.188 3.242 1.354.755 2.942 1.08 4.765.977 1.823-.157 3.294-.717 4.414-1.68 1.12-.964 1.628-2.148 1.524-3.555-.105-1.302-.69-2.409-1.758-3.32-1.068-.912-2.461-1.367-4.18-1.367zM34.844 27.5c-.521-1.667-1.172-2.812-1.953-3.438-.782-.625-1.797-.937-3.047-.937h-.352c-.13 0-.273.026-.43.078-.52.156-.976.443-1.367.86-.39.416-.716.963-.976 1.64a7.919 7.919 0 0 0-.352 2.031c-.026.677.065 1.407.274 2.188.364 1.406 1.002 2.565 1.914 3.476.911.912 1.862 1.368 2.851 1.368h.352c.13 0 .273-.026.43-.078 1.093-.313 1.927-1.185 2.5-2.618.572-1.432.625-2.955.156-4.57zm43.593 46.875"></path>
		</symbol>
	
		<symbol id="icon-gh" viewBox="">
			<path d="M49.531 36.406c-1.458 0-2.695.703-3.71 2.11-1.016 1.406-1.524 3.099-1.524 5.078s.508 3.685 1.523 5.117c1.016 1.432 2.253 2.148 3.711 2.148 1.407 0 2.617-.716 3.633-2.148 1.016-1.432 1.523-3.138 1.523-5.117 0-1.98-.507-3.672-1.523-5.078-1.016-1.407-2.226-2.11-3.633-2.11zm18.125-18.75c.26-.729.287-2.864.078-6.406-.208-3.542-1.093-7.292-2.656-11.25l-5 1.328c-3.333.886-7.734 3.203-13.203 6.953-1.146-.312-2.63-.547-4.453-.703a65.865 65.865 0 0 0-5.625-.234c-1.927 0-3.802.078-5.625.234-1.823.156-3.307.39-4.453.703-5.469-3.75-9.87-6.067-13.203-6.953L8.516 0C6.953 3.958 6.068 7.708 5.859 11.25c-.208 3.542-.156 5.677.157 6.406a23.657 23.657 0 0 0-4.414 6.797C.534 26.953 0 29.87 0 33.203c0 7.188 1.276 12.748 3.828 16.68 2.552 3.932 5.508 6.823 8.867 8.672 3.36 1.849 6.68 2.942 9.961 3.28 3.282.34 5.677.509 7.188.509.677 0 1.653.013 2.93.039 1.275.026 2.617.039 4.023.039 1.458 0 2.812-.013 4.062-.04 1.25-.025 2.214-.038 2.891-.038 1.51 0 3.906-.17 7.188-.508 3.28-.339 6.601-1.432 9.96-3.281 3.36-1.85 6.316-4.74 8.868-8.672 2.552-3.932 3.828-9.492 3.828-16.68 0-3.333-.534-6.25-1.602-8.75a24.543 24.543 0 0 0-4.336-6.797zM36.875 58.828h-.156c-3.802 0-7.331-.17-10.586-.508-3.255-.338-6.094-1.08-8.516-2.226-2.422-1.146-4.323-2.8-5.703-4.961-1.38-2.162-2.07-5.065-2.07-8.711 0-1.771.325-3.464.976-5.078.651-1.615 1.732-3.1 3.242-4.453 2.448-2.24 5.652-3.151 9.61-2.735 3.958.417 8.307.625 13.047.625h.156c4.74 0 9.089-.208 13.047-.625 3.958-.416 7.161.495 9.61 2.735 1.51 1.354 2.59 2.838 3.241 4.453.651 1.614.977 3.307.977 5.078 0 3.646-.69 6.55-2.07 8.71-1.38 2.162-3.282 3.816-5.703 4.962-2.422 1.146-5.26 1.888-8.516 2.226-3.255.339-6.784.508-10.586.508zM24.062 36.406c-1.406 0-2.617.703-3.632 2.11-1.016 1.406-1.524 3.099-1.524 5.078s.508 3.685 1.524 5.117c1.015 1.432 2.226 2.148 3.633 2.148 1.458 0 2.695-.716 3.71-2.148 1.016-1.432 1.524-3.138 1.524-5.117 0-1.98-.508-3.672-1.524-5.078-1.015-1.407-2.252-2.11-3.71-2.11zm52.735 30.782"></path>
		</symbol>
	
		<symbol id="icon-gh_with_circle" viewBox="">
			<path d="M38.516 38.203h-.157c-2.395 0-4.583-.117-6.562-.351-1.98-.235-3.594.22-4.844 1.367-.729.677-1.263 1.432-1.601 2.265a6.79 6.79 0 0 0-.508 2.578c0 3.698 1.302 6.003 3.906 6.915 2.604.911 5.807 1.367 9.61 1.367h.156c3.802 0 7.005-.456 9.609-1.367 2.604-.912 3.906-3.217 3.906-6.914 0-.886-.156-1.745-.468-2.579-.313-.833-.86-1.588-1.641-2.265-1.25-1.146-2.865-1.602-4.844-1.367-1.98.234-4.167.351-6.562.351zM32.03 48.281c-.729 0-1.354-.351-1.875-1.054-.52-.704-.781-1.55-.781-2.54 0-1.041.26-1.914.781-2.617.521-.703 1.146-1.054 1.875-1.054.73 0 1.341.351 1.836 1.054.495.703.742 1.576.742 2.617 0 .99-.247 1.836-.742 2.54-.495.703-1.107 1.054-1.836 1.054zm12.813 0c-.73 0-1.341-.351-1.836-1.054-.495-.704-.742-1.55-.742-2.54 0-1.041.247-1.914.742-2.617.495-.703 1.107-1.054 1.836-1.054.729 0 1.354.351 1.875 1.054.52.703.781 1.576.781 2.617 0 .99-.26 1.836-.781 2.54-.521.703-1.146 1.054-1.875 1.054zM38.437 0c-5.312 0-10.299 1.003-14.96 3.008-4.662 2.005-8.724 4.74-12.188 8.203-3.463 3.463-6.21 7.526-8.242 12.187C1.016 28.06 0 33.047 0 38.36c0 5.313 1.016 10.3 3.047 14.961 2.031 4.662 4.779 8.724 8.242 12.188 3.464 3.463 7.526 6.21 12.188 8.242 4.661 2.031 9.648 3.047 14.96 3.047 5.313 0 10.3-1.016 14.961-3.047 4.662-2.031 8.724-4.779 12.188-8.242 3.463-3.464 6.21-7.526 8.242-12.188 2.031-4.661 3.047-9.648 3.047-14.96 0-5.313-1.016-10.3-3.047-14.962-2.031-4.661-4.779-8.724-8.242-12.187-3.464-3.464-7.526-6.198-12.188-8.203C48.737 1.003 43.75 0 38.438 0zm3.516 54.14h-7.031c-.73 0-1.927-.09-3.594-.273-1.667-.182-3.36-.742-5.078-1.68-1.719-.937-3.216-2.395-4.492-4.374-1.276-1.98-1.914-4.792-1.914-8.438 0-1.667.273-3.138.82-4.414a11.465 11.465 0 0 1 2.227-3.398c-.157-.365-.183-1.446-.078-3.243.104-1.797.546-3.71 1.328-5.742l2.539.703c1.692.469 3.919 1.64 6.68 3.516.572-.156 1.314-.274 2.226-.352a33.411 33.411 0 0 1 2.852-.117c.99 0 1.94.04 2.851.117.912.078 1.654.196 2.227.352 2.76-1.875 4.987-3.047 6.68-3.516l2.538-.703c.782 2.031 1.224 3.945 1.328 5.742.105 1.797.079 2.878-.078 3.242.938.99 1.68 2.123 2.227 3.399.547 1.276.82 2.747.82 4.414 0 3.646-.638 6.458-1.914 8.438-1.276 1.979-2.773 3.437-4.492 4.374-1.719.938-3.411 1.498-5.078 1.68-1.667.182-2.865.274-3.594.274zm36.484 20.235"></path>
		</symbol>
	
		<symbol id="icon-hangouts" viewBox="">
			<path d="M40 30l-3.281 6.64h-5L35 30h-5V20h10zm-13.281 0l-3.36 6.64h-5L21.72 30h-5V20h10zm1.64-30c-3.906 0-7.578.742-11.015 2.227C13.906 3.71 10.898 5.729 8.32 8.28c-2.578 2.552-4.61 5.547-6.093 8.985C.742 20.703 0 24.375 0 28.28c0 3.907.742 7.591 2.227 11.055 1.484 3.463 3.515 6.471 6.093 9.023 2.578 2.552 5.586 4.57 9.024 6.055 3.437 1.484 7.11 2.227 11.015 2.227H30v11.64a44.021 44.021 0 0 0 11.016-7.422c3.28-3.02 6.08-6.315 8.398-9.882 2.318-3.568 4.115-7.305 5.39-11.211 1.277-3.907 1.915-7.735 1.915-11.485 0-3.906-.742-7.578-2.227-11.015-1.484-3.438-3.515-6.433-6.094-8.985-2.578-2.552-5.585-4.57-9.023-6.054C35.937.742 32.265 0 28.359 0zm40 66.64"></path>
		</symbol>
	
		<symbol id="icon-heart" viewBox="">
			<path d="M63.125 4.61a16.182 16.182 0 0 0-5.664-3.477A18.99 18.99 0 0 0 51.016 0a18.99 18.99 0 0 0-6.446 1.133 16.182 16.182 0 0 0-5.664 3.476L34.375 8.75l-4.531-4.14a16.182 16.182 0 0 0-5.664-3.477A18.99 18.99 0 0 0 17.734 0a18.99 18.99 0 0 0-6.445 1.133 16.182 16.182 0 0 0-5.664 3.476C3.75 6.33 2.344 8.27 1.406 10.43.47 12.592 0 14.806 0 17.07c0 2.266.469 4.492 1.406 6.68.938 2.188 2.344 4.14 4.219 5.86l28.75 26.406 28.75-26.407c1.875-1.718 3.281-3.671 4.219-5.859.937-2.188 1.406-4.414 1.406-6.68 0-2.265-.469-4.479-1.406-6.64-.938-2.162-2.344-4.102-4.219-5.82zm11.25 59.374"></path>
		</symbol>
	
		<symbol id="icon-heart_outlined" viewBox="">
			<path d="M63.125 4.61a17.313 17.313 0 0 0-5.664-3.438A18.424 18.424 0 0 0 51.016 0c-2.188 0-4.336.39-6.446 1.172a17.313 17.313 0 0 0-5.664 3.437L34.375 8.75l-4.531-4.14a17.313 17.313 0 0 0-5.664-3.438A18.424 18.424 0 0 0 17.734 0c-2.187 0-4.336.39-6.445 1.172a17.313 17.313 0 0 0-5.664 3.437C3.75 6.33 2.344 8.27 1.406 10.43.47 12.592 0 14.806 0 17.07c0 2.266.469 4.492 1.406 6.68.938 2.188 2.344 4.14 4.219 5.86l28.75 26.406 28.75-26.407c1.875-1.718 3.281-3.671 4.219-5.859.937-2.188 1.406-4.414 1.406-6.68 0-2.265-.469-4.479-1.406-6.64-.938-2.162-2.344-4.102-4.219-5.82zm-4.219 20.859l-24.531 22.89L9.844 25.47c-1.198-1.146-2.058-2.435-2.578-3.867a13.042 13.042 0 0 1-.782-4.493c0-1.562.196-3.007.586-4.336.39-1.328 1.185-2.539 2.383-3.632a10.77 10.77 0 0 1 3.79-2.344c1.431-.521 2.929-.781 4.491-.781 1.563 0 3.06.403 4.493 1.21 1.432.808 2.669 1.706 3.71 2.696l8.438 7.265 8.36-7.265c1.093-.99 2.356-1.888 3.788-2.695 1.433-.808 2.93-1.211 4.493-1.211 1.562 0 3.06.26 4.492.78a10.77 10.77 0 0 1 3.789 2.345c1.198 1.093 1.992 2.304 2.383 3.632.39 1.329.586 2.774.586 4.336 0 1.563-.26 3.06-.782 4.493-.52 1.432-1.38 2.72-2.578 3.867zm15.469 38.515"></path>
		</symbol>
	
		<symbol id="icon-home" viewBox="">
			<path d="M71.028 36.328H64.31v24.063c0 .885-.26 1.77-.78 2.656-.522.885-1.59 1.328-3.204 1.328H44.309V40.391H28.372v23.984H12.356c-1.614 0-2.682-.443-3.203-1.328-.52-.886-.781-1.771-.781-2.656V36.328H1.653c-1.198 0-1.745-.286-1.64-.86.104-.572.572-1.275 1.406-2.109L33.529 1.25c.364-.417.793-.73 1.288-.938A3.89 3.89 0 0 1 36.341 0c.52 0 1.028.104 1.523.313.495.208.925.52 1.29.937l32.108 32.11c.834.833 1.303 1.536 1.407 2.109.104.573-.443.86-1.64.86zm5.313 32.031"></path>
		</symbol>
	
		<symbol id="icon-in" viewBox="">
			<path d="M16.016 8.047c0 2.135-.69 3.984-2.07 5.547-1.38 1.562-3.347 2.344-5.9 2.344-2.447 0-4.4-.756-5.858-2.266C.728 12.162 0 10.339 0 8.203 0 6.068.716 4.167 2.148 2.5 3.581.833 5.547 0 8.047 0c2.448 0 4.375.794 5.781 2.383 1.406 1.588 2.136 3.476 2.188 5.664zM0 72.03V20h16.016v52.031zm23.984-34.219c0-3.072-.039-5.924-.117-8.554-.078-2.63-.17-5.04-.273-7.227h14.375l.703 6.875h.312c1.042-1.614 2.813-3.36 5.313-5.234 2.5-1.875 5.833-2.813 10-2.813 2.5 0 4.844.43 7.031 1.29a14.446 14.446 0 0 1 5.625 3.945c1.563 1.77 2.8 3.997 3.711 6.68.912 2.682 1.367 5.846 1.367 9.492V72.03H56.016V44.61c0-3.177-.638-5.846-1.914-8.007-1.276-2.162-3.295-3.243-6.055-3.243-2.136 0-3.79.69-4.961 2.07-1.172 1.38-2.018 2.774-2.54 4.18a6.995 6.995 0 0 0-.429 1.797A17.706 17.706 0 0 0 40 43.438V72.03H23.984zm52.032 34.22"></path>
		</symbol>
	
		<symbol id="icon-in_with_circle" viewBox="">
			<path d="M38.438 0c-5.313 0-10.3 1.003-14.961 3.008-4.662 2.005-8.724 4.74-12.188 8.203-3.463 3.463-6.21 7.526-8.242 12.187C1.016 28.06 0 33.047 0 38.36c0 5.313 1.016 10.3 3.047 14.961 2.031 4.662 4.779 8.724 8.242 12.188 3.464 3.463 7.526 6.21 12.188 8.242 4.661 2.031 9.648 3.047 14.96 3.047 5.313 0 10.3-1.016 14.961-3.047 4.662-2.031 8.724-4.779 12.188-8.242 3.463-3.464 6.21-7.526 8.242-12.188 2.031-4.661 3.047-9.648 3.047-14.96 0-5.313-1.016-10.3-3.047-14.962-2.031-4.661-4.779-8.724-8.242-12.187-3.464-3.464-7.526-6.198-12.188-8.203C48.737 1.003 43.75 0 38.438 0zm-9.376 54.297H21.25v-25h7.813zm-3.984-28.125c-1.198 0-2.161-.378-2.89-1.133-.73-.755-1.094-1.68-1.094-2.773 0-1.094.377-2.006 1.133-2.735.755-.729 1.757-1.093 3.007-1.093 1.25 0 2.227.364 2.93 1.093.703.73 1.08 1.64 1.133 2.735 0 1.093-.378 2.018-1.133 2.773-.755.755-1.784 1.133-3.086 1.133zm32.344 28.125h-7.734V40.39c0-1.615-.313-2.917-.938-3.907-.625-.99-1.64-1.484-3.047-1.484-1.042 0-1.888.312-2.539.938-.651.625-1.133 1.276-1.445 1.953-.104.26-.17.56-.196.898-.026.339-.039.69-.039 1.055v14.453h-7.812V37.266c0-1.563-.013-3.008-.04-4.336-.025-1.328-.064-2.54-.116-3.633h6.718l.391 3.437h.156c.521-.833 1.406-1.718 2.657-2.656 1.25-.937 2.942-1.406 5.078-1.406 2.552 0 4.674.885 6.367 2.656 1.693 1.771 2.539 4.505 2.539 8.203zm21.016 20.078"></path>
		</symbol>
	
		<symbol id="icon-inst" viewBox="">
			<path d="M63.984 0H8.047c-2.24 0-4.14.794-5.703 2.383C.78 3.97 0 5.859 0 8.047v56.016c0 2.187.781 4.062 2.344 5.624 1.562 1.563 3.463 2.344 5.703 2.344h55.937c2.24 0 4.141-.781 5.703-2.344 1.563-1.562 2.344-3.437 2.344-5.624V8.047c0-2.188-.781-4.076-2.344-5.664C68.126.794 66.225 0 63.984 0zM35.937 58.125c3.073 0 5.951-.586 8.633-1.758 2.683-1.172 5.026-2.76 7.032-4.765 2.005-2.006 3.593-4.35 4.765-7.032 1.172-2.682 1.758-5.56 1.758-8.633 0-.677-.04-1.34-.117-1.992a15.496 15.496 0 0 0-.352-1.914h6.328V60.86c0 .782-.26 1.446-.78 1.993-.522.546-1.173.82-1.954.82H10.781c-.781 0-1.432-.274-1.953-.82-.52-.547-.781-1.211-.781-1.993V32.031h6.172a42.299 42.299 0 0 0-.274 1.914 16.708 16.708 0 0 0-.117 1.992c0 3.073.573 5.951 1.719 8.633 1.146 2.683 2.721 5.026 4.726 7.032 2.006 2.005 4.35 3.593 7.032 4.765 2.682 1.172 5.56 1.758 8.633 1.758zM22.11 35.937c0-3.802 1.355-7.057 4.063-9.765 2.708-2.708 5.963-4.063 9.765-4.063 3.855 0 7.123 1.355 9.805 4.063 2.682 2.708 4.024 5.963 4.024 9.765 0 3.855-1.342 7.136-4.024 9.844-2.682 2.709-5.95 4.063-9.804 4.063-3.803 0-7.058-1.354-9.766-4.063-2.708-2.708-4.063-5.99-4.063-9.843zM61.25 20h-6.484c-.73 0-1.368-.26-1.914-.781-.547-.521-.82-1.172-.82-1.953V10.78c0-.729.273-1.367.82-1.914.546-.547 1.184-.82 1.914-.82h6.484c.781 0 1.432.273 1.953.82.521.547.781 1.185.781 1.914v6.485c0 .78-.26 1.432-.78 1.953-.522.52-1.173.781-1.954.781zm14.766 52.031"></path>
		</symbol>
	
		<symbol id="icon-inst_with_circle" viewBox="">
			<path d="M50.469 38.36c0 3.333-1.172 6.171-3.516 8.515-2.344 2.344-5.182 3.516-8.516 3.516-3.333 0-6.171-1.172-8.515-3.516-2.344-2.344-3.516-5.182-3.516-8.516 0-.312.026-.638.078-.976.052-.339.105-.664.157-.977h-4.22v15.938c0 .573.196 1.054.587 1.445.39.39.872.586 1.445.586h27.969c.573 0 1.055-.195 1.445-.586.39-.39.586-.872.586-1.445V36.406h-4.219c.052.313.105.638.157.977.052.338.078.664.078.976zm-12.032 8.046c2.188 0 4.063-.781 5.626-2.343 1.562-1.563 2.343-3.464 2.343-5.704 0-2.187-.781-4.062-2.343-5.625-1.563-1.562-3.438-2.343-5.626-2.343-2.187 0-4.062.78-5.624 2.343-1.563 1.563-2.344 3.438-2.344 5.625 0 2.24.781 4.141 2.343 5.703 1.563 1.563 3.438 2.344 5.626 2.344zM48.047 30h4.766c.364 0 .664-.117.898-.352.234-.234.352-.533.352-.898v-4.766c0-.312-.118-.586-.352-.82-.234-.234-.534-.352-.898-.352h-4.766c-.313 0-.6.118-.86.352-.26.234-.39.508-.39.82v4.766c.052.365.195.664.43.898.234.235.507.352.82.352zm-9.61-30c-5.312 0-10.299 1.003-14.96 3.008-4.662 2.005-8.724 4.74-12.188 8.203-3.463 3.463-6.21 7.526-8.242 12.187C1.016 28.06 0 33.047 0 38.36c0 5.313 1.016 10.3 3.047 14.961 2.031 4.662 4.779 8.724 8.242 12.188 3.464 3.463 7.526 6.21 12.188 8.242 4.661 2.031 9.648 3.047 14.96 3.047 5.313 0 10.3-1.016 14.961-3.047 4.662-2.031 8.724-4.779 12.188-8.242 3.463-3.464 6.21-7.526 8.242-12.188 2.031-4.661 3.047-9.648 3.047-14.96 0-5.313-1.016-10.3-3.047-14.962-2.031-4.661-4.779-8.724-8.242-12.187-3.464-3.464-7.526-6.198-12.188-8.203C48.737 1.003 43.75 0 38.438 0zm20 53.906c0 1.25-.43 2.305-1.289 3.164-.859.86-1.914 1.29-3.164 1.29H22.891c-1.25 0-2.305-.43-3.164-1.29-.86-.86-1.29-1.914-1.29-3.164V22.813c0-1.198.43-2.24 1.29-3.125.859-.886 1.914-1.329 3.164-1.329h31.093c1.25 0 2.305.443 3.164 1.328.86.886 1.29 1.928 1.29 3.125zm20 20.469"></path>
		</symbol>
	
		<symbol id="icon-lock" viewBox="">
			<path d="M51.172 28.047h-7.188v-9.61c0-2.916-.338-5.507-1.015-7.773-.677-2.266-1.68-4.193-3.008-5.781-1.328-1.589-2.995-2.8-5-3.633C32.956.417 30.625 0 27.969 0c-2.657 0-4.987.417-6.992 1.25-2.006.833-3.672 2.044-5 3.633-1.329 1.588-2.331 3.515-3.008 5.781-.677 2.266-1.016 4.857-1.016 7.774v9.609H3.984c-1.093 0-2.03.52-2.812 1.562C.39 30.651 0 31.72 0 32.812v31.25c0 1.094.365 2.149 1.094 3.165.729 1.015 1.614 1.705 2.656 2.07l4.844 1.484c1.041.365 2.317.664 3.828.899 1.51.234 2.838.351 3.984.351h23.125c1.146 0 2.474-.117 3.985-.351 1.51-.235 2.786-.534 3.828-.899l4.843-1.562c1.042-.313 1.928-.977 2.657-1.992.729-1.016 1.093-2.07 1.093-3.165v-31.25c0-1.093-.52-2.161-1.562-3.203-1.042-1.041-2.11-1.562-3.203-1.562zm-15.234 0H20v-11.25c0-2.865.73-5.04 2.188-6.524 1.458-1.484 3.385-2.226 5.78-2.226 2.397 0 4.324.742 5.782 2.226 1.458 1.485 2.188 3.66 2.188 6.524zm32.03 43.984"></path>
		</symbol>
	
		<symbol id="icon-lock_open" viewBox="">
			<path d="M51.172 28.047h-7.188v-9.61c0-2.916-.338-5.507-1.015-7.773-.677-2.266-1.68-4.193-3.008-5.781-1.328-1.589-2.995-2.8-5-3.633C32.956.417 30.625 0 27.969 0c-2.657 0-4.987.417-6.992 1.25-2.006.833-3.672 2.044-5 3.633-1.329 1.588-2.331 3.515-3.008 5.781-.677 2.266-1.016 4.857-1.016 7.774V20H20v-3.203c0-2.865.73-5.04 2.188-6.524 1.458-1.484 3.385-2.226 5.78-2.226 2.397 0 4.324.742 5.782 2.226 1.458 1.485 2.188 3.66 2.188 6.524v11.25H3.983c-1.093 0-2.03.52-2.812 1.562C.39 30.651 0 31.72 0 32.812v31.25c0 1.094.365 2.149 1.094 3.165.729 1.015 1.614 1.705 2.656 2.07l4.844 1.484c1.041.365 2.317.664 3.828.899 1.51.234 2.838.351 3.984.351h23.125c1.146 0 2.474-.117 3.985-.351 1.51-.235 2.786-.534 3.828-.899l4.843-1.562c1.042-.313 1.928-.977 2.657-1.992.729-1.016 1.093-2.07 1.093-3.165v-31.25c0-1.093-.52-2.161-1.562-3.203-1.042-1.041-2.11-1.562-3.203-1.562zM67.969 72.03"></path>
		</symbol>
	
		<symbol id="icon-log_out" viewBox="">
			<path d="M72.031 36.016l-23.984-20v12.03H20v16.017h28.047v11.953zM8.047 8.046H40V0H8.047c-2.24 0-4.14.794-5.703 2.383C.78 3.97 0 5.859 0 8.047v56.016c0 2.187.781 4.062 2.344 5.624 1.562 1.563 3.463 2.344 5.703 2.344H40v-7.969H8.047zm67.969 63.985"></path>
		</symbol>
	
		<symbol id="icon-login" viewBox="">
			<path d="M52.031 36.016l-23.984-20v12.03H0v16.017h28.047v11.953zm11.953 28.047H32.031v7.968h31.953c2.24 0 4.141-.781 5.703-2.344 1.563-1.562 2.344-3.437 2.344-5.624V8.047c0-2.188-.781-4.076-2.344-5.664C68.126.794 66.225 0 63.984 0H32.031v8.047h31.953zm12.032 7.968"></path>
		</symbol>
	
		<symbol id="icon-mail" viewBox="">
			<path d="M2.385 5.156c.469.26 2.253 1.224 5.352 2.89 3.099 1.668 6.432 3.451 10 5.352 3.567 1.901 6.835 3.66 9.804 5.274 2.969 1.614 4.584 2.474 4.844 2.578.469.26 1.016.456 1.64.586.626.13 1.277.195 1.954.195s1.328-.065 1.953-.195a5.797 5.797 0 0 0 1.64-.586c.26-.104 1.875-.964 4.844-2.578a1311.75 1311.75 0 0 1 9.805-5.274c3.568-1.9 6.901-3.684 10-5.351a838.943 838.943 0 0 0 5.352-2.89c.99-.522 1.731-1.511 2.226-2.97C72.294.73 71.63 0 69.807 0H2.15C.328 0-.336.73.158 2.188c.495 1.458 1.237 2.447 2.227 2.968zm68.125 8.828c-.573.26-2.435 1.211-5.586 2.852-3.151 1.64-6.55 3.411-10.195 5.312l-10.04 5.235c-3.046 1.588-4.752 2.487-5.116 2.695-.678.365-1.277.586-1.797.664-.521.078-1.12.117-1.797.117-.677 0-1.276-.039-1.797-.117-.521-.078-1.12-.3-1.797-.664-.365-.208-2.07-1.107-5.117-2.695-3.047-1.589-6.38-3.334-10-5.235L7.15 16.836c-3.125-1.64-4.974-2.591-5.547-2.852-.781-.416-1.237-.468-1.367-.156-.13.313-.196.651-.196 1.016v29.14c0 .834.456 1.706 1.367 2.618.912.911 1.784 1.367 2.618 1.367h64.062c.833 0 1.706-.456 2.617-1.367.912-.912 1.368-1.784 1.368-2.618v-4.453-9.843-10-4.844c0-.365-.066-.703-.196-1.016-.13-.312-.586-.26-1.367.156zM76.057 60"></path>
		</symbol>
	
		<symbol id="icon-menu" viewBox="">
			<path d="M53.594 16.016H2.344c-1.094 0-1.758.39-1.992 1.172C.117 17.968 0 18.905 0 20c0 1.094.117 2.031.352 2.813.234.78.898 1.171 1.992 1.171h51.25c1.094 0 1.758-.39 1.992-1.172.234-.78.352-1.718.352-2.812 0-1.094-.118-2.031-.352-2.813-.234-.78-.898-1.171-1.992-1.171zm0 16.015H2.344c-1.094 0-1.758.39-1.992 1.172C.117 33.984 0 34.922 0 36.016c0 1.093.117 2.03.352 2.812C.586 39.61 1.25 40 2.344 40h51.25c1.094 0 1.758-.39 1.992-1.172.234-.781.352-1.719.352-2.812 0-1.094-.118-2.032-.352-2.813-.234-.781-.898-1.172-1.992-1.172zM2.344 8.047h51.25c1.094 0 1.758-.39 1.992-1.172.234-.781.352-1.745.352-2.89 0-1.094-.118-2.032-.352-2.813C55.352.39 54.688 0 53.594 0H2.344C1.25 0 .586.39.352 1.172.117 1.953 0 2.89 0 3.984c0 1.146.117 2.11.352 2.891.234.781.898 1.172 1.992 1.172zm65.625 47.969"></path>
		</symbol>
	
		<symbol id="icon-p" viewBox="">
			<path d="M25.568 52.853c-.521 2.76-1.094 5.469-1.719 8.125a52.625 52.625 0 0 1-2.344 7.5 36.258 36.258 0 0 1-3.359 6.485 18.444 18.444 0 0 1-4.844 5c-.573-4.167-.703-8.1-.39-11.797a80.769 80.769 0 0 1 1.601-10.664 171.336 171.336 0 0 1 2.54-10.04 131.087 131.087 0 0 0 2.421-9.921c-1.146-1.927-1.719-4.206-1.719-6.836s.482-5.026 1.446-7.188c.963-2.161 2.343-3.84 4.14-5.039 1.797-1.198 3.894-1.302 6.29-.312 3.02 1.146 4.257 3.307 3.71 6.484-.547 3.177-1.38 6.498-2.5 9.961-1.12 3.464-1.758 6.68-1.914 9.649-.156 2.968 1.615 4.817 5.313 5.546 3.906.782 7.2-.234 9.883-3.046 2.682-2.813 4.596-6.316 5.742-10.508 1.146-4.193 1.484-8.503 1.015-12.93-.468-4.427-1.927-7.865-4.375-10.312-3.49-3.542-7.539-5.443-12.148-5.704-4.61-.26-8.92.664-12.93 2.774s-7.252 5.182-9.726 9.219c-2.474 4.036-3.295 8.58-2.461 13.632.364 2.5 1.276 4.493 2.734 5.977s1.224 3.92-.703 7.305c-4.48-.99-7.513-3.125-9.102-6.407C.581 36.526-.135 32.541.021 27.853.177 24 1.05 20.47 2.638 17.267c1.589-3.203 3.646-6.002 6.172-8.398a32.078 32.078 0 0 1 8.555-5.82C20.542 1.564 23.797.639 27.13.275c4.167-.469 8.23-.338 12.188.39 3.958.73 7.513 2.032 10.664 3.907a25.677 25.677 0 0 1 7.89 7.266c2.11 2.968 3.451 6.432 4.024 10.39.573 4.48.417 8.92-.469 13.32-.885 4.402-2.448 8.32-4.687 11.758-2.24 3.438-5.078 6.172-8.516 8.204-3.437 2.03-7.396 2.864-11.875 2.5-2.448-.209-4.375-.82-5.781-1.836-1.406-1.016-3.073-2.123-5-3.32zm45.547 23.125"></path>
		</symbol>
	
		<symbol id="icon-p_with_circle" viewBox="">
			<path d="M38.438 0c-5.313 0-10.3 1.003-14.961 3.008-4.662 2.005-8.724 4.74-12.188 8.203-3.463 3.463-6.21 7.526-8.242 12.187C1.016 28.06 0 33.047 0 38.36c0 5.313 1.016 10.3 3.047 14.961 2.031 4.662 4.779 8.724 8.242 12.188 3.464 3.463 7.526 6.21 12.188 8.242 4.661 2.031 9.648 3.047 14.96 3.047 5.313 0 10.3-1.016 14.961-3.047 4.662-2.031 8.724-4.779 12.188-8.242 3.463-3.464 6.21-7.526 8.242-12.188 2.031-4.661 3.047-9.648 3.047-14.96 0-5.313-1.016-10.3-3.047-14.962-2.031-4.661-4.779-8.724-8.242-12.187-3.464-3.464-7.526-6.198-12.188-8.203C48.737 1.003 43.75 0 38.438 0zm2.656 47.5c-1.25-.104-2.227-.417-2.93-.938a27.166 27.166 0 0 0-2.539-1.64 58.627 58.627 0 0 1-2.031 7.851c-.834 2.474-2.214 4.414-4.14 5.82-.626-4.218-.444-8.007.546-11.366.99-3.36 1.849-6.706 2.578-10.04-1.198-1.979-1.25-4.361-.156-7.148 1.094-2.786 2.864-3.685 5.312-2.695 1.459.573 2.058 1.666 1.797 3.281a36.103 36.103 0 0 1-1.21 5.04c-.548 1.744-.873 3.371-.977 4.882-.104 1.51.781 2.448 2.656 2.812 1.98.365 3.646-.156 5-1.562 1.354-1.406 2.33-3.164 2.93-5.274.599-2.109.768-4.283.508-6.523-.26-2.24-.99-3.984-2.188-5.234-1.77-1.771-3.828-2.735-6.172-2.891-2.344-.156-4.518.3-6.523 1.367-2.006 1.068-3.646 2.63-4.922 4.688-1.276 2.057-1.706 4.362-1.29 6.914.21 1.25.678 2.252 1.407 3.008.73.755.625 1.992-.313 3.71-2.291-.52-3.84-1.614-4.648-3.28-.807-1.667-1.159-3.673-1.055-6.016.157-3.907 1.641-7.123 4.453-9.649 2.813-2.526 5.886-3.971 9.22-4.336 4.27-.469 8.124.274 11.562 2.227 3.437 1.953 5.442 4.909 6.015 8.867a19.599 19.599 0 0 1-.234 6.758c-.469 2.213-1.263 4.193-2.383 5.937-1.12 1.745-2.552 3.125-4.297 4.14-1.744 1.017-3.737 1.446-5.976 1.29zm37.343 26.875"></path>
		</symbol>
	
		<symbol id="icon-phone" viewBox="">
			<path d="M37.262 37.262c-3.177 3.177-6.367 5.911-9.57 8.203-3.204 2.292-5.534 2.734-6.993 1.328-2.083-2.083-4.101-3.594-6.054-4.531-1.953-.938-5.222.417-9.805 4.062C.257 50.022-1.071 53.16.856 55.738c1.927 2.579 3.88 4.883 5.859 6.915 1.146 1.145 3.034 1.718 5.664 1.718s5.703-.664 9.219-1.992c3.515-1.328 7.357-3.36 11.523-6.094 4.167-2.734 8.386-6.237 12.657-10.507 4.27-4.271 7.76-8.49 10.468-12.657 2.709-4.166 4.727-8.008 6.055-11.523 1.328-3.516 1.992-6.576 1.992-9.18s-.573-4.505-1.719-5.703c-1.979-1.98-4.257-3.932-6.836-5.86C53.16-1.07 50.022.258 46.324 4.84c-3.645 4.583-5 7.852-4.062 9.805.937 1.953 2.422 3.971 4.453 6.054 1.458 1.459 1.042 3.79-1.25 6.993-2.292 3.203-5.026 6.393-8.203 9.57zM72.34 68.356"></path>
		</symbol>
	
		<symbol id="icon-pin" viewBox="">
			<path d="M20 0c-2.76 0-5.352.52-7.773 1.563-2.422 1.041-4.545 2.46-6.368 4.257-1.823 1.797-3.255 3.92-4.296 6.367C.52 14.636 0 17.24 0 20c0 4.74 1.042 9.7 3.125 14.883C5.208 40.065 7.5 44.805 10 49.102c2.5 4.296 4.792 7.851 6.875 10.664L20 63.984l3.125-4.218C25.208 56.953 27.5 53.398 30 49.102c2.5-4.297 4.792-9.037 6.875-14.22C38.958 29.7 40 24.74 40 20c0-2.76-.52-5.365-1.563-7.813-1.041-2.447-2.473-4.57-4.296-6.367-1.823-1.797-3.946-3.216-6.368-4.258C25.352.522 22.76 0 20 0zm0 31.016c-2.969 0-5.508-1.055-7.617-3.164-2.11-2.11-3.164-4.649-3.164-7.618 0-3.02 1.054-5.586 3.164-7.695 2.11-2.11 4.648-3.164 7.617-3.164 2.969 0 5.508 1.055 7.617 3.164 2.11 2.11 3.164 4.675 3.164 7.695 0 2.97-1.054 5.508-3.164 7.618-2.11 2.109-4.648 3.164-7.617 3.164zm40 36.953"></path>
		</symbol>
	
		<symbol id="icon-quote" viewBox="">
			<path d="M11.64 0C8.412 0 5.665 1.172 3.399 3.516 1.133 5.859 0 8.698 0 12.03c0 3.334 1.133 6.172 3.398 8.516 2.266 2.344 5.013 3.515 8.243 3.515 2.916 0 4.674 1.198 5.273 3.594.599 2.396.3 5.052-.898 7.969-1.198 2.917-3.203 5.573-6.016 7.969s-6.146 3.593-10 3.593v5.626c6.927 0 12.695-2.748 17.305-8.243 4.61-5.495 7.617-11.536 9.023-18.125 1.406-6.588 1.003-12.643-1.21-18.164C22.903 2.761 18.41 0 11.64 0zm33.594 0c-3.229 0-5.976 1.172-8.242 3.516-2.265 2.343-3.398 5.182-3.398 8.515 0 3.334 1.133 6.172 3.398 8.516 2.266 2.344 5.013 3.515 8.242 3.515 2.917 0 4.688 1.198 5.313 3.594s.325 5.052-.899 7.969c-1.224 2.917-3.229 5.573-6.015 7.969-2.787 2.396-6.133 3.593-10.04 3.593v5.626c6.928 0 12.696-2.748 17.305-8.243 4.61-5.495 7.618-11.536 9.024-18.125 1.406-6.588 1.002-12.643-1.211-18.164C56.497 2.761 52.005 0 45.234 0zm25.157 62.422"></path>
		</symbol>
	
		<symbol id="icon-search" viewBox="">
			<path d="M61.719 53.438L46.64 38.358a24.566 24.566 0 0 0 2.656-6.093c.625-2.188.937-4.453.937-6.797 0-3.386-.69-6.628-2.07-9.727s-3.242-5.807-5.586-8.125C40.234 5.3 37.526 3.451 34.453 2.07 31.38.69 28.125 0 24.687 0c-3.385 0-6.588.651-9.609 1.953-3.02 1.302-5.65 3.06-7.89 5.274-2.24 2.213-3.998 4.83-5.274 7.851C.638 18.1 0 21.302 0 24.688c0 3.437.677 6.705 2.031 9.804 1.354 3.1 3.203 5.807 5.547 8.125 2.344 2.318 5.052 4.167 8.125 5.547 3.073 1.38 6.328 2.07 9.766 2.07 2.291 0 4.479-.3 6.562-.898a28.266 28.266 0 0 0 5.938-2.461l15.156 15.156c.73.782 1.628 1.172 2.695 1.172 1.068 0 1.966-.39 2.696-1.172l3.75-3.75c.729-.729 1.015-1.536.859-2.422-.156-.885-.625-1.692-1.406-2.422zm-54.14-28.75c0-2.344.442-4.558 1.327-6.641.886-2.083 2.11-3.893 3.672-5.43 1.563-1.536 3.386-2.76 5.469-3.672 2.083-.911 4.297-1.367 6.64-1.367 2.396 0 4.675.495 6.836 1.484a19.429 19.429 0 0 1 5.704 3.946 18.834 18.834 0 0 1 3.906 5.703 16.422 16.422 0 0 1 1.445 6.758c0 2.396-.443 4.635-1.328 6.718-.885 2.084-2.11 3.894-3.672 5.43-1.562 1.537-3.385 2.76-5.469 3.672-2.083.912-4.296 1.367-6.64 1.367-2.344 0-4.597-.495-6.758-1.484a19.429 19.429 0 0 1-5.703-3.945 19.429 19.429 0 0 1-3.945-5.704 16.232 16.232 0 0 1-1.485-6.835zm63.983 42.89"></path>
		</symbol>
	
		<symbol id="icon-skype" viewBox="">
			<path d="M71.484 46.484c.26-1.198.456-2.448.586-3.75.13-1.302.196-2.63.196-3.984 0-4.948-.912-9.622-2.735-14.023-1.823-4.402-4.323-8.23-7.5-11.485-3.177-3.255-6.9-5.833-11.172-7.734-4.27-1.901-8.828-2.852-13.672-2.852-1.041 0-2.057.04-3.046.117-.99.079-1.98.222-2.97.43A18.882 18.882 0 0 0 26.095.82 19.74 19.74 0 0 0 20.39 0c-2.813 0-5.456.547-7.93 1.64a20.536 20.536 0 0 0-6.484 4.493c-1.85 1.9-3.308 4.114-4.375 6.64C.534 15.3 0 18.021 0 20.938c0 1.927.247 3.789.742 5.585a20.542 20.542 0 0 0 2.07 4.961 28.543 28.543 0 0 0-.546 3.594 42.376 42.376 0 0 0-.157 3.672c0 5 .912 9.687 2.735 14.063 1.823 4.375 4.323 8.203 7.5 11.484 3.177 3.281 6.9 5.872 11.172 7.773 4.27 1.901 8.828 2.852 13.672 2.852 1.093 0 2.174-.052 3.242-.156a31.934 31.934 0 0 0 3.164-.47 22.108 22.108 0 0 0 4.61 1.837c1.614.443 3.28.664 5 .664 2.812 0 5.455-.547 7.929-1.64a20.536 20.536 0 0 0 6.484-4.493c1.85-1.901 3.307-4.128 4.375-6.68 1.068-2.552 1.602-5.26 1.602-8.125 0-1.718-.183-3.359-.547-4.922a21.483 21.483 0 0 0-1.563-4.453zm-16.328 9.532a13.26 13.26 0 0 1-2.968 3.203c-1.198.937-2.579 1.745-4.141 2.422-1.51.625-3.19 1.106-5.04 1.445-1.848.338-3.814.508-5.898.508-2.552 0-4.87-.222-6.953-.664-2.083-.443-3.958-1.133-5.625-2.07a15.062 15.062 0 0 1-3.242-2.266 16.283 16.283 0 0 1-2.539-2.969c-.73-1.146-1.29-2.266-1.68-3.36-.39-1.093-.586-2.16-.586-3.203 0-.677.13-1.289.391-1.835a6.74 6.74 0 0 1 1.094-1.602 5.808 5.808 0 0 1 1.64-1.016 5.228 5.228 0 0 1 2.032-.39c.573 0 1.12.104 1.64.312.521.209.99.495 1.407.86.416.312.794.729 1.132 1.25.339.52.664 1.12.977 1.797.312.729.638 1.406.976 2.03.339.626.664 1.173.977 1.641.365.47.794.899 1.29 1.29.494.39 1.054.742 1.679 1.054.625.313 1.367.547 2.226.703.86.157 1.81.235 2.852.235 1.458 0 2.786-.157 3.984-.47 1.198-.312 2.24-.78 3.125-1.405.886-.625 1.537-1.302 1.953-2.032.417-.729.625-1.562.625-2.5 0-.677-.104-1.302-.312-1.875a4.257 4.257 0 0 0-1.016-1.562 10.184 10.184 0 0 0-1.64-1.172 11.213 11.213 0 0 0-2.11-.938 33.77 33.77 0 0 0-2.812-.78 547.66 547.66 0 0 0-3.672-.86 45.723 45.723 0 0 1-9.14-2.813c-1.303-.573-2.449-1.237-3.438-1.992a16.375 16.375 0 0 1-2.657-2.539c-.729-.99-1.289-2.083-1.68-3.281-.39-1.198-.585-2.526-.585-3.985 0-1.354.208-2.643.625-3.867a12.164 12.164 0 0 1 1.797-3.398c.781-1.042 1.745-1.98 2.89-2.813 1.146-.833 2.448-1.536 3.907-2.109a27.697 27.697 0 0 1 4.765-1.21c1.719-.287 3.568-.43 5.547-.43 1.563 0 3.034.09 4.414.273a22.01 22.01 0 0 1 3.79.82c1.145.365 2.2.794 3.163 1.29a15.528 15.528 0 0 1 2.617 1.679 14.569 14.569 0 0 1 2.032 1.953 11.894 11.894 0 0 1 1.406 2.031c.365.677.638 1.367.82 2.07.183.704.274 1.394.274 2.07a4.7 4.7 0 0 1-.352 1.798c-.234.573-.612 1.12-1.133 1.64a4.626 4.626 0 0 1-1.601 1.172c-.6.26-1.263.39-1.992.39a5.963 5.963 0 0 1-1.72-.233c-.52-.157-.937-.391-1.25-.704a6.697 6.697 0 0 1-1.054-1.172 15.56 15.56 0 0 1-1.054-1.718 14.676 14.676 0 0 0-1.485-2.305 9.51 9.51 0 0 0-1.719-1.68c-.573-.468-1.354-.82-2.343-1.054-.99-.235-2.162-.352-3.516-.352-1.25 0-2.383.13-3.398.39-1.016.261-1.888.626-2.618 1.095-.78.52-1.34 1.067-1.68 1.64a3.62 3.62 0 0 0-.507 1.875c0 .417.052.794.156 1.133.104.338.287.664.547.977.208.312.495.598.86.859.364.26.755.52 1.171.781.469.208.938.404 1.407.586.468.182.963.352 1.484.508.469.156 1.107.338 1.914.547.807.208 1.784.442 2.93.703 1.406.312 2.76.638 4.062.976 1.302.339 2.526.69 3.672 1.055 1.198.417 2.292.86 3.281 1.328.99.469 1.901.99 2.735 1.563a11.342 11.342 0 0 1 3.984 4.297c.469.833.82 1.783 1.055 2.851a16.21 16.21 0 0 1 .351 3.477c0 1.51-.208 2.93-.625 4.258a13.895 13.895 0 0 1-1.875 3.789zm21.64 18.359"></path>
		</symbol>
	
		<symbol id="icon-skype_with_circle" viewBox="">
			<path d="M47.11 37.813a11.07 11.07 0 0 0-1.563-.86c-.573-.26-1.172-.52-1.797-.781a40.93 40.93 0 0 0-2.11-.586c-.729-.182-1.484-.378-2.265-.586a13.816 13.816 0 0 1-1.602-.352 9.895 9.895 0 0 0-1.132-.273l-.782-.313-.78-.312a4.88 4.88 0 0 1-.665-.469 9.013 9.013 0 0 1-.508-.468 2.679 2.679 0 0 1-.273-.547 1.77 1.77 0 0 1-.117-.625c0-.417.104-.782.312-1.094.208-.313.521-.6.938-.86a3.868 3.868 0 0 1 1.484-.664 8.459 8.459 0 0 1 1.875-.195c.781 0 1.445.065 1.992.195.547.13.977.326 1.29.586.364.26.69.573.976.938.286.364.56.807.82 1.328.208.365.404.677.586.938.182.26.378.468.586.624.208.157.443.287.703.391.26.104.573.156.938.156.416 0 .794-.078 1.132-.234.339-.156.638-.365.899-.625.26-.313.469-.625.625-.938a2.24 2.24 0 0 0 .234-1.015 4.39 4.39 0 0 0-.156-1.133 6.414 6.414 0 0 0-.469-1.21 7.112 7.112 0 0 0-.781-1.095 8.031 8.031 0 0 0-1.172-1.093 6.278 6.278 0 0 0-1.445-.938A15.449 15.449 0 0 0 43.125 25a13.628 13.628 0 0 0-2.148-.469 18.06 18.06 0 0 0-2.461-.156c-1.094 0-2.123.078-3.086.234-.964.157-1.862.391-2.696.703a9.593 9.593 0 0 0-2.187 1.133 7.358 7.358 0 0 0-1.64 1.602 6.987 6.987 0 0 0-.977 1.914 6.752 6.752 0 0 0-.352 2.148c0 .834.104 1.589.313 2.266a4.734 4.734 0 0 0 1.015 1.797 9.48 9.48 0 0 0 1.446 1.445c.546.443 1.184.82 1.914 1.133.677.26 1.445.534 2.304.82a23.8 23.8 0 0 0 2.852.742c.729.157 1.393.313 1.992.47.599.156 1.133.312 1.602.468.416.104.807.26 1.172.469.364.208.677.442.937.703.26.26.443.547.547.86.104.312.156.65.156 1.015 0 .52-.117.99-.351 1.406-.235.417-.586.807-1.055 1.172a5.115 5.115 0 0 1-1.758.781c-.651.157-1.393.235-2.227.235-.572 0-1.093-.04-1.562-.118a5.443 5.443 0 0 1-1.25-.351c-.365-.208-.69-.417-.977-.625a2.411 2.411 0 0 1-.664-.703 8.064 8.064 0 0 1-1.172-2.11 6.829 6.829 0 0 0-.507-.976 3.018 3.018 0 0 0-.664-.742 2.003 2.003 0 0 0-.743-.47 2.846 2.846 0 0 0-.976-.155c-.417 0-.794.065-1.133.195-.338.13-.638.325-.898.586-.26.26-.47.56-.625.898a2.49 2.49 0 0 0-.235 1.055c0 .573.104 1.172.313 1.797.208.625.547 1.25 1.015 1.875.365.573.82 1.107 1.368 1.601a9.28 9.28 0 0 0 1.835 1.29c.938.52 1.993.911 3.165 1.171 1.171.26 2.46.391 3.867.391 1.198 0 2.304-.091 3.32-.273a13.931 13.931 0 0 0 2.852-.82 9.9 9.9 0 0 0 2.265-1.368 9.927 9.927 0 0 0 1.719-1.758 7.052 7.052 0 0 0 1.016-2.148c.208-.755.312-1.55.312-2.383 0-.677-.065-1.315-.195-1.914a7.122 7.122 0 0 0-.586-1.68 6.529 6.529 0 0 0-.938-1.289 7.05 7.05 0 0 0-1.25-1.054zM38.437 0c-5.313 0-10.3 1.003-14.961 3.008-4.662 2.005-8.724 4.74-12.188 8.203-3.463 3.463-6.21 7.526-8.242 12.187C1.016 28.06 0 33.047 0 38.36c0 5.313 1.016 10.3 3.047 14.961 2.031 4.662 4.779 8.724 8.242 12.188 3.464 3.463 7.526 6.21 12.188 8.242 4.661 2.031 9.648 3.047 14.96 3.047 5.313 0 10.3-1.016 14.961-3.047 4.662-2.031 8.724-4.779 12.188-8.242 3.463-3.464 6.21-7.526 8.242-12.188 2.031-4.661 3.047-9.648 3.047-14.96 0-5.313-1.016-10.3-3.047-14.962-2.031-4.661-4.779-8.724-8.242-12.187-3.464-3.464-7.526-6.198-12.188-8.203C48.737 1.003 43.75 0 38.438 0zm9.218 59.844c-.99 0-1.94-.117-2.851-.352a11.412 11.412 0 0 1-2.54-.976c-.572.104-1.158.182-1.757.234-.6.052-1.211.078-1.836.078-2.708 0-5.26-.534-7.656-1.601-2.396-1.068-4.48-2.513-6.25-4.336-1.771-1.823-3.177-3.959-4.22-6.407-1.04-2.448-1.562-5.078-1.562-7.89 0-.677.04-1.354.118-2.032.078-.677.169-1.354.273-2.03a14.77 14.77 0 0 1-1.133-2.813c-.286-.99-.43-2.031-.43-3.125 0-3.23 1.12-5.99 3.36-8.282 2.24-2.291 4.922-3.437 8.047-3.437 1.146 0 2.226.156 3.242.469 1.016.312 1.966.755 2.852 1.328.52-.104 1.067-.182 1.64-.235a18.974 18.974 0 0 1 1.719-.078c2.708 0 5.26.534 7.656 1.602s4.48 2.513 6.25 4.336c1.771 1.823 3.164 3.958 4.18 6.406 1.015 2.448 1.523 5.078 1.523 7.89 0 .73-.039 1.46-.117 2.188-.078.73-.17 1.459-.273 2.188.364.781.65 1.601.859 2.46.208.86.313 1.758.313 2.696 0 3.23-1.12 5.99-3.36 8.281-2.24 2.292-4.922 3.438-8.047 3.438zm30.782 14.531"></path>
		</symbol>
	
		<symbol id="icon-slack" viewBox="">
			<path d="M76.648 29.025c-1.042-3.541-2.161-6.692-3.36-9.453-1.197-2.76-2.486-5.208-3.866-7.344-1.38-2.135-2.878-3.958-4.493-5.468a21.859 21.859 0 0 0-5.234-3.75A23.446 23.446 0 0 0 53.914.744C51.778.224 49.46-.024 46.96.002c-2.5.026-5.235.325-8.203.898-3.021.521-6.276 1.328-9.766 2.422-6.719 1.98-12.24 4.35-16.563 7.11-4.27 2.708-7.434 5.95-9.492 9.726C.88 23.934-.097 28.348.007 33.4c.157 5.052 1.277 10.912 3.36 17.578 1.458 5 3.125 9.323 5 12.97 1.875 3.645 4.01 6.653 6.406 9.023s5.104 4.127 8.125 5.273c2.969 1.146 6.328 1.719 10.078 1.719 2.709 0 5.521-.248 8.438-.742 2.916-.495 6.12-1.237 9.61-2.227 6.666-2.083 12.135-4.505 16.405-7.266 4.271-2.76 7.448-6.041 9.532-9.843 2.083-3.802 3.073-8.23 2.968-13.282-.104-5.052-1.198-10.911-3.28-17.578zM48.992 70.353c-5.833 1.72-10.833 2.683-15 2.891-4.167.156-7.76-.586-10.781-2.227-3.021-1.64-5.6-4.257-7.735-7.851-2.135-3.594-4.062-8.307-5.781-14.14-1.77-5.782-2.734-10.756-2.89-14.923-.209-4.166.507-7.76 2.148-10.78 1.64-3.022 4.284-5.626 7.93-7.813 3.593-2.136 8.307-4.089 14.14-5.86 3.334-.99 6.341-1.731 9.024-2.226 2.682-.495 5.117-.742 7.304-.742 1.823 0 3.555.156 5.196.468 1.64.313 3.138.808 4.492 1.485 1.406.78 2.734 1.797 3.984 3.047 1.25 1.25 2.435 2.786 3.555 4.609s2.2 3.906 3.242 6.25c.99 2.396 1.953 5.104 2.89 8.125 1.667 5.833 2.553 10.86 2.657 15.078.156 4.167-.599 7.786-2.266 10.86-1.666 3.072-4.297 5.676-7.89 7.812-3.646 2.187-8.386 4.167-14.22 5.937zm10-31.718l-6.328 2.343-3.36-9.296 6.407-2.344c.833-.365 1.458-.925 1.875-1.68.416-.755.442-1.654.078-2.695a3.417 3.417 0 0 0-1.64-1.875c-.782-.417-1.668-.443-2.657-.078l-6.328 2.343-2.344-6.328a3.773 3.773 0 0 0-1.719-1.875c-.781-.416-1.666-.468-2.656-.156a3.417 3.417 0 0 0-1.875 1.64c-.417.782-.443 1.667-.078 2.657l2.344 6.328-9.375 3.36-2.032-6.641c-.312-.834-.898-1.459-1.757-1.875-.86-.417-1.706-.469-2.54-.156-.833.156-1.458.65-1.874 1.484-.417.833-.47 1.667-.157 2.5l2.344 6.328-6.328 2.344a3.773 3.773 0 0 0-1.875 1.719c-.417.78-.443 1.666-.078 2.656.156.677.52 1.237 1.094 1.68.572.442 1.197.664 1.875.664.156 0 .325-.013.507-.04.183-.026.352-.143.508-.351l6.328-2.266 3.36 9.297-6.407 2.344a3.417 3.417 0 0 0-1.875 1.64c-.416.782-.442 1.667-.078 2.657.157.677.521 1.237 1.094 1.68.573.442 1.198.664 1.875.664.156 0 .326-.013.508-.04a.895.895 0 0 0 .508-.273l6.328-2.344 2.344 6.328c.156.678.533 1.237 1.132 1.68.6.443 1.211.664 1.836.664.209 0 .39-.013.547-.039.156-.026.313-.117.469-.273a3.773 3.773 0 0 0 1.875-1.72c.417-.78.469-1.666.156-2.655l-2.344-6.328 9.297-3.282 2.344 6.328c.156.625.534 1.16 1.133 1.602.599.443 1.237.664 1.914.664.156 0 .312-.013.469-.039.156-.026.312-.117.468-.273a3.417 3.417 0 0 0 1.875-1.641c.417-.781.47-1.667.157-2.656l-2.344-6.328 6.328-2.344c.833-.365 1.458-.925 1.875-1.68.417-.755.469-1.654.156-2.695.157-.469-.156-.886-.937-1.25-.781-.365-1.589-.39-2.422-.078zM37.039 46.29l-3.36-9.297 9.297-3.36 3.36 9.376zm42.969 27.031"></path>
		</symbol>
	
		<symbol id="icon-spotify" viewBox="">
			<path d="M35.234 0c-4.843 0-9.4.911-13.672 2.734-4.27 1.823-8.007 4.336-11.21 7.54-3.204 3.203-5.73 6.94-7.579 11.21C.924 25.755 0 30.312 0 35.156 0 40 .924 44.57 2.773 48.867c1.85 4.297 4.375 8.034 7.579 11.211 3.203 3.177 6.94 5.69 11.21 7.54 4.271 1.848 8.829 2.773 13.672 2.773 4.844 0 9.401-.925 13.672-2.774 4.271-1.849 8.008-4.362 11.211-7.539 3.203-3.177 5.73-6.9 7.578-11.172 1.85-4.27 2.774-8.854 2.774-13.75 0-4.844-.925-9.4-2.774-13.672-1.849-4.27-4.375-8.007-7.578-11.21-3.203-3.204-6.94-5.717-11.21-7.54C44.634.911 40.077 0 35.233 0zm13.907 53.203c-.365 0-.677-.065-.938-.195a4.59 4.59 0 0 1-.703-.43c-2.396-1.406-5.039-2.487-7.93-3.242-2.89-.755-5.924-1.133-9.101-1.133a49.24 49.24 0 0 0-5.117.274 45.012 45.012 0 0 0-5.352.898l-.469.078c-.208.052-.43.104-.664.156a3.066 3.066 0 0 1-.664.078c-.729 0-1.341-.247-1.836-.742-.495-.494-.742-1.106-.742-1.836 0-.78.195-1.419.586-1.914.39-.494.924-.794 1.602-.898a53.483 53.483 0 0 1 6.406-1.133 55.863 55.863 0 0 1 6.25-.352c3.698 0 7.2.417 10.508 1.25 3.307.834 6.367 2.11 9.18 3.829.52.26.924.586 1.21.976.287.39.43.95.43 1.68a2.946 2.946 0 0 1-.82 1.875 2.43 2.43 0 0 1-1.836.781zm3.672-10.234c-.417 0-.769-.065-1.055-.196a8.138 8.138 0 0 1-.82-.43c-2.136-1.25-4.506-2.304-7.11-3.163a41.837 41.837 0 0 0-8.086-1.797 47.965 47.965 0 0 0-8.437-.274c-2.839.157-5.56.573-8.164 1.25a2.143 2.143 0 0 1-.274.118.866.866 0 0 1-.273.039 7.506 7.506 0 0 1-.547.156 2.904 2.904 0 0 1-.703.078c-.886 0-1.628-.3-2.227-.898-.599-.6-.898-1.342-.898-2.227 0-.833.208-1.536.625-2.11.416-.572 1.015-.963 1.797-1.171a56.181 56.181 0 0 1 6.132-1.367c2.058-.339 4.467-.508 7.227-.508 2.188 0 4.362.13 6.523.39 2.162.26 4.271.664 6.329 1.211a48.131 48.131 0 0 1 5.937 1.992 40.96 40.96 0 0 1 5.352 2.657c.625.364 1.08.794 1.367 1.289.286.495.43 1.08.43 1.758 0 .885-.313 1.64-.938 2.265-.625.625-1.354.938-2.188.938zm4.14-11.719c-.417 0-.768-.052-1.055-.156a8.556 8.556 0 0 1-.898-.39c-1.458-.886-3.112-1.668-4.96-2.345a52.279 52.279 0 0 0-5.9-1.757 55.786 55.786 0 0 0-6.523-1.133c-2.265-.26-4.57-.39-6.914-.39-2.448 0-4.779.142-6.992.429-2.214.286-4.284.69-6.211 1.21a.544.544 0 0 0-.234.04.544.544 0 0 1-.235.039c-.156.052-.364.117-.625.195-.26.078-.52.117-.781.117-1.042 0-1.914-.364-2.617-1.093-.703-.73-1.055-1.615-1.055-2.657 0-.885.234-1.653.703-2.304.469-.651 1.146-1.107 2.031-1.367 2.344-.73 4.857-1.264 7.54-1.602a67.725 67.725 0 0 1 8.476-.508c2.656 0 5.274.143 7.852.43 2.578.286 5.065.716 7.46 1.289a56.113 56.113 0 0 1 6.797 2.07c2.136.807 4.089 1.732 5.86 2.774.625.364 1.107.833 1.445 1.406.339.573.508 1.25.508 2.031 0 1.042-.352 1.914-1.055 2.617-.703.703-1.575 1.055-2.617 1.055zm18.281 39.922"></path>
		</symbol>
	
		<symbol id="icon-square_with_cross" viewBox="">
			<path d="M56.016 0H8.046C5.86 0 3.972.781 2.384 2.344.794 3.906 0 5.78 0 7.969v47.968c0 2.24.794 4.141 2.383 5.704 1.588 1.562 3.476 2.343 5.664 2.343h47.969c2.187 0 4.075-.78 5.664-2.343 1.588-1.563 2.383-3.464 2.383-5.703V7.968c0-2.187-.795-4.062-2.383-5.624C60.09.78 58.203 0 56.016 0zm-11.72 51.094L32.032 38.906 19.766 51.094l-6.875-6.875 12.187-12.266-12.187-12.265 6.875-6.875L32.03 25.078l12.266-12.265 6.875 6.874-12.188 12.266L51.172 44.22zm27.735 16.875"></path>
		</symbol>
	
		<symbol id="icon-square_with_minus" viewBox="">
			<path d="M56.016 0H8.046C5.86 0 3.972.781 2.384 2.344.794 3.906 0 5.78 0 7.969v47.968c0 2.24.794 4.141 2.383 5.704 1.588 1.562 3.476 2.343 5.664 2.343h47.969c2.187 0 4.075-.78 5.664-2.343 1.588-1.563 2.383-3.464 2.383-5.703V7.968c0-2.187-.795-4.062-2.383-5.624C60.09.78 58.203 0 56.016 0zM52.03 35.938h-40v-7.97h40zm20 32.03"></path>
		</symbol>
	
		<symbol id="icon-square_with_plus" viewBox="">
			<path d="M56.016 0H8.046C5.86 0 3.972.781 2.384 2.344.794 3.906 0 5.78 0 7.969v47.968c0 2.24.794 4.141 2.383 5.704 1.588 1.562 3.476 2.343 5.664 2.343h47.969c2.187 0 4.075-.78 5.664-2.343 1.588-1.563 2.383-3.464 2.383-5.703V7.968c0-2.187-.795-4.062-2.383-5.624C60.09.78 58.203 0 56.016 0zM52.03 35.938H36.016v16.015h-7.97V35.937H12.032V27.97h16.016V11.953h7.969V27.97H52.03zm20 32.03"></path>
		</symbol>
	
		<symbol id="icon-star" viewBox="">
			<path d="M35.234 0l9.532 26.875h25.703L49.53 42.656l7.422 27.735L35.234 53.75 13.516 70.39l7.421-27.734L0 26.875h25.703zm40 70.781"></path>
		</symbol>
	
		<symbol id="icon-star_outlined" viewBox="">
			<path d="M70.469 26.875H44.766L35.234 0l-9.53 26.875H0l20.938 15.781-7.5 27.735L35.233 53.75l21.72 16.64-7.423-27.734zM35.234 45.938l-12.03 10 4.921-14.297L16.719 32.5l14.14.39 4.375-16.171L39.61 32.89 53.75 32.5l-11.406 9.14 4.922 14.297zm40 24.843"></path>
		</symbol>
	
		<symbol id="icon-telegram" viewBox="">
			<path d="M53.08 58.348l6.563-30.937c.268-1.31.111-2.247-.469-2.813-.58-.565-1.347-.67-2.299-.312L18.304 39.152c-.864.327-1.451.7-1.764 1.116-.312.417-.35.81-.111 1.183.238.372.714.662 1.428.87l9.866 3.08 22.902-14.419c.625-.417 1.101-.506 1.429-.268.208.15.148.372-.179.67L33.348 48.125l-.714 10.179c.684 0 1.354-.328 2.009-.983l4.821-4.642 10 7.366c1.905 1.071 3.11.506 3.616-1.697zM80 40c0 5.417-1.057 10.595-3.17 15.536-2.113 4.94-4.955 9.196-8.526 12.768-3.572 3.571-7.828 6.413-12.768 8.526C50.596 78.943 45.416 80 40 80c-5.417 0-10.595-1.057-15.536-3.17-4.94-2.113-9.196-4.955-12.768-8.526-3.571-3.572-6.413-7.828-8.526-12.768C1.057 50.596 0 45.416 0 40c0-5.417 1.057-10.595 3.17-15.536 2.113-4.94 4.955-9.196 8.526-12.768 3.572-3.571 7.828-6.413 12.768-8.526C29.404 1.057 34.584 0 40 0c5.417 0 10.595 1.057 15.536 3.17 4.94 2.113 9.196 4.955 12.768 8.526 3.571 3.572 6.413 7.828 8.526 12.768C78.943 29.404 80 34.584 80 40zm0 28.571"></path>
		</symbol>
	
		<symbol id="icon-thumbs" viewBox="">
			<path d="M46.64 25.473c-.156-.364.456-1.38 1.837-3.047 1.38-1.666 2.695-3.698 3.945-6.093 1.25-2.396 2.057-5 2.422-7.813.364-2.812-.521-5.547-2.657-8.203-.468-.625-1.25-.326-2.343.898-1.094 1.224-2.422 2.865-3.985 4.922-1.562 2.058-3.372 4.258-5.43 6.602-2.057 2.344-4.283 4.349-6.679 6.015-1.354.886-3.034 1.993-5.04 3.32a106.082 106.082 0 0 0-5.82 4.141c-1.874 1.433-3.489 2.852-4.843 4.258-1.354 1.406-2.031 2.656-2.031 3.75v27.344c0 1.25 1.106 2.5 3.32 3.75 2.213 1.25 5.013 2.37 8.398 3.36 3.386.989 7.11 1.796 11.172 2.421 4.063.625 7.969.938 11.719.938 1.354 0 2.812-1.81 4.375-5.43 1.563-3.62 3.02-7.747 4.375-12.383a168.737 168.737 0 0 0 3.36-13.437c.885-4.323 1.328-7.162 1.328-8.516s-.886-2.409-2.657-3.164c-1.77-.755-3.724-1.341-5.86-1.758a91.31 91.31 0 0 0-5.976-.976c-1.849-.235-2.825-.534-2.93-.899zm-34.609.39c-1.302 0-3.633.717-6.992 2.15C1.68 29.444 0 32.894 0 38.362V57.74c0 5.469 1.68 8.854 5.04 10.156 3.358 1.302 5.69 1.953 6.991 1.953 1.302 0 .964-.664-1.015-1.992-1.98-1.328-2.97-3.685-2.97-7.07v-25.47c0-3.54.99-6.002 2.97-7.382 1.979-1.38 2.317-2.07 1.015-2.07zm60 46.173"></path>
		</symbol>
	
		<symbol id="icon-triangle" viewBox="">
			<path d="M40 36.016H0L20 0zm20 20"></path>
		</symbol>
	
		<symbol id="icon-tw" viewBox="">
			<path d="M66.094 14.922V16.875c0 5-.938 10.052-2.813 15.156A43.45 43.45 0 0 1 55.04 45.86c-3.62 4.115-8.099 7.474-13.437 10.078-5.339 2.605-11.498 3.907-18.477 3.907-4.27 0-8.36-.6-12.266-1.797-3.906-1.198-7.526-2.865-10.859-5 .573.052 1.159.104 1.758.156.599.052 1.21.078 1.836.078 3.541 0 6.9-.573 10.078-1.718a31.224 31.224 0 0 0 8.672-4.766c-3.282-.052-6.211-1.055-8.79-3.008-2.577-1.953-4.335-4.44-5.273-7.46a7.2 7.2 0 0 0 1.367.194c.495.026.977.04 1.446.04.677 0 1.354-.04 2.031-.118a15.257 15.257 0 0 0 1.953-.351c-3.437-.73-6.315-2.474-8.633-5.235C4.128 28.1 2.97 24.896 2.97 21.25v-.117-.04c.99.522 2.07.951 3.242 1.29 1.172.338 2.357.534 3.555.586-2.032-1.354-3.66-3.138-4.883-5.352-1.224-2.213-1.836-4.622-1.836-7.226 0-1.407.182-2.748.547-4.024.364-1.276.885-2.46 1.562-3.554a38.918 38.918 0 0 0 6.211 6.21 46.582 46.582 0 0 0 7.422 4.844 41.637 41.637 0 0 0 8.36 3.281 42.277 42.277 0 0 0 9.101 1.446 9.944 9.944 0 0 1-.313-1.719 18.974 18.974 0 0 1-.078-1.719c0-2.083.391-4.05 1.172-5.898.782-1.85 1.862-3.45 3.242-4.805a16.107 16.107 0 0 1 4.805-3.242C46.901.404 48.854 0 50.938 0c2.187 0 4.231.43 6.132 1.29 1.901.858 3.529 2.017 4.883 3.476a27.392 27.392 0 0 0 5-1.407 34.047 34.047 0 0 0 4.61-2.187 15.214 15.214 0 0 1-2.579 4.726 15.14 15.14 0 0 1-4.062 3.555 28.53 28.53 0 0 0 4.453-.82 26.262 26.262 0 0 0 4.219-1.524 29.365 29.365 0 0 1-3.399 4.258 29.298 29.298 0 0 1-4.101 3.555zm10.703 51.016"></path>
		</symbol>
	
		<symbol id="icon-tw_with_circle" viewBox="">
			<path d="M38.438 0c-5.313 0-10.3 1.003-14.961 3.008-4.662 2.005-8.724 4.74-12.188 8.203-3.463 3.463-6.21 7.526-8.242 12.187C1.016 28.06 0 33.047 0 38.36c0 5.313 1.016 10.3 3.047 14.961 2.031 4.662 4.779 8.724 8.242 12.188 3.464 3.463 7.526 6.21 12.188 8.242 4.661 2.031 9.648 3.047 14.96 3.047 5.313 0 10.3-1.016 14.961-3.047 4.662-2.031 8.724-4.779 12.188-8.242 3.463-3.464 6.21-7.526 8.242-12.188 2.031-4.661 3.047-9.648 3.047-14.96 0-5.313-1.016-10.3-3.047-14.962-2.031-4.661-4.779-8.724-8.242-12.187-3.464-3.464-7.526-6.198-12.188-8.203C48.737 1.003 43.75 0 38.438 0zm15.624 31.406v1.016c0 2.5-.468 5.026-1.406 7.578a21.544 21.544 0 0 1-4.14 6.914c-1.823 2.057-4.063 3.737-6.72 5.04-2.655 1.301-5.728 1.952-9.218 1.952a20.8 20.8 0 0 1-6.133-.898 24.364 24.364 0 0 1-5.508-2.461c.313 0 .625.013.938.039.313.026.625.039.938.039 1.77 0 3.45-.286 5.039-.86a16.2 16.2 0 0 0 4.335-2.343c-1.666-.052-3.138-.573-4.414-1.563a7.923 7.923 0 0 1-2.695-3.75c.26.052.508.092.742.118.235.026.456.039.664.039a6.93 6.93 0 0 0 1.055-.078c.339-.053.664-.105.977-.157-1.72-.364-3.164-1.237-4.336-2.617-1.172-1.38-1.758-2.982-1.758-4.805v-.078c.52.26 1.068.469 1.64.625.573.157 1.172.26 1.797.313-.99-.677-1.796-1.576-2.422-2.696a7.332 7.332 0 0 1-.937-3.632c0-.677.091-1.342.273-1.993.183-.65.43-1.263.743-1.835 1.875 2.291 4.153 4.153 6.836 5.585 2.682 1.433 5.612 2.227 8.789 2.383a3.988 3.988 0 0 1-.196-.898 9.074 9.074 0 0 1-.039-.82c0-2.084.742-3.868 2.227-5.352 1.484-1.484 3.268-2.227 5.351-2.227 1.094 0 2.11.209 3.047.625a8.24 8.24 0 0 1 2.5 1.72c.834-.157 1.654-.391 2.461-.704a17.023 17.023 0 0 0 2.305-1.094 6.745 6.745 0 0 1-1.25 2.383 9.14 9.14 0 0 1-2.031 1.836c.729-.104 1.458-.26 2.187-.469a14.59 14.59 0 0 0 2.11-.781 11.118 11.118 0 0 1-1.68 2.148 16.438 16.438 0 0 1-2.07 1.758zm24.376 42.969"></path>
		</symbol>
	
		<symbol id="icon-user" viewBox="">
			<path d="M26.953 7.766c-2.031 1.51-3.398 3.295-4.101 5.352-.704 2.057-1.003 3.737-.899 5.04.156 1.562.339 3.137.547 4.726l.313 2.382-.625.704c-.417.468-.625 1.38-.625 2.734.26 3.437.807 5.078 1.64 4.922.833-.156 1.354.52 1.563 2.031.573 3.594 1.34 5.651 2.304 6.172.964.52 1.446 1.77 1.446 3.75 0 3.281-.808 5.86-2.422 7.734-1.615 1.875-4.531 3.724-8.75 5.547-2.136.938-4.245 1.94-6.328 3.008-2.084 1.068-3.933 2.253-5.547 3.555-1.615 1.302-2.93 2.76-3.946 4.375C.508 71.412 0 73.209 0 75.188v3.985h72.031v-3.985c0-1.979-.508-3.776-1.523-5.39-1.016-1.615-2.33-3.073-3.945-4.375-1.615-1.302-3.464-2.487-5.547-3.555a86.574 86.574 0 0 0-6.328-2.93c-4.22-1.875-7.136-3.75-8.75-5.625-1.615-1.875-2.422-4.453-2.422-7.734 0-1.98.481-3.23 1.445-3.75.963-.52 1.732-2.578 2.305-6.172.208-1.51.729-2.187 1.562-2.031.833.156 1.38-1.485 1.64-4.922 0-1.354-.208-2.253-.624-2.695l-.625-.664.312-2.422c.209-1.615.39-3.203.547-4.766.104-1.667-.456-3.88-1.68-6.64-1.224-2.761-3.737-4.688-7.539-5.782-.677-.677-1.041-1.523-1.093-2.539-.052-1.016.937-2.07 2.968-3.164-4.479-.208-7.643.599-9.492 2.422-1.849 1.823-3.945 3.594-6.289 5.312zm49.063 67.422"></path>
		</symbol>
	
		<symbol id="icon-vimeo" viewBox="">
			<path d="M71.64 15.327c-.989 5.781-2.968 11.276-5.937 16.484-2.969 5.209-6.185 9.896-9.648 14.063-3.464 4.167-6.85 7.695-10.157 10.586-3.307 2.89-5.82 4.883-7.539 5.976-3.333 2.24-6.406 2.305-9.218.196-2.813-2.11-4.792-4.336-5.938-6.68-.625-1.354-1.523-3.932-2.695-7.734a2152.854 2152.854 0 0 1-3.633-11.914c-1.25-4.141-2.422-7.93-3.516-11.368-1.093-3.437-1.875-5.442-2.343-6.015-1.042-1.25-2.644-1.172-4.805.234l-3.242 2.11L0 17.435l2.07-2.382c1.38-1.589 3.125-3.373 5.235-5.352a66.334 66.334 0 0 1 6.953-5.664c2.526-1.797 4.96-2.93 7.305-3.399 2.5-.52 4.427.053 5.78 1.72 1.355 1.666 2.41 3.827 3.165 6.484.755 2.656 1.341 5.533 1.758 8.632.416 3.1.937 5.873 1.562 8.32 1.146 4.688 2.162 8.308 3.047 10.86.885 2.552 1.823 3.828 2.813 3.828.99 0 2.382-1.198 4.18-3.594 1.796-2.395 3.736-5.598 5.82-9.609 2.135-4.01 2.304-7.318.507-9.922-1.797-2.604-4.752-2.656-8.867-.156.833-5 3.06-8.997 6.68-11.992 3.62-2.995 7.357-4.7 11.21-5.117 3.855-.417 7.15.572 9.884 2.968s3.58 6.485 2.539 12.266zm4.376 52.656"></path>
		</symbol>
	
		<symbol id="icon-vimeo_with_circle" viewBox="">
			<path d="M38.438 0c-5.313 0-10.3 1.003-14.961 3.008-4.662 2.005-8.724 4.74-12.188 8.203-3.463 3.463-6.21 7.526-8.242 12.187C1.016 28.06 0 33.047 0 38.36c0 5.313 1.016 10.3 3.047 14.961 2.031 4.662 4.779 8.724 8.242 12.188 3.464 3.463 7.526 6.21 12.188 8.242 4.661 2.031 9.648 3.047 14.96 3.047 5.313 0 10.3-1.016 14.961-3.047 4.662-2.031 8.724-4.779 12.188-8.242 3.463-3.464 6.21-7.526 8.242-12.188 2.031-4.661 3.047-9.648 3.047-14.96 0-5.313-1.016-10.3-3.047-14.962-2.031-4.661-4.779-8.724-8.242-12.187-3.464-3.464-7.526-6.198-12.188-8.203C48.737 1.003 43.75 0 38.438 0zm17.578 30.938c-.47 2.916-1.459 5.703-2.97 8.359-1.51 2.656-3.137 5.026-4.882 7.11-1.745 2.083-3.45 3.853-5.117 5.312-1.667 1.458-2.943 2.474-3.828 3.047-1.719 1.145-3.281 1.185-4.688.117-1.406-1.068-2.396-2.2-2.968-3.399-.313-.677-.769-1.979-1.368-3.906a636.721 636.721 0 0 1-1.836-6.016 491.876 491.876 0 0 0-1.757-5.742c-.547-1.744-.951-2.773-1.211-3.086-.521-.573-1.328-.507-2.422.196l-1.64 1.054-1.485-1.953 3.672-3.906c2.448-2.604 4.843-4.14 7.187-4.61 2.5-.468 4.01.925 4.531 4.18.521 3.256 1.094 6.107 1.72 8.555.572 2.344 1.08 4.167 1.523 5.469.442 1.302.898 1.953 1.367 1.953.52 0 1.237-.612 2.148-1.836.912-1.224 1.888-2.826 2.93-4.805 1.094-2.031 1.185-3.71.273-5.039-.911-1.328-2.409-1.341-4.492-.039.417-2.552 1.55-4.583 3.399-6.094 1.849-1.51 3.737-2.37 5.664-2.578 1.927-.208 3.58.287 4.96 1.485 1.38 1.198 1.81 3.255 1.29 6.172zm22.422 43.437"></path>
		</symbol>
	
		<symbol id="icon-vk" viewBox="">
			<path d="M71.203 32.11l3.438 3.554c2.291 2.37 3.854 4.284 4.687 5.742 0 .052.013.091.04.117l.038.04c.313.572.508 1.067.586 1.484.078.417.04.781-.117 1.094-.26.52-.742.911-1.445 1.172-.703.26-1.211.416-1.524.468H65.421c-.364 0-.937-.09-1.718-.273-.781-.182-1.693-.638-2.734-1.367-.782-.521-1.55-1.198-2.305-2.032a192.11 192.11 0 0 1-2.226-2.5 46.5 46.5 0 0 0-3.125-3.398c-.99-.964-1.98-1.445-2.97-1.445a1.81 1.81 0 0 0-.35.039c-.131.026-.248.065-.352.117-.73.208-1.472.911-2.227 2.11-.755 1.197-1.133 3.202-1.133 6.015 0 .885-.26 1.562-.781 2.031-.52.469-1.042.703-1.562.703H38.703c-.885 0-3.294-.468-7.226-1.406-3.933-.938-7.956-3.568-12.07-7.89-2.5-2.657-4.91-5.82-7.227-9.493-2.318-3.672-4.362-7.174-6.133-10.508-1.771-3.333-3.19-6.185-4.258-8.554C.721 5.56.188 4.349.188 4.297c-.313-.677-.235-1.198.234-1.563a2.596 2.596 0 0 1 1.64-.546h11.563c.781 0 1.328.195 1.64.585.313.391.574.795.782 1.211.208.47.677 1.563 1.406 3.282.73 1.718 1.719 3.671 2.969 5.859 2.031 3.542 3.698 6.08 5 7.617s2.448 2.305 3.437 2.305c.209 0 .404-.026.586-.078.183-.052.352-.13.508-.235 1.302-.677 1.966-2.695 1.992-6.054.026-3.36.013-5.508-.039-6.446 0-.156-.052-.95-.156-2.382-.104-1.433-.495-2.618-1.172-3.555A4.098 4.098 0 0 0 28.82 2.93c-.703-.287-1.289-.482-1.757-.586.156-.209.364-.43.625-.664.26-.235.546-.456.859-.664.885-.417 2.07-.69 3.555-.82A52.296 52.296 0 0 1 36.672 0h1.797c1.719.052 2.916.13 3.594.234.677.105 1.328.235 1.953.391 1.25.313 1.979.99 2.187 2.031.208 1.042.26 2.943.156 5.703a78.22 78.22 0 0 0-.117 2.579 98.8 98.8 0 0 0-.039 2.89v1.484a33.352 33.352 0 0 0 .117 4.258c.13 1.433.716 2.461 1.758 3.086a.98.98 0 0 0 .39.235c.157.052.313.078.47.078.312 0 1.08-.417 2.304-1.25 1.224-.834 3.268-3.672 6.133-8.516a60.714 60.714 0 0 0 3.086-6.289c.86-2.057 1.341-3.19 1.445-3.398.052-.105.157-.274.313-.508a1.44 1.44 0 0 1 .547-.508c.156-.104.325-.17.507-.195a3.23 3.23 0 0 1 .43-.04H77.22c.781 0 1.406.053 1.875.157.469.104.755.312.86.625.155.417-.079 1.484-.704 3.203-.625 1.719-2.474 4.661-5.547 8.828-.52.73-1.015 1.393-1.484 1.992-.469.6-.912 1.16-1.328 1.68-2.813 3.698-4.206 6.146-4.18 7.344.026 1.198 1.523 3.203 4.492 6.015zm8.828 26.796"></path>
		</symbol>
	
		<symbol id="icon-vk_with_circle" viewBox="">
			<path d="M38.438 0c-5.313 0-10.3 1.003-14.961 3.008-4.662 2.005-8.724 4.74-12.188 8.203-3.463 3.463-6.21 7.526-8.242 12.187C1.016 28.06 0 33.047 0 38.36c0 5.313 1.016 10.3 3.047 14.961 2.031 4.662 4.779 8.724 8.242 12.188 3.464 3.463 7.526 6.21 12.188 8.242 4.661 2.031 9.648 3.047 14.96 3.047 5.313 0 10.3-1.016 14.961-3.047 4.662-2.031 8.724-4.779 12.188-8.242 3.463-3.464 6.21-7.526 8.242-12.188 2.031-4.661 3.047-9.648 3.047-14.96 0-5.313-1.016-10.3-3.047-14.962-2.031-4.661-4.779-8.724-8.242-12.187-3.464-3.464-7.526-6.198-12.188-8.203C48.737 1.003 43.75 0 38.438 0zm14.765 43.281L55 45.156c1.198 1.25 2.005 2.266 2.422 3.047l.039.04.039.038c.156.313.26.573.313.782a.657.657 0 0 1-.079.546c-.156.313-.416.534-.78.664-.365.13-.626.196-.782.196h-6.016c-.208 0-.52-.052-.937-.157-.417-.104-.886-.338-1.407-.703a5.578 5.578 0 0 1-1.21-1.054c-.391-.443-.795-.873-1.211-1.29a29.451 29.451 0 0 0-1.641-1.796c-.52-.521-1.016-.782-1.484-.782a.544.544 0 0 0-.235.04.347.347 0 0 1-.156.039c-.417.156-.82.546-1.21 1.172-.392.625-.587 1.666-.587 3.124 0 .47-.13.82-.39 1.055s-.521.352-.782.352h-2.734c-.469 0-1.745-.248-3.828-.742-2.084-.495-4.193-1.862-6.328-4.102-1.355-1.406-2.63-3.073-3.828-5a101.292 101.292 0 0 1-3.204-5.508c-.937-1.745-1.68-3.242-2.226-4.492l-.82-1.875c-.157-.365-.118-.651.117-.86.234-.208.507-.312.82-.312h6.094c.416 0 .703.104.86.313.155.208.286.416.39.625.104.26.351.846.742 1.757.39.912.924 1.94 1.602 3.086 1.041 1.823 1.9 3.138 2.578 3.946.677.807 1.276 1.21 1.797 1.21.104 0 .208-.012.312-.038.104-.026.208-.04.313-.04.677-.416 1.015-1.497 1.015-3.242v-3.398c0-.052-.026-.456-.078-1.211-.052-.755-.26-1.367-.625-1.836a2.23 2.23 0 0 0-.938-.781 4.904 4.904 0 0 0-.937-.313l.313-.312a1.23 1.23 0 0 1 .468-.313c.469-.26 1.094-.416 1.875-.468a36.424 36.424 0 0 1 2.422-.079h.938c.885 0 1.51.026 1.875.078.364.053.703.13 1.015.235.677.156 1.068.508 1.172 1.055.104.546.13 1.549.078 3.007 0 .417-.013.86-.039 1.328-.026.47-.039.99-.039 1.563v.782c-.052.728-.039 1.458.04 2.187.077.729.377 1.276.898 1.64a.49.49 0 0 0 .195.118c.078.026.17.039.273.039.157 0 .56-.222 1.211-.664.651-.443 1.732-1.914 3.242-4.414a32.488 32.488 0 0 0 1.602-3.36c.443-1.094.69-1.693.742-1.797.052-.052.117-.13.196-.234.078-.104.169-.208.273-.313.052-.052.13-.078.234-.078H56.33c.416 0 .741.026.976.078.234.052.377.157.43.313.104.26-.014.833-.352 1.719-.339.885-1.315 2.421-2.93 4.609-.26.365-.508.703-.742 1.016-.234.312-.456.625-.664.937-1.51 1.927-2.253 3.203-2.227 3.828.026.625.82 1.667 2.383 3.125zm25.234 31.094"></path>
		</symbol>
	
		<symbol id="icon-vk_with_square" viewBox="">
			<path d="M72.031 64.063V8.047c0-2.188-.794-4.076-2.383-5.664C68.06.794 66.172 0 63.984 0H8.047C5.755 0 3.84.768 2.305 2.305.768 3.84 0 5.755 0 8.047v56.016c0 2.291.768 4.192 2.305 5.703 1.536 1.51 3.45 2.265 5.742 2.265h55.937c2.188 0 4.076-.781 5.664-2.344 1.589-1.562 2.383-3.437 2.383-5.624zM56.72 42.422l2.422 2.5c1.614 1.667 2.708 3.02 3.28 4.062v.078c.261.417.418.769.47 1.055.052.287.026.56-.078.82-.209.365-.56.639-1.055.82-.495.183-.847.274-1.055.274H52.734c-.312 0-.742-.065-1.289-.195-.547-.13-1.159-.43-1.836-.898a10.842 10.842 0 0 1-1.64-1.485l-1.563-1.719a25.53 25.53 0 0 0-2.226-2.382c-.703-.651-1.394-.977-2.07-.977h-.235c-.104 0-.182.026-.234.078-.521.156-1.042.651-1.563 1.484-.52.834-.781 2.24-.781 4.22 0 .572-.182 1.028-.547 1.366-.365.339-.73.508-1.094.508H33.984c-.625 0-2.304-.325-5.039-.976-2.734-.651-5.56-2.487-8.476-5.508-1.771-1.875-3.464-4.089-5.078-6.64-1.615-2.553-3.034-5-4.258-7.344-1.224-2.344-2.214-4.35-2.969-6.016l-1.133-2.5c-.208-.521-.156-.899.157-1.133.312-.234.703-.352 1.171-.352h8.047c.573 0 .977.13 1.211.391.235.26.404.547.508.86.156.312.495 1.067 1.016 2.265.52 1.198 1.198 2.552 2.03 4.063 1.407 2.5 2.579 4.283 3.517 5.351.937 1.068 1.744 1.602 2.421 1.602.105 0 .222-.013.352-.04.13-.025.247-.064.352-.117.937-.52 1.419-1.953 1.445-4.296.026-2.344.013-3.828-.04-4.453 0-.157-.038-.73-.116-1.72-.079-.989-.352-1.796-.82-2.421a2.688 2.688 0 0 0-1.212-1.016c-.494-.208-.898-.338-1.21-.39.051-.157.182-.313.39-.47l.625-.468c.625-.312 1.458-.508 2.5-.586A42.828 42.828 0 0 1 32.578 20h1.25c1.198.052 2.031.117 2.5.195.469.078.938.17 1.406.274.886.208 1.394.677 1.524 1.406.13.73.17 2.057.117 3.984a36.782 36.782 0 0 0-.117 1.797c-.026.625-.04 1.302-.04 2.032V30.703c0 .99.04 1.98.118 2.969.078.99.482 1.719 1.21 2.187.053.052.131.092.235.118.104.026.209.039.313.039.26 0 .82-.274 1.68-.82.859-.548 2.278-2.514 4.257-5.9a35.492 35.492 0 0 0 2.227-4.452c.599-1.459.924-2.24.976-2.344 0-.104.065-.234.196-.39a5.91 5.91 0 0 1 .351-.391c.104-.052.222-.091.352-.117.13-.026.247-.04.351-.04h9.453c.521 0 .951.04 1.29.118.338.078.533.221.586.43.104.312-.053 1.067-.47 2.265-.416 1.198-1.718 3.255-3.906 6.172-.364.52-.703.99-1.015 1.406a23.07 23.07 0 0 1-.938 1.172c-1.927 2.604-2.89 4.323-2.89 5.156 0 .834 1.041 2.214 3.125 4.14zm19.297 29.61"></path>
		</symbol>
	
		<symbol id="icon-yt" viewBox="">
			<path d="M40 0c-9.844 0-17.46.326-22.852.977-5.39.65-9.362 2.044-11.914 4.18-2.552 2.135-4.062 5.234-4.53 9.296C.233 18.516 0 23.958 0 30.781c0 6.823.234 12.266.703 16.328.469 4.063 1.98 7.175 4.531 9.336 2.552 2.162 6.524 3.555 11.914 4.18 5.391.625 13.008.938 22.852.938 9.844 0 17.46-.313 22.852-.938 5.39-.625 9.362-2.018 11.914-4.18 2.552-2.161 4.062-5.273 4.53-9.336.47-4.062.704-9.505.704-16.328 0-6.823-.234-12.265-.703-16.328-.469-4.062-1.98-7.161-4.531-9.297-2.552-2.135-6.524-3.528-11.914-4.18C57.46.327 49.844 0 40 0zm12.813 32.11l-17.97 8.437c-.78.364-1.445.364-1.991 0-.547-.365-.82-.99-.82-1.875V22.89c0-.834.273-1.433.82-1.797.546-.365 1.21-.365 1.992 0l17.968 8.36c.782.364 1.172.806 1.172 1.327 0 .521-.39.964-1.172 1.328zM80 66.796"></path>
		</symbol>
	
		<symbol id="icon-yt_with_circle" viewBox="">
			<path d="M44.844 37.734l-8.985-4.218c-.364-.209-.69-.222-.976-.04-.287.183-.43.508-.43.977v7.89c0 .417.143.717.43.9.286.181.612.168.976-.04l8.985-4.14c.416-.209.625-.443.625-.704 0-.26-.209-.468-.625-.625zM38.437 0c-5.312 0-10.299 1.003-14.96 3.008-4.662 2.005-8.724 4.74-12.188 8.203-3.463 3.463-6.21 7.526-8.242 12.187C1.016 28.06 0 33.047 0 38.36c0 5.313 1.016 10.3 3.047 14.961 2.031 4.662 4.779 8.724 8.242 12.188 3.464 3.463 7.526 6.21 12.188 8.242 4.661 2.031 9.648 3.047 14.96 3.047 5.313 0 10.3-1.016 14.961-3.047 4.662-2.031 8.724-4.779 12.188-8.242 3.463-3.464 6.21-7.526 8.242-12.188 2.031-4.661 3.047-9.648 3.047-14.96 0-5.313-1.016-10.3-3.047-14.962-2.031-4.661-4.779-8.724-8.242-12.187-3.464-3.464-7.526-6.198-12.188-8.203C48.737 1.003 43.75 0 38.438 0zm0 53.984c-9.843 0-15.638-.872-17.382-2.617-1.745-1.745-2.617-6.08-2.617-13.008 0-6.927.872-11.25 2.617-12.968 1.744-1.72 7.539-2.578 17.383-2.578 9.843 0 15.638.859 17.382 2.578 1.745 1.718 2.617 6.041 2.617 12.968s-.872 11.263-2.617 13.008c-1.744 1.745-7.539 2.617-17.383 2.617zm40 20.391"></path>
		</symbol>
	
</svg>
