<svg style="" width="72.031250" height="72.031250" version="1.1" xmlns="http://www.w3.org/2000/svg">
<path d="M52.031250 64.062500 C52.031250 66.250011 52.812492 68.124992 54.375000 69.687500 C55.937508 71.250008 57.812489 72.031250 60.000000 72.031250 C62.187511 72.031250 64.062492 71.250008 65.625000 69.687500 C67.187508 68.124992 67.968750 66.250011 67.968750 64.062500 C67.968750 61.822905 67.187508 59.921883 65.625000 58.359375 C64.062492 56.796867 62.187511 56.015625 60.000000 56.015625 C57.812489 56.015625 55.937508 56.796867 54.375000 58.359375 C52.812492 59.921883 52.031250 61.822905 52.031250 64.062500 Z M12.031250 64.062500 C12.031250 66.250011 12.812492 68.124992 14.375000 69.687500 C15.937508 71.250008 17.812489 72.031250 20.000000 72.031250 C22.187511 72.031250 24.062492 71.250008 25.625000 69.687500 C27.187508 68.124992 27.968750 66.250011 27.968750 64.062500 C27.968750 61.822905 27.187508 59.921883 25.625000 58.359375 C24.062492 56.796867 22.187511 56.015625 20.000000 56.015625 C17.812489 56.015625 15.937508 56.796867 14.375000 58.359375 C12.812492 59.921883 12.031250 61.822905 12.031250 64.062500 Z M26.171875 44.687500 L70.468750 32.109375 C70.885419 31.953124 71.249998 31.679689 71.562500 31.289062 C71.875002 30.898436 72.031250 30.468752 72.031250 30.000000 L72.031250 8.046875 L16.015625 8.046875 L16.015625 1.640625 C16.015625 1.171873 15.859377 0.781252 15.546875 0.468750 C15.234373 0.156248 14.843752 -0.000000 14.375000 -0.000000 L1.562500 -0.000000 C1.145831 -0.000000 0.781252 0.156248 0.468750 0.468750 C0.156248 0.781252 0.000000 1.171873 0.000000 1.640625 L0.000000 8.046875 L7.968750 8.046875 L15.625000 43.828125 L16.015625 47.656250 L16.015625 54.218750 C16.015625 54.687502 16.171873 55.078123 16.484375 55.390625 C16.796877 55.703127 17.161456 55.859375 17.578125 55.859375 L70.390625 55.859375 C70.859377 55.859375 71.249998 55.690106 71.562500 55.351562 C71.875002 55.013019 72.031250 54.635419 72.031250 54.218750 L72.031250 48.046875 L27.031250 48.046875 C24.739572 48.046875 23.541667 47.630212 23.437500 46.796875 C23.333333 45.963538 24.244782 45.260420 26.171875 44.687500 Z M80.000000 72.031250" style="fill:black"/>
</svg>