<svg style="" width="76.875000" height="76.796875" version="1.1" xmlns="http://www.w3.org/2000/svg">
<path d="M39.843750 29.531250 C39.479165 29.114581 39.010420 28.906250 38.437500 28.906250 C37.864580 28.906250 37.395835 29.114581 37.031250 29.531250 L25.546875 40.781250 C25.130206 41.145835 24.921875 41.601560 24.921875 42.148438 C24.921875 42.695315 25.130206 43.177081 25.546875 43.593750 C25.963544 43.958335 26.445310 44.140625 26.992188 44.140625 C27.539065 44.140625 28.020831 43.958335 28.437500 43.593750 L38.437500 34.375000 L48.437500 43.593750 C48.854169 43.958335 49.335935 44.140625 49.882812 44.140625 C50.429690 44.140625 50.911456 43.958335 51.328125 43.593750 C51.744794 43.177081 51.953125 42.695315 51.953125 42.148438 C51.953125 41.601560 51.744794 41.145835 51.328125 40.781250 Z M38.437500 -0.000000 C33.124973 -0.000000 28.138044 1.002594 23.476562 3.007812 C18.815081 5.013031 14.752621 7.747379 11.289062 11.210938 C7.825504 14.674496 5.078135 18.736956 3.046875 23.398438 C1.015615 28.059919 0.000000 33.046848 0.000000 38.359375 C0.000000 43.671902 1.015615 48.658831 3.046875 53.320312 C5.078135 57.981794 7.825504 62.044254 11.289062 65.507812 C14.752621 68.971371 18.815081 71.718740 23.476562 73.750000 C28.138044 75.781260 33.124973 76.796875 38.437500 76.796875 C43.750027 76.796875 48.736956 75.781260 53.398438 73.750000 C58.059919 71.718740 62.122379 68.971371 65.585938 65.507812 C69.049496 62.044254 71.796865 57.981794 73.828125 53.320312 C75.859385 48.658831 76.875000 43.671902 76.875000 38.359375 C76.875000 33.046848 75.859385 28.059919 73.828125 23.398438 C71.796865 18.736956 69.049496 14.674496 65.585938 11.210938 C62.122379 7.747379 58.059919 5.013031 53.398438 3.007812 C48.736956 1.002594 43.750027 -0.000000 38.437500 -0.000000 Z M38.437500 71.796875 C33.802060 71.796875 29.466166 70.924488 25.429688 69.179688 C21.393209 67.434887 17.851578 65.052098 14.804688 62.031250 C11.757797 59.010402 9.361988 55.468770 7.617188 51.406250 C5.872387 47.343730 5.000000 42.994815 5.000000 38.359375 C5.000000 33.776019 5.872387 29.453145 7.617188 25.390625 C9.361988 21.328105 11.757797 17.786473 14.804688 14.765625 C17.851578 11.744777 21.393209 9.348967 25.429688 7.578125 C29.466166 5.807283 33.802060 4.921875 38.437500 4.921875 C43.072940 4.921875 47.408834 5.807283 51.445312 7.578125 C55.481791 9.348967 59.010402 11.744777 62.031250 14.765625 C65.052098 17.786473 67.447908 21.328105 69.218750 25.390625 C70.989592 29.453145 71.875000 33.776019 71.875000 38.359375 C71.875000 42.994815 70.989592 47.343730 69.218750 51.406250 C67.447908 55.468770 65.052098 59.010402 62.031250 62.031250 C59.010402 65.052098 55.481791 67.434887 51.445312 69.179688 C47.408834 70.924488 43.072940 71.796875 38.437500 71.796875 Z M78.437500 74.375000" style="fill:black"/>
</svg>