<svg style="" width="40.000000" height="46.640625" version="1.1" xmlns="http://www.w3.org/2000/svg">
<path d="M5.703125 22.343750 L20.000000 7.968750 L34.296875 22.343750 C34.661460 22.656252 35.065102 22.890624 35.507812 23.046875 C35.950523 23.203126 36.328123 23.281250 36.640625 23.281250 C37.005210 23.281250 37.408852 23.203126 37.851562 23.046875 C38.294273 22.890624 38.671873 22.656252 38.984375 22.343750 C39.661462 21.666663 40.000000 20.885421 40.000000 20.000000 C40.000000 19.114579 39.661462 18.333337 38.984375 17.656250 L22.343750 0.937500 C21.666663 0.312497 20.885421 -0.000000 20.000000 -0.000000 C19.114579 -0.000000 18.333337 0.312497 17.656250 0.937500 L1.015625 17.656250 C0.338538 18.333337 0.000000 19.114579 0.000000 20.000000 C0.000000 20.885421 0.338538 21.666663 1.015625 22.343750 C1.692712 22.968753 2.473954 23.281250 3.359375 23.281250 C4.244796 23.281250 5.026038 22.968753 5.703125 22.343750 Z M22.343750 24.296875 C21.666663 23.619788 20.885421 23.281250 20.000000 23.281250 C19.114579 23.281250 18.333337 23.619788 17.656250 24.296875 L1.015625 40.937500 C0.338538 41.614587 0.000000 42.395829 0.000000 43.281250 C0.000000 44.166671 0.338538 44.947913 1.015625 45.625000 C1.692712 46.302087 2.473954 46.640625 3.359375 46.640625 C4.244796 46.640625 5.026038 46.302087 5.703125 45.625000 L20.000000 31.328125 L34.296875 45.625000 C34.661460 45.989585 35.065102 46.249999 35.507812 46.406250 C35.950523 46.562501 36.328123 46.640625 36.640625 46.640625 C37.005210 46.640625 37.408852 46.562501 37.851562 46.406250 C38.294273 46.249999 38.671873 45.989585 38.984375 45.625000 C39.661462 44.947913 40.000000 44.166671 40.000000 43.281250 C40.000000 42.395829 39.661462 41.614587 38.984375 40.937500 Z M60.000000 56.640625" style="fill:black"/>
</svg>