<svg style="" width="54.843750" height="72.031250" version="1.1" xmlns="http://www.w3.org/2000/svg">
<path d="M27.214033 -0.000000 C22.943179 -0.000000 19.089051 0.325518 15.651533 0.976562 C12.214016 1.627607 9.323420 2.447912 6.979658 3.437500 C4.635897 4.427088 2.852060 5.520827 1.628096 6.718750 C0.404131 7.916673 -0.129717 9.088536 0.026533 10.234375 L5.807783 64.140625 C5.859867 64.609377 6.419757 65.273433 7.487471 66.132812 C8.555185 66.992192 10.026524 67.864579 11.901533 68.750000 C13.776543 69.635421 16.016104 70.403643 18.620283 71.054688 C21.224463 71.705732 24.089018 72.031250 27.214033 72.031250 C30.339049 72.031250 33.203604 71.705732 35.807783 71.054688 C38.411963 70.403643 40.651524 69.635421 42.526533 68.750000 C44.401543 67.864579 45.872882 66.992192 46.940596 66.132812 C48.008310 65.273433 48.568200 64.609377 48.620283 64.140625 L54.401533 10.234375 C54.557784 9.088536 54.023935 7.916673 52.799971 6.718750 C51.576006 5.520827 49.779149 4.427088 47.409346 3.437500 C45.039542 2.447912 42.148946 1.627607 38.737471 0.976562 C35.325996 0.325518 31.484888 -0.000000 27.214033 -0.000000 Z M27.214033 17.187500 C24.089018 17.187500 21.211442 16.953127 18.581221 16.484375 C15.950999 16.015623 13.685397 15.442712 11.784346 14.765625 C9.883295 14.088538 8.411955 13.411462 7.370283 12.734375 C6.328612 12.057288 5.807783 11.510419 5.807783 11.093750 C5.807783 10.677081 6.328612 10.117191 7.370283 9.414062 C8.411955 8.710934 9.883295 8.033857 11.784346 7.382812 C13.685397 6.731768 15.950999 6.158857 18.581221 5.664062 C21.211442 5.169268 24.089018 4.921875 27.214033 4.921875 C30.339049 4.921875 33.216624 5.169268 35.846846 5.664062 C38.477067 6.158857 40.742670 6.731768 42.643721 7.382812 C44.544772 8.033857 46.016112 8.710934 47.057783 9.414062 C48.099455 10.117191 48.620283 10.677081 48.620283 11.093750 C48.620283 11.510419 48.086435 12.057288 47.018721 12.734375 C45.951007 13.411462 44.479668 14.088538 42.604658 14.765625 C40.729649 15.442712 38.477067 16.015623 35.846846 16.484375 C33.216624 16.953127 30.339049 17.187500 27.214033 17.187500 Z M67.214033 72.031250" style="fill:black"/>
</svg>