<svg style="" width="72.031250" height="72.031250" version="1.1" xmlns="http://www.w3.org/2000/svg">
<path d="M63.984375 -0.000000 L8.046875 -0.000000 C5.807280 -0.000000 3.906258 0.794263 2.343750 2.382812 C0.781242 3.971362 0.000000 5.859364 0.000000 8.046875 L0.000000 64.062500 C0.000000 66.250011 0.781242 68.124992 2.343750 69.687500 C3.906258 71.250008 5.807280 72.031250 8.046875 72.031250 L36.015625 72.031250 L36.015625 44.062500 L28.046875 44.062500 L28.046875 34.140625 L36.015625 34.140625 L36.015625 25.937500 C36.015625 21.614562 37.252592 18.072930 39.726562 15.312500 C42.200533 12.552070 45.989558 11.171875 51.093750 11.171875 L58.281250 11.171875 L58.281250 21.640625 L53.515625 21.640625 C51.536448 21.640625 50.130212 22.252598 49.296875 23.476562 C48.463538 24.700527 48.046875 25.989577 48.046875 27.343750 L48.046875 34.140625 L58.281250 34.140625 L56.015625 44.062500 L48.046875 44.062500 L48.046875 72.031250 L63.984375 72.031250 C66.223970 72.031250 68.124992 71.250008 69.687500 69.687500 C71.250008 68.124992 72.031250 66.250011 72.031250 64.062500 L72.031250 8.046875 C72.031250 5.859364 71.250008 3.971362 69.687500 2.382812 C68.124992 0.794263 66.223970 -0.000000 63.984375 -0.000000 Z M76.015625 72.031250" style="fill:black"/>
</svg>