<svg style="" width="76.875000" height="76.796875" version="1.1" xmlns="http://www.w3.org/2000/svg">
<path d="M38.515625 38.203125 C38.515625 38.203125 38.502604 38.203125 38.476562 38.203125 C38.450521 38.203125 38.437500 38.203125 38.437500 38.203125 L38.359375 38.203125 C35.963530 38.203125 33.776052 38.085939 31.796875 37.851562 C29.817698 37.617186 28.203131 38.072911 26.953125 39.218750 C26.223955 39.895837 25.690106 40.651038 25.351562 41.484375 C25.013019 42.317712 24.843750 43.177079 24.843750 44.062500 C24.843750 47.760435 26.145820 50.065100 28.750000 50.976562 C31.354180 51.888025 34.557273 52.343750 38.359375 52.343750 L38.515625 52.343750 C42.317727 52.343750 45.520820 51.888025 48.125000 50.976562 C50.729180 50.065100 52.031250 47.760435 52.031250 44.062500 C52.031250 43.177079 51.875002 42.317712 51.562500 41.484375 C51.249998 40.651038 50.703129 39.895837 49.921875 39.218750 C48.671869 38.072911 47.057302 37.617186 45.078125 37.851562 C43.098948 38.085939 40.911470 38.203125 38.515625 38.203125 Z M32.031250 48.281250 C31.302080 48.281250 30.677086 47.929691 30.156250 47.226562 C29.635414 46.523434 29.375000 45.677088 29.375000 44.687500 C29.375000 43.645828 29.635414 42.773441 30.156250 42.070312 C30.677086 41.367184 31.302080 41.015625 32.031250 41.015625 C32.760420 41.015625 33.372393 41.367184 33.867188 42.070312 C34.361982 42.773441 34.609375 43.645828 34.609375 44.687500 C34.609375 45.677088 34.361982 46.523434 33.867188 47.226562 C33.372393 47.929691 32.760420 48.281250 32.031250 48.281250 Z M44.843750 48.281250 C44.114580 48.281250 43.502607 47.929691 43.007812 47.226562 C42.513018 46.523434 42.265625 45.677088 42.265625 44.687500 C42.265625 43.645828 42.513018 42.773441 43.007812 42.070312 C43.502607 41.367184 44.114580 41.015625 44.843750 41.015625 C45.572920 41.015625 46.197914 41.367184 46.718750 42.070312 C47.239586 42.773441 47.500000 43.645828 47.500000 44.687500 C47.500000 45.677088 47.239586 46.523434 46.718750 47.226562 C46.197914 47.929691 45.572920 48.281250 44.843750 48.281250 Z M38.437500 -0.000000 C33.124973 -0.000000 28.138044 1.002594 23.476562 3.007812 C18.815081 5.013031 14.752621 7.747379 11.289062 11.210938 C7.825504 14.674496 5.078135 18.736956 3.046875 23.398438 C1.015615 28.059919 0.000000 33.046848 0.000000 38.359375 C0.000000 43.671902 1.015615 48.658831 3.046875 53.320312 C5.078135 57.981794 7.825504 62.044254 11.289062 65.507812 C14.752621 68.971371 18.815081 71.718740 23.476562 73.750000 C28.138044 75.781260 33.124973 76.796875 38.437500 76.796875 C43.750027 76.796875 48.736956 75.781260 53.398438 73.750000 C58.059919 71.718740 62.122379 68.971371 65.585938 65.507812 C69.049496 62.044254 71.796865 57.981794 73.828125 53.320312 C75.859385 48.658831 76.875000 43.671902 76.875000 38.359375 C76.875000 33.046848 75.859385 28.059919 73.828125 23.398438 C71.796865 18.736956 69.049496 14.674496 65.585938 11.210938 C62.122379 7.747379 58.059919 5.013031 53.398438 3.007812 C48.736956 1.002594 43.750027 -0.000000 38.437500 -0.000000 Z M41.953125 54.140625 C41.588540 54.140625 41.093753 54.140625 40.468750 54.140625 C39.843747 54.140625 39.166670 54.140625 38.437500 54.140625 C37.708330 54.140625 37.031253 54.140625 36.406250 54.140625 C35.781247 54.140625 35.286460 54.140625 34.921875 54.140625 C34.192705 54.140625 32.994800 54.049480 31.328125 53.867188 C29.661450 53.684895 27.968759 53.125005 26.250000 52.187500 C24.531241 51.249995 23.033861 49.791677 21.757812 47.812500 C20.481764 45.833323 19.843750 43.020852 19.843750 39.375000 C19.843750 37.708325 20.117185 36.236986 20.664062 34.960938 C21.210940 33.684889 21.953120 32.552088 22.890625 31.562500 C22.734374 31.197915 22.708333 30.117196 22.812500 28.320312 C22.916667 26.523429 23.359371 24.609385 24.140625 22.578125 C24.140625 22.578125 24.986971 22.812498 26.679688 23.281250 C28.372404 23.750002 30.598945 24.921866 33.359375 26.796875 C33.932295 26.640624 34.674475 26.523438 35.585938 26.445312 C36.497400 26.367187 37.447912 26.328125 38.437500 26.328125 C39.427088 26.328125 40.377600 26.367187 41.289062 26.445312 C42.200525 26.523438 42.942705 26.640624 43.515625 26.796875 C46.276055 24.921866 48.502596 23.750002 50.195312 23.281250 C51.888029 22.812498 52.734375 22.578125 52.734375 22.578125 C53.515629 24.609385 53.958333 26.523429 54.062500 28.320312 C54.166667 30.117196 54.140626 31.197915 53.984375 31.562500 C54.921880 32.552088 55.664060 33.684889 56.210938 34.960938 C56.757815 36.236986 57.031250 37.708325 57.031250 39.375000 C57.031250 43.020852 56.393236 45.833323 55.117188 47.812500 C53.841139 49.791677 52.343759 51.249995 50.625000 52.187500 C48.906241 53.125005 47.213550 53.684895 45.546875 53.867188 C43.880200 54.049480 42.682295 54.140625 41.953125 54.140625 Z M78.437500 74.375000" style="fill:black"/>
</svg>