<svg style="" width="76.875000" height="76.796875" version="1.1" xmlns="http://www.w3.org/2000/svg">
<path d="M50.468750 38.359375 C50.468750 41.692725 49.296887 44.531238 46.953125 46.875000 C44.609363 49.218762 41.770850 50.390625 38.437500 50.390625 C35.104150 50.390625 32.265637 49.218762 29.921875 46.875000 C27.578113 44.531238 26.406250 41.692725 26.406250 38.359375 C26.406250 38.046873 26.432291 37.721356 26.484375 37.382812 C26.536459 37.044269 26.588541 36.718752 26.640625 36.406250 L22.421875 36.406250 L22.421875 52.343750 C22.421875 52.916670 22.617186 53.398436 23.007812 53.789062 C23.398439 54.179689 23.880205 54.375000 24.453125 54.375000 L52.421875 54.375000 C52.994795 54.375000 53.476561 54.179689 53.867188 53.789062 C54.257814 53.398436 54.453125 52.916670 54.453125 52.343750 L54.453125 36.406250 L50.234375 36.406250 C50.286459 36.718752 50.338541 37.044269 50.390625 37.382812 C50.442709 37.721356 50.468750 38.046873 50.468750 38.359375 Z M38.437500 46.406250 C40.625011 46.406250 42.499992 45.625008 44.062500 44.062500 C45.625008 42.499992 46.406250 40.598970 46.406250 38.359375 C46.406250 36.171864 45.625008 34.296883 44.062500 32.734375 C42.499992 31.171867 40.625011 30.390625 38.437500 30.390625 C36.249989 30.390625 34.375008 31.171867 32.812500 32.734375 C31.249992 34.296883 30.468750 36.171864 30.468750 38.359375 C30.468750 40.598970 31.249992 42.499992 32.812500 44.062500 C34.375008 45.625008 36.249989 46.406250 38.437500 46.406250 Z M48.046875 30.000000 L52.812500 30.000000 C53.177085 30.000000 53.476561 29.882814 53.710938 29.648438 C53.945314 29.414061 54.062500 29.114585 54.062500 28.750000 L54.062500 23.984375 C54.062500 23.671873 53.945314 23.398439 53.710938 23.164062 C53.476561 22.929686 53.177085 22.812500 52.812500 22.812500 L48.046875 22.812500 C47.734373 22.812500 47.447918 22.929686 47.187500 23.164062 C46.927082 23.398439 46.796875 23.671873 46.796875 23.984375 L46.796875 28.750000 C46.848959 29.114585 46.992186 29.414061 47.226562 29.648438 C47.460939 29.882814 47.734373 30.000000 48.046875 30.000000 Z M38.437500 -0.000000 C33.124973 -0.000000 28.138044 1.002594 23.476562 3.007812 C18.815081 5.013031 14.752621 7.747379 11.289062 11.210938 C7.825504 14.674496 5.078135 18.736956 3.046875 23.398438 C1.015615 28.059919 0.000000 33.046848 0.000000 38.359375 C0.000000 43.671902 1.015615 48.658831 3.046875 53.320312 C5.078135 57.981794 7.825504 62.044254 11.289062 65.507812 C14.752621 68.971371 18.815081 71.718740 23.476562 73.750000 C28.138044 75.781260 33.124973 76.796875 38.437500 76.796875 C43.750027 76.796875 48.736956 75.781260 53.398438 73.750000 C58.059919 71.718740 62.122379 68.971371 65.585938 65.507812 C69.049496 62.044254 71.796865 57.981794 73.828125 53.320312 C75.859385 48.658831 76.875000 43.671902 76.875000 38.359375 C76.875000 33.046848 75.859385 28.059919 73.828125 23.398438 C71.796865 18.736956 69.049496 14.674496 65.585938 11.210938 C62.122379 7.747379 58.059919 5.013031 53.398438 3.007812 C48.736956 1.002594 43.750027 -0.000000 38.437500 -0.000000 Z M58.437500 53.906250 C58.437500 55.156256 58.007817 56.210933 57.148438 57.070312 C56.289058 57.929692 55.234381 58.359375 53.984375 58.359375 L22.890625 58.359375 C21.640619 58.359375 20.585942 57.929692 19.726562 57.070312 C18.867183 56.210933 18.437500 55.156256 18.437500 53.906250 L18.437500 22.812500 C18.437500 21.614577 18.867183 20.572921 19.726562 19.687500 C20.585942 18.802079 21.640619 18.359375 22.890625 18.359375 L53.984375 18.359375 C55.234381 18.359375 56.289058 18.802079 57.148438 19.687500 C58.007817 20.572921 58.437500 21.614577 58.437500 22.812500 Z M78.437500 74.375000" style="fill:black"/>
</svg>