<svg style="" width="55.937500" height="40.000000" version="1.1" xmlns="http://www.w3.org/2000/svg">
<path d="M53.593750 16.015625 L2.343750 16.015625 C1.249995 16.015625 0.585939 16.406246 0.351562 17.187500 C0.117186 17.968754 0.000000 18.906245 0.000000 20.000000 C0.000000 21.093755 0.117186 22.031246 0.351562 22.812500 C0.585939 23.593754 1.249995 23.984375 2.343750 23.984375 L53.593750 23.984375 C54.687505 23.984375 55.351561 23.593754 55.585938 22.812500 C55.820314 22.031246 55.937500 21.093755 55.937500 20.000000 C55.937500 18.906245 55.820314 17.968754 55.585938 17.187500 C55.351561 16.406246 54.687505 16.015625 53.593750 16.015625 Z M53.593750 32.031250 L2.343750 32.031250 C1.249995 32.031250 0.585939 32.421871 0.351562 33.203125 C0.117186 33.984379 0.000000 34.921870 0.000000 36.015625 C0.000000 37.109380 0.117186 38.046871 0.351562 38.828125 C0.585939 39.609379 1.249995 40.000000 2.343750 40.000000 L53.593750 40.000000 C54.687505 40.000000 55.351561 39.609379 55.585938 38.828125 C55.820314 38.046871 55.937500 37.109380 55.937500 36.015625 C55.937500 34.921870 55.820314 33.984379 55.585938 33.203125 C55.351561 32.421871 54.687505 32.031250 53.593750 32.031250 Z M2.343750 8.046875 L53.593750 8.046875 C54.687505 8.046875 55.351561 7.656254 55.585938 6.875000 C55.820314 6.093746 55.937500 5.130214 55.937500 3.984375 C55.937500 2.890620 55.820314 1.953129 55.585938 1.171875 C55.351561 0.390621 54.687505 -0.000000 53.593750 -0.000000 L2.343750 -0.000000 C1.249995 -0.000000 0.585939 0.390621 0.351562 1.171875 C0.117186 1.953129 0.000000 2.890620 0.000000 3.984375 C0.000000 5.130214 0.117186 6.093746 0.351562 6.875000 C0.585939 7.656254 1.249995 8.046875 2.343750 8.046875 Z M67.968750 56.015625" style="fill:black"/>
</svg>