<svg style="" width="62.031250" height="52.812500" version="1.1" xmlns="http://www.w3.org/2000/svg">
<path d="M11.640625 -0.000000 C8.411442 -0.000000 5.664074 1.171863 3.398438 3.515625 C1.132801 5.859387 0.000000 8.697900 0.000000 12.031250 C0.000000 15.364600 1.132801 18.203113 3.398438 20.546875 C5.664074 22.890637 8.411442 24.062500 11.640625 24.062500 C14.557306 24.062500 16.315101 25.260405 16.914062 27.656250 C17.513024 30.052095 17.213548 32.708319 16.015625 35.625000 C14.817702 38.541681 12.812514 41.197905 10.000000 43.593750 C7.187486 45.989595 3.854186 47.187500 0.000000 47.187500 L0.000000 52.812500 C6.927118 52.812500 12.695289 50.065132 17.304688 44.570312 C21.914086 39.075493 24.921868 33.033887 26.328125 26.445312 C27.734382 19.856738 27.330740 13.802111 25.117188 8.281250 C22.903635 2.760389 18.411492 -0.000000 11.640625 -0.000000 Z M45.234375 -0.000000 C42.005192 -0.000000 39.257824 1.171863 36.992188 3.515625 C34.726551 5.859387 33.593750 8.697900 33.593750 12.031250 C33.593750 15.364600 34.726551 18.203113 36.992188 20.546875 C39.257824 22.890637 42.005192 24.062500 45.234375 24.062500 C48.151056 24.062500 49.921872 25.260405 50.546875 27.656250 C51.171878 30.052095 50.872402 32.708319 49.648438 35.625000 C48.424473 38.541681 46.419285 41.197905 43.632812 43.593750 C40.846340 45.989595 37.500020 47.187500 33.593750 47.187500 L33.593750 52.812500 C40.520868 52.812500 46.289039 50.065132 50.898438 44.570312 C55.507836 39.075493 58.515618 33.033887 59.921875 26.445312 C61.328132 19.856738 60.924490 13.802111 58.710938 8.281250 C56.497385 2.760389 52.005242 -0.000000 45.234375 -0.000000 Z M70.390625 62.421875" style="fill:black"/>
</svg>