<svg style="" width="73.593750" height="76.796875" version="1.1" xmlns="http://www.w3.org/2000/svg">
<path d="M71.484375 46.484375 C71.744793 45.286452 71.940104 44.036465 72.070312 42.734375 C72.200521 41.432285 72.265625 40.104173 72.265625 38.750000 C72.265625 33.802059 71.354176 29.127626 69.531250 24.726562 C67.708324 20.325499 65.208349 16.497412 62.031250 13.242188 C58.854151 9.986963 55.130230 7.408864 50.859375 5.507812 C46.588520 3.606761 42.031274 2.656250 37.187500 2.656250 C36.145828 2.656250 35.130213 2.695312 34.140625 2.773438 C33.151037 2.851563 32.161463 2.994791 31.171875 3.203125 C29.609367 2.161453 27.916676 1.367190 26.093750 0.820312 C24.270824 0.273435 22.369802 -0.000000 20.390625 -0.000000 C17.578111 -0.000000 14.934908 0.546870 12.460938 1.640625 C9.986967 2.734380 7.825530 4.231761 5.976562 6.132812 C4.127595 8.033864 2.669276 10.247383 1.601562 12.773438 C0.533849 15.299492 0.000000 18.020819 0.000000 20.937500 C0.000000 22.864593 0.247393 24.726554 0.742188 26.523438 C1.236982 28.320321 1.927079 29.973951 2.812500 31.484375 C2.552082 32.682298 2.369792 33.880202 2.265625 35.078125 C2.161458 36.276048 2.109375 37.499994 2.109375 38.750000 C2.109375 43.750025 3.020824 48.437478 4.843750 52.812500 C6.666676 57.187522 9.166651 61.015609 12.343750 64.296875 C15.520849 67.578141 19.244770 70.169261 23.515625 72.070312 C27.786480 73.971364 32.343726 74.921875 37.187500 74.921875 C38.281255 74.921875 39.361974 74.869792 40.429688 74.765625 C41.497401 74.661458 42.552078 74.505209 43.593750 74.296875 C45.052091 75.078129 46.588534 75.690102 48.203125 76.132812 C49.817716 76.575523 51.484366 76.796875 53.203125 76.796875 C56.015639 76.796875 58.658842 76.250005 61.132812 75.156250 C63.606783 74.062495 65.768220 72.565114 67.617188 70.664062 C69.466155 68.763011 70.924474 66.536471 71.992188 63.984375 C73.059901 61.432279 73.593750 58.723973 73.593750 55.859375 C73.593750 54.140616 73.411460 52.500008 73.046875 50.937500 C72.682290 49.374992 72.161462 47.890632 71.484375 46.484375 Z M55.156250 56.015625 C54.374996 57.213548 53.385423 58.281245 52.187500 59.218750 C50.989577 60.156255 49.609383 60.963538 48.046875 61.640625 C46.536451 62.265628 44.856780 62.747394 43.007812 63.085938 C41.158845 63.424481 39.192719 63.593750 37.109375 63.593750 C34.557279 63.593750 32.239594 63.372398 30.156250 62.929688 C28.072906 62.486977 26.197925 61.796880 24.531250 60.859375 C23.333327 60.234372 22.252609 59.479171 21.289062 58.593750 C20.325516 57.708329 19.479170 56.718755 18.750000 55.625000 C18.020830 54.479161 17.460939 53.359380 17.070312 52.265625 C16.679686 51.171870 16.484375 50.104172 16.484375 49.062500 C16.484375 48.385413 16.614582 47.773440 16.875000 47.226562 C17.135418 46.679685 17.499998 46.145836 17.968750 45.625000 C18.437502 45.208331 18.984372 44.869793 19.609375 44.609375 C20.234378 44.348957 20.911455 44.218750 21.640625 44.218750 C22.213545 44.218750 22.760414 44.322916 23.281250 44.531250 C23.802086 44.739584 24.270831 45.026040 24.687500 45.390625 C25.104169 45.703127 25.481769 46.119789 25.820312 46.640625 C26.158856 47.161461 26.484373 47.760413 26.796875 48.437500 C27.109377 49.166670 27.434894 49.843747 27.773438 50.468750 C28.111981 51.093753 28.437498 51.640623 28.750000 52.109375 C29.114585 52.578127 29.544268 53.007811 30.039062 53.398438 C30.533857 53.789064 31.093747 54.140623 31.718750 54.453125 C32.343753 54.765627 33.085933 54.999999 33.945312 55.156250 C34.804692 55.312501 35.755203 55.390625 36.796875 55.390625 C38.255216 55.390625 39.583327 55.234377 40.781250 54.921875 C41.979173 54.609373 43.020829 54.140628 43.906250 53.515625 C44.791671 52.890622 45.442706 52.213545 45.859375 51.484375 C46.276044 50.755205 46.484375 49.921880 46.484375 48.984375 C46.484375 48.307288 46.380209 47.682295 46.171875 47.109375 C45.963541 46.536455 45.625002 46.015627 45.156250 45.546875 C44.687498 45.130206 44.140628 44.739585 43.515625 44.375000 C42.890622 44.010415 42.187504 43.697918 41.406250 43.437500 C40.624996 43.177082 39.687505 42.916668 38.593750 42.656250 C37.499995 42.395832 36.276048 42.109377 34.921875 41.796875 C33.098949 41.432290 31.419279 41.002607 29.882812 40.507812 C28.346346 40.013018 26.979173 39.505211 25.781250 38.984375 C24.479160 38.411455 23.333338 37.747400 22.343750 36.992188 C21.354162 36.236975 20.468754 35.390630 19.687500 34.453125 C18.958330 33.463537 18.398439 32.369798 18.007812 31.171875 C17.617186 29.973952 17.421875 28.645841 17.421875 27.187500 C17.421875 25.833327 17.630206 24.544277 18.046875 23.320312 C18.463544 22.096348 19.062496 20.963547 19.843750 19.921875 C20.625004 18.880203 21.588536 17.942712 22.734375 17.109375 C23.880214 16.276038 25.182284 15.572920 26.640625 15.000000 C28.098966 14.479164 29.687491 14.075522 31.406250 13.789062 C33.125009 13.502603 34.973948 13.359375 36.953125 13.359375 C38.515633 13.359375 39.986972 13.450520 41.367188 13.632812 C42.747403 13.815105 44.010411 14.088540 45.156250 14.453125 C46.302089 14.817710 47.356766 15.247393 48.320312 15.742188 C49.283859 16.236982 50.156246 16.796872 50.937500 17.421875 C51.718754 18.046878 52.395830 18.697913 52.968750 19.375000 C53.541670 20.052087 54.010415 20.729163 54.375000 21.406250 C54.739585 22.083337 55.013020 22.773434 55.195312 23.476562 C55.377605 24.179691 55.468750 24.869788 55.468750 25.546875 C55.468750 26.171878 55.351564 26.770830 55.117188 27.343750 C54.882811 27.916670 54.505211 28.463539 53.984375 28.984375 C53.515623 29.505211 52.981774 29.895832 52.382812 30.156250 C51.783851 30.416668 51.119795 30.546875 50.390625 30.546875 C49.765622 30.546875 49.192711 30.468751 48.671875 30.312500 C48.151039 30.156249 47.734377 29.921877 47.421875 29.609375 C47.057290 29.296873 46.705731 28.906252 46.367188 28.437500 C46.028644 27.968748 45.677085 27.395837 45.312500 26.718750 C44.843748 25.833329 44.348961 25.065107 43.828125 24.414062 C43.307289 23.763018 42.734378 23.203127 42.109375 22.734375 C41.536455 22.265623 40.755213 21.914064 39.765625 21.679688 C38.776037 21.445311 37.604173 21.328125 36.250000 21.328125 C34.999994 21.328125 33.867193 21.458332 32.851562 21.718750 C31.835932 21.979168 30.963545 22.343748 30.234375 22.812500 C29.453121 23.333336 28.893231 23.880205 28.554688 24.453125 C28.216144 25.026045 28.046875 25.651038 28.046875 26.328125 C28.046875 26.744794 28.098958 27.122394 28.203125 27.460938 C28.307292 27.799481 28.489582 28.124998 28.750000 28.437500 C28.958334 28.750002 29.244790 29.036457 29.609375 29.296875 C29.973960 29.557293 30.364581 29.817707 30.781250 30.078125 C31.250002 30.286459 31.718748 30.481770 32.187500 30.664062 C32.656252 30.846355 33.151039 31.015624 33.671875 31.171875 C34.140627 31.328126 34.778642 31.510416 35.585938 31.718750 C36.393233 31.927084 37.369786 32.161457 38.515625 32.421875 C39.921882 32.734377 41.276035 33.059894 42.578125 33.398438 C43.880215 33.736981 45.104161 34.088540 46.250000 34.453125 C47.447923 34.869794 48.541662 35.312498 49.531250 35.781250 C50.520838 36.250002 51.432288 36.770830 52.265625 37.343750 C53.098962 37.864586 53.854163 38.489580 54.531250 39.218750 C55.208337 39.947920 55.781248 40.755204 56.250000 41.640625 C56.718752 42.473962 57.070311 43.424474 57.304688 44.492188 C57.539064 45.559901 57.656250 46.718744 57.656250 47.968750 C57.656250 49.479174 57.447919 50.898431 57.031250 52.226562 C56.614581 53.554694 55.989587 54.817702 55.156250 56.015625 Z M76.796875 74.375000" style="fill:black"/>
</svg>