<svg style="" width="70.468750" height="70.390625" version="1.1" xmlns="http://www.w3.org/2000/svg">
<path d="M35.234375 -0.000000 C30.390601 -0.000000 25.833355 0.911449 21.562500 2.734375 C17.291645 4.557301 13.554704 7.070296 10.351562 10.273438 C7.148421 13.476579 4.622405 17.213520 2.773438 21.484375 C0.924470 25.755230 0.000000 30.312476 0.000000 35.156250 C0.000000 40.000024 0.924470 44.570291 2.773438 48.867188 C4.622405 53.164084 7.148421 56.901026 10.351562 60.078125 C13.554704 63.255224 17.291645 65.768220 21.562500 67.617188 C25.833355 69.466155 30.390601 70.390625 35.234375 70.390625 C40.078149 70.390625 44.635395 69.466155 48.906250 67.617188 C53.177105 65.768220 56.914046 63.255224 60.117188 60.078125 C63.320329 56.901026 65.846345 53.177105 67.695312 48.906250 C69.544280 44.635395 70.468750 40.052108 70.468750 35.156250 C70.468750 30.312476 69.544280 25.755230 67.695312 21.484375 C65.846345 17.213520 63.320329 13.476579 60.117188 10.273438 C56.914046 7.070296 53.177105 4.557301 48.906250 2.734375 C44.635395 0.911449 40.078149 -0.000000 35.234375 -0.000000 Z M49.140625 53.203125 C48.776040 53.203125 48.463543 53.138021 48.203125 53.007812 C47.942707 52.877604 47.708334 52.734376 47.500000 52.578125 C45.104155 51.171868 42.460952 50.091150 39.570312 49.335938 C36.679673 48.580725 33.645849 48.203125 30.468750 48.203125 C28.802075 48.203125 27.096363 48.294270 25.351562 48.476562 C23.606762 48.658855 21.822926 48.958331 20.000000 49.375000 L19.531250 49.453125 C19.322916 49.505209 19.101564 49.557291 18.867188 49.609375 C18.632811 49.661459 18.411459 49.687500 18.203125 49.687500 C17.473955 49.687500 16.861982 49.440107 16.367188 48.945312 C15.872393 48.450518 15.625000 47.838545 15.625000 47.109375 C15.625000 46.328121 15.820311 45.690107 16.210938 45.195312 C16.601564 44.700518 17.135413 44.401042 17.812500 44.296875 C20.000011 43.776039 22.135406 43.398439 24.218750 43.164062 C26.302094 42.929686 28.385406 42.812500 30.468750 42.812500 C34.166685 42.812500 37.669254 43.229163 40.976562 44.062500 C44.283871 44.895837 47.343736 46.171866 50.156250 47.890625 C50.677086 48.151043 51.080728 48.476561 51.367188 48.867188 C51.653647 49.257814 51.796875 49.817705 51.796875 50.546875 C51.744791 51.276045 51.471357 51.901039 50.976562 52.421875 C50.481768 52.942711 49.869795 53.203125 49.140625 53.203125 Z M52.812500 42.968750 C52.395831 42.968750 52.044272 42.903646 51.757812 42.773438 C51.471353 42.643229 51.197918 42.500001 50.937500 42.343750 C48.802073 41.093744 46.432305 40.039067 43.828125 39.179688 C41.223945 38.320308 38.528660 37.721356 35.742188 37.382812 C32.955715 37.044269 30.143243 36.953124 27.304688 37.109375 C24.466132 37.265626 21.744805 37.682288 19.140625 38.359375 C19.036458 38.411459 18.945313 38.450521 18.867188 38.476562 C18.789062 38.502604 18.697917 38.515625 18.593750 38.515625 C18.437499 38.567709 18.255209 38.619791 18.046875 38.671875 C17.838541 38.723959 17.604168 38.750000 17.343750 38.750000 C16.458329 38.750000 15.716149 38.450524 15.117188 37.851562 C14.518226 37.252601 14.218750 36.510421 14.218750 35.625000 C14.218750 34.791663 14.427081 34.088545 14.843750 33.515625 C15.260419 32.942705 15.859371 32.552084 16.640625 32.343750 C18.671885 31.770830 20.716136 31.315106 22.773438 30.976562 C24.830739 30.638019 27.239570 30.468750 30.000000 30.468750 C32.187511 30.468750 34.361968 30.598957 36.523438 30.859375 C38.684907 31.119793 40.794261 31.523435 42.851562 32.070312 C44.908864 32.617190 46.888011 33.281246 48.789062 34.062500 C50.690114 34.843754 52.473950 35.729162 54.140625 36.718750 C54.765628 37.083335 55.221353 37.513018 55.507812 38.007812 C55.794272 38.502607 55.937500 39.088538 55.937500 39.765625 C55.937500 40.651046 55.625003 41.406247 55.000000 42.031250 C54.374997 42.656253 53.645837 42.968750 52.812500 42.968750 Z M56.953125 31.250000 C56.536456 31.250000 56.184897 31.197917 55.898438 31.093750 C55.611978 30.989583 55.312502 30.859376 55.000000 30.703125 C53.541659 29.817704 51.888030 29.036462 50.039062 28.359375 C48.190095 27.682288 46.223969 27.096357 44.140625 26.601562 C42.057281 26.106768 39.882824 25.729168 37.617188 25.468750 C35.351551 25.208332 33.046887 25.078125 30.703125 25.078125 C28.255196 25.078125 25.924490 25.221353 23.710938 25.507812 C21.497385 25.794272 19.427093 26.197914 17.500000 26.718750 C17.395833 26.718750 17.317709 26.731771 17.265625 26.757812 C17.213541 26.783854 17.135417 26.796875 17.031250 26.796875 C16.874999 26.848959 16.666668 26.914062 16.406250 26.992188 C16.145832 27.070313 15.885418 27.109375 15.625000 27.109375 C14.583328 27.109375 13.710941 26.744795 13.007812 26.015625 C12.304684 25.286455 11.953125 24.401047 11.953125 23.359375 C11.953125 22.473954 12.187498 21.705732 12.656250 21.054688 C13.125002 20.403643 13.802079 19.947918 14.687500 19.687500 C17.031262 18.958330 19.544257 18.424481 22.226562 18.085938 C24.908868 17.747394 27.734360 17.578125 30.703125 17.578125 C33.359388 17.578125 35.976550 17.721353 38.554688 18.007812 C41.132825 18.294272 43.619780 18.723955 46.015625 19.296875 C48.411470 19.869795 50.677073 20.559892 52.812500 21.367188 C54.947927 22.174483 56.901033 23.098953 58.671875 24.140625 C59.296878 24.505210 59.778644 24.973955 60.117188 25.546875 C60.455731 26.119795 60.625000 26.796871 60.625000 27.578125 C60.625000 28.619797 60.273441 29.492184 59.570312 30.195312 C58.867184 30.898441 57.994797 31.250000 56.953125 31.250000 Z M75.234375 71.171875" style="fill:black"/>
</svg>