<svg style="" width="64.062500" height="63.984375" version="1.1" xmlns="http://www.w3.org/2000/svg">
<path d="M56.015625 -0.000000 L8.046875 -0.000000 C5.859364 -0.000000 3.971362 0.781242 2.382812 2.343750 C0.794263 3.906258 0.000000 5.781239 0.000000 7.968750 L0.000000 55.937500 C0.000000 58.177095 0.794263 60.078117 2.382812 61.640625 C3.971362 63.203133 5.859364 63.984375 8.046875 63.984375 L56.015625 63.984375 C58.203136 63.984375 60.091138 63.203133 61.679688 61.640625 C63.268237 60.078117 64.062500 58.177095 64.062500 55.937500 L64.062500 7.968750 C64.062500 5.781239 63.268237 3.906258 61.679688 2.343750 C60.091138 0.781242 58.203136 -0.000000 56.015625 -0.000000 Z M52.031250 35.937500 L36.015625 35.937500 L36.015625 51.953125 L28.046875 51.953125 L28.046875 35.937500 L12.031250 35.937500 L12.031250 27.968750 L28.046875 27.968750 L28.046875 11.953125 L36.015625 11.953125 L36.015625 27.968750 L52.031250 27.968750 Z M72.031250 67.968750" style="fill:black"/>
</svg>