<svg style="" width="73.593750" height="59.843750" version="1.1" xmlns="http://www.w3.org/2000/svg">
<path d="M66.093750 14.921875 C66.093750 15.234377 66.093750 15.559894 66.093750 15.898438 C66.093750 16.236981 66.093750 16.562498 66.093750 16.875000 C66.093750 21.875025 65.156259 26.927058 63.281250 32.031250 C61.406241 37.135442 58.658872 41.744771 55.039062 45.859375 C51.419253 49.973979 46.940131 53.333320 41.601562 55.937500 C36.262994 58.541680 30.104202 59.843750 23.125000 59.843750 C18.854145 59.843750 14.765645 59.244798 10.859375 58.046875 C6.953105 56.848952 3.333350 55.182302 0.000000 53.046875 C0.572920 53.098959 1.158851 53.151041 1.757812 53.203125 C2.356774 53.255209 2.968747 53.281250 3.593750 53.281250 C7.135434 53.281250 10.494776 52.708339 13.671875 51.562500 C16.848974 50.416661 19.739570 48.828135 22.343750 46.796875 C19.062484 46.744791 16.132825 45.742197 13.554688 43.789062 C10.976550 41.835928 9.218755 39.348973 8.281250 36.328125 C8.697919 36.432292 9.153643 36.497396 9.648438 36.523438 C10.143232 36.549479 10.624998 36.562500 11.093750 36.562500 C11.770837 36.562500 12.447913 36.523438 13.125000 36.445312 C13.802087 36.367187 14.453122 36.250001 15.078125 36.093750 C11.640608 35.364580 8.763032 33.619805 6.445312 30.859375 C4.127593 28.098945 2.968750 24.895852 2.968750 21.250000 C2.968750 21.197916 2.968750 21.158854 2.968750 21.132812 C2.968750 21.106771 2.968750 21.093750 2.968750 21.093750 C3.958338 21.614586 5.039057 22.044269 6.210938 22.382812 C7.382818 22.721356 8.567702 22.916666 9.765625 22.968750 C7.734365 21.614577 6.106777 19.830740 4.882812 17.617188 C3.658848 15.403635 3.046875 12.994805 3.046875 10.390625 C3.046875 8.984368 3.229165 7.643236 3.593750 6.367188 C3.958335 5.091139 4.479163 3.906255 5.156250 2.812500 C6.979176 5.104178 9.049468 7.174470 11.367188 9.023438 C13.684907 10.872405 16.158841 12.486972 18.789062 13.867188 C21.419284 15.247403 24.205714 16.341142 27.148438 17.148438 C30.091161 17.955733 33.124984 18.437499 36.250000 18.593750 C36.093749 18.020830 35.989584 17.447920 35.937500 16.875000 C35.885416 16.302080 35.859375 15.729170 35.859375 15.156250 C35.859375 13.072906 36.249996 11.106780 37.031250 9.257812 C37.812504 7.408845 38.893222 5.807298 40.273438 4.453125 C41.653653 3.098952 43.255199 2.018233 45.078125 1.210938 C46.901051 0.403642 48.854156 -0.000000 50.937500 -0.000000 C53.125011 -0.000000 55.169261 0.429683 57.070312 1.289062 C58.971364 2.148442 60.598952 3.307284 61.953125 4.765625 C63.671884 4.453123 65.338534 3.984378 66.953125 3.359375 C68.567716 2.734372 70.104159 2.005212 71.562500 1.171875 C70.989580 2.890634 70.130214 4.466139 68.984375 5.898438 C67.838536 7.330736 66.484383 8.515620 64.921875 9.453125 C66.432299 9.296874 67.916659 9.023439 69.375000 8.632812 C70.833341 8.242186 72.239577 7.734378 73.593750 7.109375 C72.604162 8.619799 71.471361 10.039056 70.195312 11.367188 C68.919264 12.695319 67.552091 13.880203 66.093750 14.921875 Z M76.796875 65.937500" style="fill:black"/>
</svg>