<svg style="" width="72.031250" height="72.031250" version="1.1" xmlns="http://www.w3.org/2000/svg">
<path d="M72.031250 64.062500 L72.031250 8.046875 C72.031250 5.859364 71.236987 3.971362 69.648438 2.382812 C68.059888 0.794263 66.171886 -0.000000 63.984375 -0.000000 L8.046875 -0.000000 C5.755197 -0.000000 3.841154 0.768221 2.304688 2.304688 C0.768221 3.841154 0.000000 5.755197 0.000000 8.046875 L0.000000 64.062500 C0.000000 66.354178 0.768221 68.255201 2.304688 69.765625 C3.841154 71.276049 5.755197 72.031250 8.046875 72.031250 L63.984375 72.031250 C66.171886 72.031250 68.059888 71.250008 69.648438 69.687500 C71.236987 68.124992 72.031250 66.250011 72.031250 64.062500 Z M56.718750 42.421875 C56.718750 42.421875 57.526034 43.255200 59.140625 44.921875 C60.755216 46.588550 61.848955 47.942703 62.421875 48.984375 C62.421875 49.036459 62.421875 49.062500 62.421875 49.062500 C62.682293 49.479169 62.838541 49.830728 62.890625 50.117188 C62.942709 50.403647 62.916667 50.677082 62.812500 50.937500 C62.604166 51.302085 62.252607 51.575520 61.757812 51.757812 C61.263018 51.940105 60.911459 52.031250 60.703125 52.031250 C60.703125 52.031250 59.401055 52.031250 56.796875 52.031250 C54.192695 52.031250 52.838542 52.031250 52.734375 52.031250 C52.421873 52.031250 51.992190 51.966146 51.445312 51.835938 C50.898435 51.705729 50.286462 51.406252 49.609375 50.937500 C49.036455 50.520831 48.489586 50.026045 47.968750 49.453125 C47.447914 48.880205 46.927086 48.307295 46.406250 47.734375 C45.624996 46.796870 44.882816 46.002607 44.179688 45.351562 C43.476559 44.700518 42.786462 44.375000 42.109375 44.375000 C42.057291 44.375000 41.979167 44.375000 41.875000 44.375000 C41.770833 44.375000 41.692709 44.401041 41.640625 44.453125 C41.119789 44.609376 40.598961 45.104163 40.078125 45.937500 C39.557289 46.770837 39.296875 48.177073 39.296875 50.156250 C39.296875 50.729170 39.114585 51.184894 38.750000 51.523438 C38.385415 51.861981 38.020835 52.031250 37.656250 52.031250 C37.656250 52.031250 37.070318 52.031250 35.898438 52.031250 C34.726557 52.031250 34.088542 52.031250 33.984375 52.031250 C33.359372 52.031250 31.679701 51.705732 28.945312 51.054688 C26.210924 50.403643 23.385431 48.567723 20.468750 45.546875 C18.697908 43.671866 17.005216 41.458346 15.390625 38.906250 C13.776034 36.354154 12.356777 33.906262 11.132812 31.562500 C9.908848 29.218738 8.919275 27.213550 8.164062 25.546875 C7.408850 23.880200 7.031250 23.046875 7.031250 23.046875 C6.822916 22.526039 6.874998 22.148439 7.187500 21.914062 C7.500002 21.679686 7.890623 21.562500 8.359375 21.562500 L16.406250 21.562500 C16.979170 21.562500 17.382811 21.692707 17.617188 21.953125 C17.851564 22.213543 18.020833 22.499998 18.125000 22.812500 C18.281251 23.125002 18.619789 23.880202 19.140625 25.078125 C19.661461 26.276048 20.338538 27.630201 21.171875 29.140625 C22.578132 31.640637 23.749995 33.424474 24.687500 34.492188 C25.625005 35.559901 26.432288 36.093750 27.109375 36.093750 C27.213542 36.093750 27.330729 36.080729 27.460938 36.054688 C27.591146 36.028646 27.708333 35.989584 27.812500 35.937500 C28.750005 35.416664 29.231771 33.984387 29.257812 31.640625 C29.283854 29.296863 29.270834 27.812503 29.218750 27.187500 C29.218750 27.031249 29.179688 26.458338 29.101562 25.468750 C29.023437 24.479162 28.750002 23.671878 28.281250 23.046875 C27.968748 22.578123 27.565107 22.239584 27.070312 22.031250 C26.575518 21.822916 26.171877 21.692709 25.859375 21.640625 C25.911459 21.484374 26.041666 21.328126 26.250000 21.171875 C26.458334 21.015624 26.666666 20.859376 26.875000 20.703125 C27.500003 20.390623 28.333328 20.195313 29.375000 20.117188 C30.416672 20.039062 31.484370 20.000000 32.578125 20.000000 L33.828125 20.000000 C35.026048 20.052084 35.859373 20.117187 36.328125 20.195312 C36.796877 20.273438 37.265623 20.364583 37.734375 20.468750 C38.619796 20.677084 39.127604 21.145830 39.257812 21.875000 C39.388021 22.604170 39.427084 23.932282 39.375000 25.859375 C39.322916 26.432295 39.283854 27.031247 39.257812 27.656250 C39.231771 28.281253 39.218750 28.958330 39.218750 29.687500 C39.218750 29.843751 39.218750 30.013020 39.218750 30.195312 C39.218750 30.377605 39.218750 30.546874 39.218750 30.703125 C39.218750 31.692713 39.257812 32.682287 39.335938 33.671875 C39.414063 34.661463 39.817705 35.390623 40.546875 35.859375 C40.598959 35.911459 40.677083 35.950521 40.781250 35.976562 C40.885417 36.002604 40.989583 36.015625 41.093750 36.015625 C41.354168 36.015625 41.914058 35.742190 42.773438 35.195312 C43.632817 34.648435 45.052073 32.682309 47.031250 29.296875 C47.916671 27.786451 48.658851 26.302091 49.257812 24.843750 C49.856774 23.385409 50.182291 22.604167 50.234375 22.500000 C50.234375 22.395833 50.299479 22.265626 50.429688 22.109375 C50.559896 21.953124 50.677083 21.822917 50.781250 21.718750 C50.885417 21.666666 51.002604 21.627604 51.132812 21.601562 C51.263021 21.575521 51.380208 21.562500 51.484375 21.562500 L60.937500 21.562500 C61.458336 21.562500 61.888019 21.601562 62.226562 21.679688 C62.565106 21.757813 62.760416 21.901041 62.812500 22.109375 C62.916667 22.421877 62.760419 23.177077 62.343750 24.375000 C61.927081 25.572923 60.625011 27.630194 58.437500 30.546875 C58.072915 31.067711 57.734377 31.536456 57.421875 31.953125 C57.109373 32.369794 56.796877 32.760415 56.484375 33.125000 C54.557282 35.729180 53.593750 37.447913 53.593750 38.281250 C53.593750 39.114587 54.635406 40.494782 56.718750 42.421875 Z M76.015625 72.031250" style="fill:black"/>
</svg>