<svg style="" width="76.875000" height="76.796875" version="1.1" xmlns="http://www.w3.org/2000/svg">
<path d="M38.437500 -0.000000 C33.124973 -0.000000 28.138044 1.002594 23.476562 3.007812 C18.815081 5.013031 14.752621 7.747379 11.289062 11.210938 C7.825504 14.674496 5.078135 18.736956 3.046875 23.398438 C1.015615 28.059919 0.000000 33.046848 0.000000 38.359375 C0.000000 43.671902 1.015615 48.658831 3.046875 53.320312 C5.078135 57.981794 7.825504 62.044254 11.289062 65.507812 C14.752621 68.971371 18.815081 71.718740 23.476562 73.750000 C28.138044 75.781260 33.124973 76.796875 38.437500 76.796875 C43.750027 76.796875 48.736956 75.781260 53.398438 73.750000 C58.059919 71.718740 62.122379 68.971371 65.585938 65.507812 C69.049496 62.044254 71.796865 57.981794 73.828125 53.320312 C75.859385 48.658831 76.875000 43.671902 76.875000 38.359375 C76.875000 33.046848 75.859385 28.059919 73.828125 23.398438 C71.796865 18.736956 69.049496 14.674496 65.585938 11.210938 C62.122379 7.747379 58.059919 5.013031 53.398438 3.007812 C48.736956 1.002594 43.750027 -0.000000 38.437500 -0.000000 Z M53.203125 43.281250 C53.203125 43.281250 53.802077 43.906244 55.000000 45.156250 C56.197923 46.406256 57.005206 47.421871 57.421875 48.203125 C57.421875 48.203125 57.434896 48.216146 57.460938 48.242188 C57.486979 48.268229 57.500000 48.281250 57.500000 48.281250 C57.656251 48.593752 57.760416 48.854166 57.812500 49.062500 C57.864584 49.270834 57.838542 49.453124 57.734375 49.609375 C57.578124 49.921877 57.317710 50.143229 56.953125 50.273438 C56.588540 50.403646 56.328126 50.468750 56.171875 50.468750 C56.171875 50.468750 55.195322 50.468750 53.242188 50.468750 C51.289053 50.468750 50.260417 50.468750 50.156250 50.468750 C49.947916 50.468750 49.635419 50.416667 49.218750 50.312500 C48.802081 50.208333 48.333336 49.973960 47.812500 49.609375 C47.395831 49.348957 46.992189 48.997398 46.601562 48.554688 C46.210936 48.111977 45.807294 47.682294 45.390625 47.265625 C44.817705 46.588538 44.270836 45.989586 43.750000 45.468750 C43.229164 44.947914 42.734377 44.687500 42.265625 44.687500 C42.161458 44.687500 42.083334 44.700521 42.031250 44.726562 C41.979166 44.752604 41.927084 44.765625 41.875000 44.765625 C41.458331 44.921876 41.054689 45.312497 40.664062 45.937500 C40.273436 46.562503 40.078125 47.604159 40.078125 49.062500 C40.078125 49.531252 39.947918 49.882811 39.687500 50.117188 C39.427082 50.351564 39.166668 50.468750 38.906250 50.468750 C38.906250 50.468750 38.463546 50.468750 37.578125 50.468750 C36.692704 50.468750 36.223959 50.468750 36.171875 50.468750 C35.703123 50.468750 34.427094 50.221357 32.343750 49.726562 C30.260406 49.231768 28.151052 47.864595 26.015625 45.625000 C24.661452 44.218743 23.385423 42.552093 22.187500 40.625000 C20.989577 38.697907 19.921880 36.861988 18.984375 35.117188 C18.046870 33.372387 17.304690 31.875006 16.757812 30.625000 C16.210935 29.374994 15.937500 28.750000 15.937500 28.750000 C15.781249 28.385415 15.820311 28.098959 16.054688 27.890625 C16.289064 27.682291 16.562498 27.578125 16.875000 27.578125 L22.968750 27.578125 C23.385419 27.578125 23.671874 27.682291 23.828125 27.890625 C23.984376 28.098959 24.114583 28.307291 24.218750 28.515625 C24.322917 28.776043 24.570311 29.361975 24.960938 30.273438 C25.351564 31.184900 25.885413 32.213536 26.562500 33.359375 C27.604172 35.182301 28.463538 36.497392 29.140625 37.304688 C29.817712 38.111983 30.416664 38.515625 30.937500 38.515625 C31.041667 38.515625 31.145833 38.502604 31.250000 38.476562 C31.354167 38.450521 31.458333 38.437500 31.562500 38.437500 C32.239587 38.020831 32.578125 36.940113 32.578125 35.195312 C32.578125 33.450512 32.578125 32.317711 32.578125 31.796875 C32.578125 31.744791 32.552084 31.341150 32.500000 30.585938 C32.447916 29.830725 32.239585 29.218752 31.875000 28.750000 C31.614582 28.385415 31.302085 28.125001 30.937500 27.968750 C30.572915 27.812499 30.260418 27.708334 30.000000 27.656250 C30.052084 27.604166 30.156249 27.500001 30.312500 27.343750 C30.468751 27.187499 30.624999 27.083334 30.781250 27.031250 C31.250002 26.770832 31.874996 26.614584 32.656250 26.562500 C33.437504 26.510416 34.244788 26.484375 35.078125 26.484375 L36.015625 26.484375 C36.901046 26.484375 37.526040 26.510416 37.890625 26.562500 C38.255210 26.614584 38.593748 26.692708 38.906250 26.796875 C39.583337 26.953126 39.973958 27.304685 40.078125 27.851562 C40.182292 28.398440 40.208334 29.401034 40.156250 30.859375 C40.156250 31.276044 40.143229 31.718748 40.117188 32.187500 C40.091146 32.656252 40.078125 33.177080 40.078125 33.750000 C40.078125 33.854167 40.078125 33.971354 40.078125 34.101562 C40.078125 34.231771 40.078125 34.374999 40.078125 34.531250 C40.026041 35.260420 40.039062 35.989580 40.117188 36.718750 C40.195313 37.447920 40.494789 37.994790 41.015625 38.359375 C41.067709 38.411459 41.132812 38.450521 41.210938 38.476562 C41.289063 38.502604 41.380208 38.515625 41.484375 38.515625 C41.640626 38.515625 42.044268 38.294273 42.695312 37.851562 C43.346357 37.408852 44.427076 35.937512 45.937500 33.437500 C46.562503 32.291661 47.096352 31.171880 47.539062 30.078125 C47.981773 28.984370 48.229166 28.385417 48.281250 28.281250 C48.333334 28.229166 48.398437 28.151042 48.476562 28.046875 C48.554688 27.942708 48.645833 27.838542 48.750000 27.734375 C48.802084 27.682291 48.880208 27.656250 48.984375 27.656250 C49.088542 27.656250 49.166666 27.656250 49.218750 27.656250 L56.328125 27.656250 C56.744794 27.656250 57.070311 27.682291 57.304688 27.734375 C57.539064 27.786459 57.682291 27.890624 57.734375 28.046875 C57.838542 28.307293 57.721356 28.880204 57.382812 29.765625 C57.044269 30.651046 56.067716 32.187489 54.453125 34.375000 C54.192707 34.739585 53.945314 35.078123 53.710938 35.390625 C53.476561 35.703127 53.255209 36.015623 53.046875 36.328125 C51.536451 38.255218 50.794271 39.531247 50.820312 40.156250 C50.846354 40.781253 51.640617 41.822909 53.203125 43.281250 Z M78.437500 74.375000" style="fill:black"/>
</svg>