<svg style="" width="76.875000" height="76.796875" version="1.1" xmlns="http://www.w3.org/2000/svg">
<path d="M44.843750 37.734375 L35.859375 33.515625 C35.494790 33.307291 35.169272 33.294270 34.882812 33.476562 C34.596353 33.658855 34.453125 33.984373 34.453125 34.453125 L34.453125 42.343750 C34.453125 42.760419 34.596353 43.059895 34.882812 43.242188 C35.169272 43.424480 35.494790 43.411459 35.859375 43.203125 L44.843750 39.062500 C45.260419 38.854166 45.468750 38.619793 45.468750 38.359375 C45.468750 38.098957 45.260419 37.890626 44.843750 37.734375 Z M38.437500 -0.000000 C33.124973 -0.000000 28.138044 1.002594 23.476562 3.007812 C18.815081 5.013031 14.752621 7.747379 11.289062 11.210938 C7.825504 14.674496 5.078135 18.736956 3.046875 23.398438 C1.015615 28.059919 0.000000 33.046848 0.000000 38.359375 C0.000000 43.671902 1.015615 48.658831 3.046875 53.320312 C5.078135 57.981794 7.825504 62.044254 11.289062 65.507812 C14.752621 68.971371 18.815081 71.718740 23.476562 73.750000 C28.138044 75.781260 33.124973 76.796875 38.437500 76.796875 C43.750027 76.796875 48.736956 75.781260 53.398438 73.750000 C58.059919 71.718740 62.122379 68.971371 65.585938 65.507812 C69.049496 62.044254 71.796865 57.981794 73.828125 53.320312 C75.859385 48.658831 76.875000 43.671902 76.875000 38.359375 C76.875000 33.046848 75.859385 28.059919 73.828125 23.398438 C71.796865 18.736956 69.049496 14.674496 65.585938 11.210938 C62.122379 7.747379 58.059919 5.013031 53.398438 3.007812 C48.736956 1.002594 43.750027 -0.000000 38.437500 -0.000000 Z M38.437500 53.984375 C28.593701 53.984375 22.799488 53.111988 21.054688 51.367188 C19.309887 49.622387 18.437500 45.286493 18.437500 38.359375 C18.437500 31.432257 19.309887 27.109384 21.054688 25.390625 C22.799488 23.671866 28.593701 22.812500 38.437500 22.812500 C48.281299 22.812500 54.075512 23.671866 55.820312 25.390625 C57.565113 27.109384 58.437500 31.432257 58.437500 38.359375 C58.437500 45.286493 57.565113 49.622387 55.820312 51.367188 C54.075512 53.111988 48.281299 53.984375 38.437500 53.984375 Z M78.437500 74.375000" style="fill:black"/>
</svg>