<svg viewBox="0 0 74 78" version="1.1" xmlns="http://www.w3.org/2000/svg">
<path d="M19.222561 78.401445 C16.618381 78.401445 14.144448 77.880617 11.800686 76.838945 C9.456924 75.797273 7.425695 74.391037 5.706936 72.620195 C3.988177 70.901436 2.621004 68.909269 1.605374 66.643632 C0.589743 64.377996 0.055895 61.982187 0.003811 59.456132 C-0.048273 56.930078 0.433493 54.351979 1.449124 51.721757 C2.464754 49.091536 4.170466 46.578540 6.566311 44.182695 C7.920484 42.776438 10.199108 40.458753 13.402249 37.229570 C16.605390 34.000387 20.120979 30.445735 23.949124 26.565507 C27.777268 22.685280 31.631396 18.779069 35.511624 14.846757 C39.391851 10.914446 42.738172 7.542084 45.550686 4.729570 C47.529863 2.698310 49.717341 1.318115 52.113186 0.588945 C54.509031 -0.140225 56.904841 -0.192308 59.300686 0.432695 C61.696531 1.109782 63.779844 2.346748 65.550686 4.143632 C67.321528 5.940516 68.545474 8.036850 69.222561 10.432695 C69.847564 12.880624 69.795481 15.328516 69.066311 17.776445 C68.337141 20.224374 66.982988 22.437893 65.003811 24.417070 L27.738186 62.151445 C26.644431 63.245200 25.511629 64.104567 24.339749 64.729570 C23.167868 65.354573 21.982984 65.745194 20.785061 65.901445 C19.587138 66.005612 18.441317 65.875405 17.347561 65.510820 C16.253806 65.146235 15.290274 64.547282 14.456936 63.713945 C13.050679 62.255604 12.347561 60.276457 12.347561 57.776445 C12.347561 55.276432 13.571507 52.802499 16.019436 50.354570 L42.191311 23.870195 C42.712147 23.297275 43.350161 23.010820 44.105374 23.010820 C44.860586 23.010820 45.524642 23.297275 46.097561 23.870195 C46.618397 24.391031 46.878811 25.042066 46.878811 25.823320 C46.878811 26.604574 46.618397 27.255609 46.097561 27.776445 L19.847561 54.338945 C18.753806 55.484784 18.115791 56.552482 17.933499 57.542070 C17.751206 58.531658 17.894434 59.286859 18.363186 59.807695 C18.571520 60.016029 18.831934 60.159257 19.144436 60.237382 C19.456938 60.315508 19.795476 60.354570 20.160061 60.354570 C20.732981 60.250403 21.331933 60.029051 21.956936 59.690507 C22.581939 59.351964 23.206933 58.870198 23.831936 58.245195 L61.097561 20.510820 C62.399651 19.208730 63.285059 17.815515 63.753811 16.331132 C64.222563 14.846750 64.248605 13.375410 63.831936 11.917070 C63.467351 10.458729 62.738192 9.182700 61.644436 8.088945 C60.550681 6.995189 59.300693 6.239989 57.894436 5.823320 C56.436095 5.458735 54.977777 5.510817 53.519436 5.979570 C52.061095 6.448322 50.680901 7.333730 49.378811 8.635820 C46.618381 11.448334 43.298101 14.820696 39.417874 18.753007 C35.537646 22.685319 31.683518 26.591530 27.855374 30.471757 C24.027229 34.351985 20.511640 37.906637 17.308499 41.135820 C14.105358 44.365003 11.800693 46.682688 10.394436 48.088945 C6.800668 51.786880 5.186101 55.549863 5.550686 59.378007 C5.915271 63.206151 7.269424 66.318100 9.613186 68.713945 C11.956948 71.057707 15.016813 72.424880 18.792874 72.815507 C22.568934 73.206134 26.279834 71.552505 29.925686 67.854570 L68.910061 28.401445 C69.430897 27.828525 70.068911 27.542070 70.824124 27.542070 C71.579336 27.542070 72.243392 27.828525 72.816311 28.401445 C73.337147 28.922281 73.597561 29.573316 73.597561 30.354570 C73.597561 31.135824 73.337147 31.786859 72.816311 32.307695 L33.831936 71.760820 C31.488174 74.104582 29.066324 75.797273 26.566311 76.838945 C24.066299 77.880617 21.618406 78.401445 19.222561 78.401445 Z M76.800686 75.198320" style="fill:black"/>
</svg>
