<svg viewBox="0 0 46.484375 27.265625" version="1.1" xmlns="http://www.w3.org/2000/svg">
<path d="M45.118371 25.859375 C44.232950 26.744796 43.230356 27.200521 42.110559 27.226562 C40.990761 27.252604 39.884002 26.796880 38.790246 25.859375 L23.165246 10.859375 L7.540246 25.859375 C6.446491 26.796880 5.339731 27.252604 4.219934 27.226562 C3.100136 27.200521 2.097542 26.744796 1.212121 25.859375 C0.378784 24.973954 -0.024858 23.880215 0.001184 22.578125 C0.027226 21.276035 0.430867 20.208337 1.212121 19.375000 C1.628790 18.958331 2.839715 17.786468 4.844934 15.859375 C6.850152 13.932282 8.972527 11.901052 11.212121 9.765625 C13.451716 7.630198 15.482945 5.703134 17.305871 3.984375 C19.128797 2.265616 20.040246 1.406250 20.040246 1.406250 C20.456915 0.937498 20.938681 0.585939 21.485559 0.351562 C22.032436 0.117186 22.592327 -0.000000 23.165246 -0.000000 C23.738166 -0.000000 24.298056 0.117186 24.844934 0.351562 C25.391811 0.585939 25.873577 0.937498 26.290246 1.406250 C26.290246 1.406250 27.201695 2.265616 29.024621 3.984375 C30.847547 5.703134 32.878777 7.630198 35.118371 9.765625 C37.357966 11.901052 39.480340 13.932282 41.485559 15.859375 C43.490777 17.786468 44.701702 18.958331 45.118371 19.375000 C45.899625 20.208337 46.316288 21.276035 46.368371 22.578125 C46.420455 23.880215 46.003792 24.973954 45.118371 25.859375 Z M63.165246 52.031250" style="fill:black"/>
</svg>
