<svg viewBox="0 0 67.187500 67.187500" version="1.1" xmlns="http://www.w3.org/2000/svg">
<path d="M33.593750 -0.000000 C28.958310 -0.000000 24.596375 0.885408 20.507812 2.656250 C16.419250 4.427092 12.864598 6.822902 9.843750 9.843750 C6.822902 12.864598 4.427092 16.419250 2.656250 20.507812 C0.885408 24.596375 0.000000 28.958310 0.000000 33.593750 C0.000000 38.229190 0.885408 42.591125 2.656250 46.679688 C4.427092 50.768250 6.822902 54.335922 9.843750 57.382812 C12.864598 60.429703 16.419250 62.825512 20.507812 64.570312 C24.596375 66.315113 28.958310 67.187500 33.593750 67.187500 C38.229190 67.187500 42.591125 66.315113 46.679688 64.570312 C50.768250 62.825512 54.322902 60.429703 57.343750 57.382812 C60.364598 54.335922 62.760408 50.768250 64.531250 46.679688 C66.302092 42.591125 67.187500 38.229190 67.187500 33.593750 C67.187500 28.958310 66.302092 24.596375 64.531250 20.507812 C62.760408 16.419250 60.364598 12.864598 57.343750 9.843750 C54.322902 6.822902 50.768250 4.427092 46.679688 2.656250 C42.591125 0.885408 38.229190 -0.000000 33.593750 -0.000000 Z M53.593750 37.578125 L13.593750 37.578125 L13.593750 29.609375 L53.593750 29.609375 Z M73.593750 69.609375" style="fill:black"/>
</svg>
