<svg viewBox="0 0 76.875000 76.796875" version="1.1" xmlns="http://www.w3.org/2000/svg">
<path d="M38.437500 -0.000000 C33.124973 -0.000000 28.138044 1.002594 23.476562 3.007812 C18.815081 5.013031 14.752621 7.747379 11.289062 11.210938 C7.825504 14.674496 5.078135 18.736956 3.046875 23.398438 C1.015615 28.059919 0.000000 33.046848 0.000000 38.359375 C0.000000 43.671902 1.015615 48.658831 3.046875 53.320312 C5.078135 57.981794 7.825504 62.044254 11.289062 65.507812 C14.752621 68.971371 18.815081 71.718740 23.476562 73.750000 C28.138044 75.781260 33.124973 76.796875 38.437500 76.796875 C43.750027 76.796875 48.736956 75.781260 53.398438 73.750000 C58.059919 71.718740 62.122379 68.971371 65.585938 65.507812 C69.049496 62.044254 71.796865 57.981794 73.828125 53.320312 C75.859385 48.658831 76.875000 43.671902 76.875000 38.359375 C76.875000 33.046848 75.859385 28.059919 73.828125 23.398438 C71.796865 18.736956 69.049496 14.674496 65.585938 11.210938 C62.122379 7.747379 58.059919 5.013031 53.398438 3.007812 C48.736956 1.002594 43.750027 -0.000000 38.437500 -0.000000 Z M38.437500 68.750000 C34.218729 68.750000 30.273456 67.955737 26.601562 66.367188 C22.929669 64.778638 19.713555 62.617201 16.953125 59.882812 C14.192695 57.148424 12.018237 53.932310 10.429688 50.234375 C8.841138 46.536440 8.046875 42.578146 8.046875 38.359375 C8.046875 34.192688 8.841138 30.260435 10.429688 26.562500 C12.018237 22.864565 14.192695 19.635430 16.953125 16.875000 C19.713555 14.114570 22.929669 11.940112 26.601562 10.351562 C30.273456 8.763013 34.218729 7.968750 38.437500 7.968750 C42.656271 7.968750 46.601544 8.763013 50.273438 10.351562 C53.945331 11.940112 57.161445 14.114570 59.921875 16.875000 C62.682305 19.635430 64.856763 22.864565 66.445312 26.562500 C68.033862 30.260435 68.828125 34.192688 68.828125 38.359375 C68.828125 42.578146 68.033862 46.536440 66.445312 50.234375 C64.856763 53.932310 62.682305 57.148424 59.921875 59.882812 C57.161445 62.617201 53.945331 64.778638 50.273438 66.367188 C46.601544 67.955737 42.656271 68.750000 38.437500 68.750000 Z M78.437500 74.375000" style="fill:black"/>
</svg>
