<svg viewBox="0 0 39 42" version="1.1" xmlns="http://www.w3.org/2000/svg">
<path d="M36.250000 40.156250 C35.312495 41.093755 34.179694 41.562500 32.851562 41.562500 C31.523431 41.562500 30.390630 41.093755 29.453125 40.156250 L18.828125 28.046875 L8.203125 40.156250 C7.265620 41.093755 6.132819 41.562500 4.804688 41.562500 C3.476556 41.562500 2.343755 41.093755 1.406250 40.156250 C0.468745 39.218745 0.000000 38.098965 0.000000 36.796875 C0.000000 35.494785 0.468745 34.375005 1.406250 33.437500 L12.500000 20.781250 L1.406250 8.203125 C0.468745 7.265620 0.000000 6.132819 0.000000 4.804688 C0.000000 3.476556 0.468745 2.343755 1.406250 1.406250 C2.343755 0.468745 3.476556 -0.000000 4.804688 -0.000000 C6.132819 -0.000000 7.265620 0.468745 8.203125 1.406250 L18.828125 13.515625 L29.453125 1.406250 C30.390630 0.468745 31.523431 -0.000000 32.851562 -0.000000 C34.179694 -0.000000 35.312495 0.468745 36.250000 1.406250 C37.187505 2.343755 37.656250 3.476556 37.656250 4.804688 C37.656250 6.132819 37.187505 7.265620 36.250000 8.203125 L25.156250 20.781250 L36.250000 33.437500 C37.187505 34.375005 37.656250 35.494785 37.656250 36.796875 C37.656250 38.098965 37.187505 39.218745 36.250000 40.156250 Z M58.828125 56.796875" style="fill:black"/>
</svg>
