<svg viewBox="0 0 75 75" version="1.1" xmlns="http://www.w3.org/2000/svg">
<path d="M63.906250 11.093750 C56.614547 3.697880 47.812552 -0.000000 37.500000 -0.000000 C27.187448 -0.000000 18.359412 3.671838 11.015625 11.015625 C3.671838 18.359412 0.000000 27.187448 0.000000 37.500000 C0.000000 47.812552 3.671838 56.640588 11.015625 63.984375 C18.359412 71.328162 27.187448 75.000000 37.500000 75.000000 C47.812552 75.000000 56.640588 71.328162 63.984375 63.984375 C71.328162 56.640588 75.000000 47.812552 75.000000 37.500000 C75.000000 27.187448 71.302120 18.385453 63.906250 11.093750 Z M54.843750 23.593750 L40.937500 37.656250 L53.281250 51.406250 C54.427089 52.552089 54.427089 53.723952 53.281250 54.921875 C52.135411 56.119798 50.937506 56.093756 49.687500 54.843750 L37.343750 41.093750 L23.593750 54.843750 C22.447911 56.093756 21.302089 56.093756 20.156250 54.843750 C19.635414 54.427081 19.375000 53.854170 19.375000 53.125000 C19.375000 52.395830 19.635414 51.822919 20.156250 51.406250 L34.062500 37.343750 L21.718750 23.593750 C20.572911 22.447911 20.572911 21.276048 21.718750 20.078125 C22.864589 18.880202 24.062494 18.906244 25.312500 20.156250 L37.656250 33.906250 L51.406250 20.156250 C52.552089 18.906244 53.723952 18.880202 54.921875 20.078125 C56.119798 21.276048 56.093756 22.447911 54.843750 23.593750 Z M75.000000 70.000000" style="fill:black"/>
</svg>
