<svg viewBox="0 0 75 75" version="1.1" xmlns="http://www.w3.org/2000/svg">
<path d="M63.906250 11.093750 C56.614547 3.697880 47.812552 -0.000000 37.500000 -0.000000 C27.187448 -0.000000 18.359412 3.671838 11.015625 11.015625 C3.671838 18.359412 0.000000 27.187448 0.000000 37.500000 C0.000000 47.812552 3.671838 56.640588 11.015625 63.984375 C18.359412 71.328162 27.187448 75.000000 37.500000 75.000000 C47.812552 75.000000 56.640588 71.328162 63.984375 63.984375 C71.328162 56.640588 75.000000 47.812552 75.000000 37.500000 C75.000000 27.187448 71.302120 18.385453 63.906250 11.093750 Z M60.468750 60.468750 C54.114552 66.822948 46.458378 70.000000 37.500000 70.000000 C28.541622 70.000000 20.885448 66.822948 14.531250 60.468750 C8.177052 54.114552 5.000000 46.458378 5.000000 37.500000 C5.000000 28.541622 8.177052 20.885448 14.531250 14.531250 C20.885448 8.177052 28.541622 5.000000 37.500000 5.000000 C46.458378 5.000000 54.114552 8.177052 60.468750 14.531250 C66.822948 20.885448 70.000000 28.541622 70.000000 37.500000 C70.000000 46.458378 66.822948 54.114552 60.468750 60.468750 Z M51.406250 20.156250 L37.656250 33.906250 L25.312500 20.156250 C24.062494 18.906244 22.864589 18.880202 21.718750 20.078125 C20.572911 21.276048 20.572911 22.447911 21.718750 23.593750 L34.062500 37.343750 L20.156250 51.406250 C19.010411 52.552089 19.010411 53.723952 20.156250 54.921875 C21.302089 56.119798 22.447911 56.093756 23.593750 54.843750 L37.343750 41.093750 L49.687500 54.843750 C50.937506 56.093756 52.135411 56.119798 53.281250 54.921875 C54.427089 53.723952 54.427089 52.552089 53.281250 51.406250 L40.937500 37.656250 L54.843750 23.593750 C56.093756 22.447911 56.119798 21.276048 54.921875 20.078125 C53.723952 18.880202 52.552089 18.906244 51.406250 20.156250 Z M75.000000 70.000000" style="fill:black"/>
</svg>
