<svg viewBox="0 0 80.000000 51.953125" version="1.1" xmlns="http://www.w3.org/2000/svg">
<path d="M80.000000 33.281250 C80.000000 35.833346 79.492193 38.255197 78.476562 40.546875 C77.460932 42.838553 76.093759 44.830721 74.375000 46.523438 C72.656241 48.216154 70.638032 49.544266 68.320312 50.507812 C66.002593 51.471359 63.515638 51.953125 60.859375 51.953125 L14.453125 51.953125 C10.442688 51.953125 7.031264 50.572930 4.218750 47.812500 C1.406236 45.052070 0.000000 41.718770 0.000000 37.812500 C0.000000 33.906230 1.406236 30.572930 4.218750 27.812500 C7.031264 25.052070 10.442688 23.671875 14.453125 23.671875 C14.765627 23.671875 15.065103 23.684896 15.351562 23.710938 C15.638022 23.736979 15.911457 23.776041 16.171875 23.828125 C16.119791 23.307289 16.067709 22.799482 16.015625 22.304688 C15.963541 21.809893 15.937500 21.302086 15.937500 20.781250 C15.937500 17.916652 16.497390 15.221367 17.617188 12.695312 C18.736985 10.169258 20.260407 7.968759 22.187500 6.093750 C24.114593 4.218741 26.367175 2.734380 28.945312 1.640625 C31.523450 0.546870 34.296860 -0.000000 37.265625 -0.000000 C39.661470 -0.000000 41.940093 0.364580 44.101562 1.093750 C46.263032 1.822920 48.242179 2.851556 50.039062 4.179688 C51.835946 5.507819 53.385410 7.070304 54.687500 8.867188 C55.989590 10.664071 56.979163 12.656239 57.656250 14.843750 C58.177086 14.739583 58.697914 14.661459 59.218750 14.609375 C59.739586 14.557291 60.286455 14.531250 60.859375 14.531250 C63.515638 14.531250 66.002593 15.026037 68.320312 16.015625 C70.638032 17.005213 72.656241 18.346346 74.375000 20.039062 C76.093759 21.731779 77.460932 23.710926 78.476562 25.976562 C79.492193 28.242199 80.000000 30.677070 80.000000 33.281250 Z M80.000000 63.984375" style="fill:black"/>
</svg>
