<svg viewBox="0 0 65.781250 65.625000" version="1.1" xmlns="http://www.w3.org/2000/svg">
<path d="M14.846312 49.687500 C12.606717 47.291655 10.927046 44.583348 9.807249 41.562500 C8.687452 38.541652 8.153603 35.481786 8.205687 32.382812 C8.257770 29.283839 8.882764 26.250015 10.080687 23.281250 C11.278609 20.312485 13.049425 17.656262 15.393187 15.312500 C17.320279 13.333323 19.455675 11.770839 21.799437 10.625000 C24.143198 9.479161 26.565049 8.723960 29.065062 8.359375 L28.752562 -0.000000 C25.262961 0.468752 21.864557 1.484367 18.557249 3.046875 C15.249941 4.609383 12.268200 6.744778 9.611937 9.453125 C6.434837 12.630224 4.052049 16.210918 2.463499 20.195312 C0.874949 24.179707 0.054645 28.242167 0.002562 32.382812 C-0.049522 36.523458 0.692658 40.611959 2.229124 44.648438 C3.765590 48.684916 6.044213 52.317692 9.065062 55.546875 L2.111937 62.578125 L24.143187 63.750000 L24.143187 40.468750 Z M41.486937 1.875000 L41.565062 25.234375 L50.783812 15.937500 C53.023406 18.385429 54.703077 21.106756 55.822874 24.101562 C56.942671 27.096369 57.476520 30.143214 57.424437 33.242188 C57.372353 36.341161 56.747359 39.374985 55.549437 42.343750 C54.351514 45.312515 52.580698 47.994780 50.236937 50.390625 C48.309844 52.317718 46.174448 53.854161 43.830687 55.000000 C41.486925 56.145839 39.065074 56.927081 36.565062 57.343750 L36.877562 65.625000 C40.367162 65.208331 43.765566 64.218758 47.072874 62.656250 C50.380182 61.093742 53.361923 58.958347 56.018187 56.250000 C59.195286 53.072901 61.578074 49.492207 63.166624 45.507812 C64.755174 41.523418 65.575478 37.447938 65.627562 33.281250 C65.679645 29.114562 64.950486 25.026062 63.440062 21.015625 C61.929637 17.005188 59.637994 13.359391 56.565062 10.078125 L63.518187 3.125000 Z M72.815062 68.828125" style="fill:black"/>
</svg>
