<svg viewBox="0 0 41.339286 80.000000" version="1.1" xmlns="http://www.w3.org/2000/svg">
<path d="M41.653183 52.901786 C41.653183 57.455380 40.172543 61.376472 37.211218 64.665179 C34.249894 67.953885 30.403206 69.985115 25.671040 70.758929 L25.671040 78.571429 C25.671040 78.988097 25.537112 79.330356 25.269254 79.598214 C25.001396 79.866073 24.659137 80.000000 24.242468 80.000000 L18.215683 80.000000 C17.828776 80.000000 17.493958 79.858632 17.211218 79.575893 C16.928479 79.293153 16.787111 78.958335 16.787111 78.571429 L16.787111 70.758929 C14.822816 70.491070 12.925513 70.029765 11.095147 69.375000 C9.264781 68.720235 7.754379 68.058039 6.563897 67.388393 C5.373415 66.718747 4.272235 66.004468 3.260325 65.245536 C2.248416 64.486603 1.556458 63.928573 1.184433 63.571429 C0.812407 63.214284 0.551993 62.946429 0.403183 62.767857 C-0.102772 62.142854 -0.132534 61.532741 0.313897 60.937500 L4.912111 54.910714 C5.120446 54.613094 5.462704 54.434524 5.938897 54.375000 C6.385328 54.315476 6.742467 54.449403 7.010325 54.776786 C7.010325 54.776786 7.040087 54.806547 7.099611 54.866071 C10.462723 57.812515 14.078758 59.672615 17.947825 60.446429 C19.049021 60.684525 20.150201 60.803571 21.251397 60.803571 C23.662123 60.803571 25.782638 60.163697 27.613004 58.883929 C29.443370 57.604160 30.358540 55.788702 30.358540 53.437500 C30.358540 52.604162 30.135328 51.815480 29.688897 51.071429 C29.242466 50.327377 28.743959 49.702383 28.193361 49.196429 C27.642763 48.690474 26.772236 48.132444 25.581754 47.522321 C24.391272 46.912199 23.409139 46.436014 22.635325 46.093750 C21.861512 45.751486 20.671048 45.267860 19.063897 44.642857 C17.903177 44.166664 16.988007 43.794644 16.318361 43.526786 C15.648715 43.258927 14.733546 42.864586 13.572825 42.343750 C12.412105 41.822914 11.482055 41.361609 10.782647 40.959821 C10.083239 40.558034 9.242473 40.029765 8.260325 39.375000 C7.278178 38.720235 6.482055 38.087801 5.871933 37.477679 C5.261810 36.867556 4.614496 36.138397 3.929968 35.290179 C3.245441 34.441960 2.717173 33.578873 2.345147 32.700893 C1.973121 31.822912 1.660624 30.833339 1.407647 29.732143 C1.154669 28.630947 1.028183 27.470244 1.028183 26.250000 C1.028183 22.142837 2.486501 18.541682 5.403183 15.446429 C8.319864 12.351175 12.114469 10.357147 16.787111 9.464286 L16.787111 1.428571 C16.787111 1.041665 16.928479 0.706847 17.211218 0.424107 C17.493958 0.141368 17.828776 -0.000000 18.215683 -0.000000 L24.242468 -0.000000 C24.659137 -0.000000 25.001396 0.133927 25.269254 0.401786 C25.537112 0.669644 25.671040 1.011903 25.671040 1.428571 L25.671040 9.285714 C27.367477 9.464287 29.011806 9.806545 30.604075 10.312500 C32.196345 10.818455 33.490975 11.316962 34.488004 11.808036 C35.485033 12.299110 36.429964 12.857140 37.322825 13.482143 C38.215687 14.107146 38.796038 14.538689 39.063897 14.776786 C39.331755 15.014882 39.554967 15.223213 39.733540 15.401786 C40.239495 15.937503 40.313899 16.502973 39.956754 17.098214 L36.340683 23.616071 C36.102586 24.062502 35.760328 24.300595 35.313897 24.330357 C34.897228 24.419643 34.495446 24.315478 34.108540 24.017857 C34.019254 23.928571 33.803482 23.750001 33.461218 23.482143 C33.118955 23.214284 32.538603 22.819943 31.720147 22.299107 C30.901690 21.778271 30.031163 21.302085 29.108540 20.870536 C28.185916 20.438986 27.077296 20.052085 25.782647 19.709821 C24.487998 19.367558 23.215689 19.196429 21.965683 19.196429 C19.138287 19.196429 16.831763 19.836303 15.046040 21.116071 C13.260317 22.395840 12.367468 24.047609 12.367468 26.071429 C12.367468 26.845242 12.493955 27.559521 12.746933 28.214286 C12.999910 28.869051 13.438894 29.486604 14.063897 30.066964 C14.688900 30.647324 15.276692 31.138391 15.827290 31.540179 C16.377888 31.941966 17.211213 32.403271 18.327290 32.924107 C19.443367 33.444943 20.343655 33.846725 21.028183 34.129464 C21.712710 34.412204 22.754366 34.821426 24.153183 35.357143 C25.730571 35.952384 26.935917 36.421129 27.769254 36.763393 C28.602592 37.105656 29.733533 37.626485 31.162111 38.325893 C32.590690 39.025301 33.714190 39.657735 34.532647 40.223214 C35.351103 40.788693 36.273713 41.532733 37.300504 42.455357 C38.327295 43.377981 39.115977 44.322912 39.666575 45.290179 C40.217173 46.257445 40.685919 47.395827 41.072825 48.705357 C41.459732 50.014887 41.653183 51.413683 41.653183 52.901786 Z M43.706754 68.571429" style="fill:black"/>
</svg>
