<svg viewBox="0 0 73.593750 17.578125" version="1.1" xmlns="http://www.w3.org/2000/svg">
<path d="M36.796875 -0.000000 C34.348946 -0.000000 32.265634 0.859366 30.546875 2.578125 C28.828116 4.296884 27.968750 6.354155 27.968750 8.750000 C27.968750 11.197929 28.828116 13.281241 30.546875 15.000000 C32.265634 16.718759 34.348946 17.578125 36.796875 17.578125 C39.244804 17.578125 41.328116 16.718759 43.046875 15.000000 C44.765634 13.281241 45.625000 11.197929 45.625000 8.750000 C45.625000 6.354155 44.765634 4.296884 43.046875 2.578125 C41.328116 0.859366 39.244804 -0.000000 36.796875 -0.000000 Z M8.828125 -0.000000 C6.380196 -0.000000 4.296884 0.859366 2.578125 2.578125 C0.859366 4.296884 0.000000 6.354155 0.000000 8.750000 C0.000000 11.197929 0.859366 13.281241 2.578125 15.000000 C4.296884 16.718759 6.380196 17.578125 8.828125 17.578125 C11.223970 17.578125 13.281241 16.718759 15.000000 15.000000 C16.718759 13.281241 17.578125 11.197929 17.578125 8.750000 C17.578125 6.354155 16.718759 4.296884 15.000000 2.578125 C13.281241 0.859366 11.223970 -0.000000 8.828125 -0.000000 Z M64.765625 -0.000000 C62.369780 -0.000000 60.312509 0.859366 58.593750 2.578125 C56.874991 4.296884 56.015625 6.354155 56.015625 8.750000 C56.015625 11.197929 56.874991 13.281241 58.593750 15.000000 C60.312509 16.718759 62.369780 17.578125 64.765625 17.578125 C67.213554 17.578125 69.296866 16.718759 71.015625 15.000000 C72.734384 13.281241 73.593750 11.197929 73.593750 8.750000 C73.593750 6.354155 72.734384 4.296884 71.015625 2.578125 C69.296866 0.859366 67.213554 -0.000000 64.765625 -0.000000 Z M76.796875 44.765625" style="fill:black"/>
</svg>
