<svg viewBox="0 0 45.133929 62.857143" version="1.1" xmlns="http://www.w3.org/2000/svg">
<path d="M43.571429 52.633929 L45.133929 59.732143 C45.223215 60.089287 45.178572 60.424106 45.000000 60.736607 C44.821428 61.049109 44.568454 61.264880 44.241071 61.383929 L44.017857 61.428571 C43.898809 61.488096 43.742560 61.540178 43.549107 61.584821 C43.355654 61.629465 43.117561 61.696428 42.834821 61.785714 C42.552082 61.875000 42.232145 61.956845 41.875000 62.031250 C41.517855 62.105655 41.138395 62.180059 40.736607 62.254464 C40.334819 62.328869 39.888395 62.403273 39.397321 62.477679 C38.906248 62.552084 38.407741 62.619047 37.901786 62.678571 C37.395831 62.738096 36.852681 62.782738 36.272321 62.812500 C35.691961 62.842262 35.119050 62.857143 34.553571 62.857143 C27.589251 62.857143 21.503002 60.915198 16.294643 57.031250 C11.086283 53.147302 7.544652 47.916700 5.669643 41.339286 L1.428571 41.339286 C1.041665 41.339286 0.706847 41.197918 0.424107 40.915179 C0.141368 40.632439 0.000000 40.297621 0.000000 39.910714 L0.000000 34.866071 C0.000000 34.479165 0.141368 34.144347 0.424107 33.861607 C0.706847 33.578868 1.041665 33.437500 1.428571 33.437500 L4.375000 33.437500 C4.315476 31.741063 4.330357 30.178579 4.419643 28.750000 L1.428571 28.750000 C1.011903 28.750000 0.669644 28.616073 0.401786 28.348214 C0.133927 28.080356 0.000000 27.738097 0.000000 27.321429 L0.000000 22.232143 C0.000000 21.815474 0.133927 21.473216 0.401786 21.205357 C0.669644 20.937499 1.011903 20.803571 1.428571 20.803571 L5.803571 20.803571 C7.797629 14.553540 11.421105 9.523829 16.674107 5.714286 C21.927110 1.904743 27.886871 -0.000000 34.553571 -0.000000 C37.589301 -0.000000 40.476177 0.342258 43.214286 1.026786 C43.541668 1.116072 43.839284 1.339284 44.107143 1.696429 C44.285715 2.023811 44.330358 2.380950 44.241071 2.767857 L42.321429 9.866071 C42.232142 10.252978 42.023811 10.543154 41.696429 10.736607 C41.369046 10.930060 41.011907 10.967262 40.625000 10.848214 L40.446429 10.803571 C40.327380 10.773809 40.156251 10.736607 39.933036 10.691964 C39.709820 10.647321 39.449406 10.595238 39.151786 10.535714 C38.854165 10.476190 38.519347 10.424107 38.147321 10.379464 C37.775296 10.334821 37.388395 10.290179 36.986607 10.245536 C36.584819 10.200893 36.153276 10.163691 35.691964 10.133929 C35.230652 10.104167 34.791669 10.089286 34.375000 10.089286 C30.624981 10.089286 27.261920 11.041657 24.285714 12.946429 C21.309509 14.851200 19.077388 17.470221 17.589286 20.803571 L38.482143 20.803571 C38.958336 20.803571 39.330356 20.982141 39.598214 21.339286 C39.895835 21.696430 40.000000 22.083331 39.910714 22.500000 L38.839286 27.589286 C38.690475 28.363099 38.214290 28.750000 37.410714 28.750000 L15.625000 28.750000 C15.535714 29.851196 15.535714 31.413680 15.625000 33.437500 L36.116071 33.437500 C36.562502 33.437500 36.934522 33.616070 37.232143 33.973214 C37.500001 34.330359 37.589286 34.732141 37.500000 35.178571 L36.428571 40.178571 C36.369047 40.505954 36.205358 40.781249 35.937500 41.004464 C35.669642 41.227680 35.372025 41.339286 35.044643 41.339286 L17.767857 41.339286 C19.196436 44.821446 21.421116 47.581835 24.441964 49.620536 C27.462813 51.659236 30.863076 52.678571 34.642857 52.678571 C35.178574 52.678571 35.714283 52.656250 36.250000 52.611607 C36.785717 52.566964 37.284224 52.514881 37.745536 52.455357 C38.206848 52.395833 38.645831 52.328869 39.062500 52.254464 C39.479169 52.180059 39.843748 52.105655 40.156250 52.031250 C40.468752 51.956845 40.744046 51.889881 40.982143 51.830357 C41.220239 51.770833 41.398809 51.726191 41.517857 51.696429 L41.741071 51.607143 C42.127978 51.458333 42.514879 51.488094 42.901786 51.696429 C43.258930 51.904763 43.482142 52.217260 43.571429 52.633929 Z M45.714286 62.857143" style="fill:black"/>
</svg>
