<svg viewBox="0 0 76.875000 76.796875" version="1.1" xmlns="http://www.w3.org/2000/svg">
<path d="M38.437500 -0.000000 C33.124973 -0.000000 28.138044 1.002594 23.476562 3.007812 C18.815081 5.013031 14.752621 7.747379 11.289062 11.210938 C7.825504 14.674496 5.078135 18.736956 3.046875 23.398438 C1.015615 28.059919 0.000000 33.046848 0.000000 38.359375 C0.000000 43.671902 1.015615 48.658831 3.046875 53.320312 C5.078135 57.981794 7.825504 62.044254 11.289062 65.507812 C14.752621 68.971371 18.815081 71.718740 23.476562 73.750000 C28.138044 75.781260 33.124973 76.796875 38.437500 76.796875 C43.750027 76.796875 48.736956 75.781260 53.398438 73.750000 C58.059919 71.718740 62.122379 68.971371 65.585938 65.507812 C69.049496 62.044254 71.796865 57.981794 73.828125 53.320312 C75.859385 48.658831 76.875000 43.671902 76.875000 38.359375 C76.875000 33.046848 75.859385 28.059919 73.828125 23.398438 C71.796865 18.736956 69.049496 14.674496 65.585938 11.210938 C62.122379 7.747379 58.059919 5.013031 53.398438 3.007812 C48.736956 1.002594 43.750027 -0.000000 38.437500 -0.000000 Z M47.500000 26.484375 L41.796875 26.484375 C41.432290 26.484375 41.093752 26.692706 40.781250 27.109375 C40.468748 27.526044 40.312500 28.020830 40.312500 28.593750 L40.312500 32.812500 L47.500000 32.812500 L46.484375 38.750000 L40.312500 38.750000 L40.312500 56.562500 L33.515625 56.562500 L33.515625 38.750000 L27.343750 38.750000 L27.343750 32.812500 L33.515625 32.812500 L33.515625 29.296875 C33.515625 26.796863 34.296867 24.648446 35.859375 22.851562 C37.421883 21.054679 39.401030 20.156250 41.796875 20.156250 L47.500000 20.156250 Z M78.437500 74.375000" style="fill:black"/>
</svg>
