<svg viewBox="0 0 71.875000 70.390625" version="1.1" xmlns="http://www.w3.org/2000/svg">
<path d="M3.828125 17.500000 C3.828125 20.520848 4.322912 23.098948 5.312500 25.234375 C6.302088 27.369802 7.786448 29.062494 9.765625 30.312500 C11.380216 31.354172 13.020825 32.018228 14.687500 32.304688 C16.354175 32.591147 17.682287 32.734375 18.671875 32.734375 C18.880209 32.734375 19.075520 32.734375 19.257812 32.734375 C19.440105 32.734375 19.609374 32.734375 19.765625 32.734375 C19.765625 32.734375 19.791666 33.567700 19.843750 35.234375 C19.895834 36.901050 20.651034 38.723948 22.109375 40.703125 L21.953125 40.703125 C20.703119 40.703125 18.854179 40.833332 16.406250 41.093750 C13.958321 41.354168 11.523450 41.979162 9.101562 42.968750 C6.679675 43.958338 4.557301 45.442698 2.734375 47.421875 C0.911449 49.401052 0.000000 52.135399 0.000000 55.625000 C0.000000 59.114601 0.820304 61.848948 2.460938 63.828125 C4.101571 65.807302 5.989573 67.278641 8.125000 68.242188 C10.260427 69.205734 12.343740 69.804686 14.375000 70.039062 C16.406260 70.273439 17.812496 70.390625 18.593750 70.390625 C18.697917 70.390625 18.789062 70.390625 18.867188 70.390625 C18.945313 70.390625 18.984375 70.390625 18.984375 70.390625 C18.984375 70.390625 19.036458 70.390625 19.140625 70.390625 C19.244792 70.390625 19.401041 70.390625 19.609375 70.390625 C20.598963 70.390625 22.226551 70.247397 24.492188 69.960938 C26.757824 69.674478 29.088530 68.958339 31.484375 67.812500 C34.557307 66.302076 36.874992 64.244805 38.437500 61.640625 C40.000008 59.036445 40.781250 55.911477 40.781250 52.265625 C40.781250 48.723941 39.843759 45.833345 37.968750 43.593750 C36.093741 41.354155 34.270842 39.479174 32.500000 37.968750 C31.458328 37.031245 30.546879 36.145837 29.765625 35.312500 C28.984371 34.479163 28.593750 33.671879 28.593750 32.890625 C28.593750 32.057288 28.880205 31.315107 29.453125 30.664062 C30.026045 30.013018 30.755204 29.296879 31.640625 28.515625 C32.994798 27.317702 34.218745 25.755218 35.312500 23.828125 C36.406255 21.901032 36.953125 19.270850 36.953125 15.937500 C36.953125 13.020819 36.640628 10.559906 36.015625 8.554688 C35.390622 6.549469 33.906262 4.947923 31.562500 3.750000 C31.770834 3.593749 32.226559 3.476563 32.929688 3.398438 C33.632816 3.320312 34.192706 3.229167 34.609375 3.125000 C35.859381 2.968749 37.200514 2.721356 38.632812 2.382812 C40.065111 2.044269 40.781250 1.380213 40.781250 0.390625 L40.781250 -0.000000 L22.421875 -0.000000 C22.369791 -0.000000 21.367197 0.117186 19.414062 0.351562 C17.460928 0.585939 15.338553 1.276036 13.046875 2.421875 C10.755197 3.567714 8.645843 5.312488 6.718750 7.656250 C4.791657 10.000012 3.828125 13.281229 3.828125 17.500000 Z M33.515625 53.593750 C33.671876 56.406264 32.669282 58.763011 30.507812 60.664062 C28.346343 62.565114 25.442727 63.645832 21.796875 63.906250 C18.151023 64.166668 15.000013 63.528654 12.343750 61.992188 C9.687487 60.455721 8.281251 58.281264 8.125000 55.468750 C8.020833 54.114577 8.255205 52.799486 8.828125 51.523438 C9.401045 50.247389 10.260411 49.088547 11.406250 48.046875 C12.604173 46.953120 13.984367 46.093753 15.546875 45.468750 C17.109383 44.843747 18.776033 44.453126 20.546875 44.296875 C20.755209 44.296875 20.963541 44.296875 21.171875 44.296875 C21.380209 44.296875 21.588541 44.296875 21.796875 44.296875 C25.182309 44.296875 27.942698 45.182283 30.078125 46.953125 C32.213552 48.723967 33.359374 50.937487 33.515625 53.593750 Z M28.671875 13.671875 C29.609380 16.848974 29.518235 19.856757 28.398438 22.695312 C27.278640 25.533868 25.625011 27.265622 23.437500 27.890625 C23.177082 27.942709 22.916668 27.994791 22.656250 28.046875 C22.395832 28.098959 22.135418 28.125000 21.875000 28.125000 C19.895823 28.125000 18.020842 27.213551 16.250000 25.390625 C14.479158 23.567699 13.229170 21.276055 12.500000 18.515625 C12.135415 16.953117 11.966146 15.481778 11.992188 14.101562 C12.018229 12.721347 12.265623 11.380215 12.734375 10.078125 C13.203127 8.776035 13.828121 7.708337 14.609375 6.875000 C15.390629 6.041663 16.302078 5.468752 17.343750 5.156250 C17.604168 5.104166 17.864582 5.065104 18.125000 5.039062 C18.385418 5.013021 18.645832 5.000000 18.906250 5.000000 C21.302095 5.000000 23.294263 5.611973 24.882812 6.835938 C26.471362 8.059902 27.734370 10.338525 28.671875 13.671875 Z M59.843750 27.187500 L59.843750 15.156250 L51.875000 15.156250 L51.875000 27.187500 L39.843750 27.187500 L39.843750 35.156250 L51.875000 35.156250 L51.875000 47.187500 L59.843750 47.187500 L59.843750 35.156250 L71.875000 35.156250 L71.875000 27.187500 Z M75.859375 71.171875" style="fill:black"/>
</svg>
