<svg viewBox="0 0 76.875000 76.796875" version="1.1" xmlns="http://www.w3.org/2000/svg">
<path d="M38.437500 -0.000000 C33.124973 -0.000000 28.138044 1.002594 23.476562 3.007812 C18.815081 5.013031 14.752621 7.747379 11.289062 11.210938 C7.825504 14.674496 5.078135 18.736956 3.046875 23.398438 C1.015615 28.059919 0.000000 33.046848 0.000000 38.359375 C0.000000 43.671902 1.015615 48.658831 3.046875 53.320312 C5.078135 57.981794 7.825504 62.044254 11.289062 65.507812 C14.752621 68.971371 18.815081 71.718740 23.476562 73.750000 C28.138044 75.781260 33.124973 76.796875 38.437500 76.796875 C43.750027 76.796875 48.736956 75.781260 53.398438 73.750000 C58.059919 71.718740 62.122379 68.971371 65.585938 65.507812 C69.049496 62.044254 71.796865 57.981794 73.828125 53.320312 C75.859385 48.658831 76.875000 43.671902 76.875000 38.359375 C76.875000 33.046848 75.859385 28.059919 73.828125 23.398438 C71.796865 18.736956 69.049496 14.674496 65.585938 11.210938 C62.122379 7.747379 58.059919 5.013031 53.398438 3.007812 C48.736956 1.002594 43.750027 -0.000000 38.437500 -0.000000 Z M36.250000 54.843750 C35.052077 55.416670 33.867193 55.781249 32.695312 55.937500 C31.523432 56.093751 30.703127 56.171875 30.234375 56.171875 C30.130208 56.171875 30.052084 56.171875 30.000000 56.171875 C29.947916 56.171875 29.921875 56.171875 29.921875 56.171875 C29.921875 56.171875 29.895834 56.171875 29.843750 56.171875 C29.791666 56.171875 29.739584 56.171875 29.687500 56.171875 C28.906246 56.171875 27.148451 55.807295 24.414062 55.078125 C21.679674 54.348955 20.312500 52.213559 20.312500 48.671875 C20.312500 45.182274 21.835922 43.059900 24.882812 42.304688 C27.929703 41.549475 30.104160 41.171875 31.406250 41.171875 L31.484375 41.171875 C30.755205 40.182287 30.377604 39.257817 30.351562 38.398438 C30.325521 37.539058 30.312500 37.109375 30.312500 37.109375 C30.260416 37.109375 30.182292 37.109375 30.078125 37.109375 C29.973958 37.109375 29.869792 37.109375 29.765625 37.109375 C29.244789 37.109375 28.567712 37.044271 27.734375 36.914062 C26.901038 36.783854 26.067712 36.458336 25.234375 35.937500 C24.244787 35.312497 23.502607 34.453130 23.007812 33.359375 C22.513018 32.265620 22.265625 30.963549 22.265625 29.453125 C22.265625 25.182270 23.815089 22.643233 26.914062 21.835938 C30.013036 21.028642 31.588541 20.598959 31.640625 20.546875 L40.937500 20.546875 L40.937500 20.781250 C40.937500 21.302086 40.572920 21.653645 39.843750 21.835938 C39.114580 22.018230 38.437503 22.135416 37.812500 22.187500 C37.604166 22.239584 37.317710 22.278646 36.953125 22.304688 C36.588540 22.330729 36.354167 22.395833 36.250000 22.500000 C37.447923 23.125003 38.203123 23.945307 38.515625 24.960938 C38.828127 25.976568 38.984375 27.213534 38.984375 28.671875 C38.984375 30.338550 38.710940 31.653641 38.164062 32.617188 C37.617185 33.580734 37.005212 34.374997 36.328125 35.000000 C35.859373 35.416669 35.481772 35.794269 35.195312 36.132812 C34.908853 36.471356 34.765625 36.822915 34.765625 37.187500 C34.765625 37.604169 34.960936 38.020831 35.351562 38.437500 C35.742189 38.854169 36.223955 39.296873 36.796875 39.765625 C37.630212 40.546879 38.528641 41.497390 39.492188 42.617188 C40.455734 43.736985 40.937500 45.208324 40.937500 47.031250 C40.937500 48.854176 40.546879 50.429681 39.765625 51.757812 C38.984371 53.085944 37.812508 54.114580 36.250000 54.843750 Z M56.406250 38.359375 L50.468750 38.359375 L50.468750 44.375000 L46.406250 44.375000 L46.406250 38.359375 L40.468750 38.359375 L40.468750 34.375000 L46.406250 34.375000 L46.406250 28.359375 L50.468750 28.359375 L50.468750 34.375000 L56.406250 34.375000 Z M31.328125 42.968750 C31.223958 42.968750 31.119792 42.968750 31.015625 42.968750 C30.911458 42.968750 30.807292 42.968750 30.703125 42.968750 C29.817704 43.072917 28.971358 43.281248 28.164062 43.593750 C27.356767 43.906252 26.666670 44.322914 26.093750 44.843750 C25.520830 45.416670 25.091147 46.028643 24.804688 46.679688 C24.518228 47.330732 24.375000 47.994788 24.375000 48.671875 C24.479167 50.078132 25.208327 51.158850 26.562500 51.914062 C27.916673 52.669275 29.505199 52.994792 31.328125 52.890625 C33.151051 52.734374 34.622390 52.174484 35.742188 51.210938 C36.861985 50.247391 37.369792 49.062507 37.265625 47.656250 C37.161458 46.354160 36.575526 45.247400 35.507812 44.335938 C34.440099 43.424475 33.046884 42.968750 31.328125 42.968750 Z M34.843750 27.500000 C34.322914 25.833325 33.671879 24.687503 32.890625 24.062500 C32.109371 23.437497 31.093756 23.125000 29.843750 23.125000 C29.739583 23.125000 29.622396 23.125000 29.492188 23.125000 C29.361979 23.125000 29.218751 23.151041 29.062500 23.203125 C28.541664 23.359376 28.085939 23.645831 27.695312 24.062500 C27.304686 24.479169 26.979168 25.026038 26.718750 25.703125 C26.510416 26.380212 26.393229 27.057288 26.367188 27.734375 C26.341146 28.411462 26.432291 29.140621 26.640625 29.921875 C27.005210 31.328132 27.643225 32.486975 28.554688 33.398438 C29.466150 34.309900 30.416662 34.765625 31.406250 34.765625 C31.510417 34.765625 31.627604 34.765625 31.757812 34.765625 C31.888021 34.765625 32.031249 34.739584 32.187500 34.687500 C33.281255 34.374998 34.114580 33.502611 34.687500 32.070312 C35.260420 30.638014 35.312502 29.114591 34.843750 27.500000 Z M78.437500 74.375000" style="fill:black"/>
</svg>
