<svg viewBox="0 0 73.593750 62.421875" version="1.1" xmlns="http://www.w3.org/2000/svg">
<path d="M49.531250 36.406250 C48.072909 36.406250 46.835943 37.109368 45.820312 38.515625 C44.804682 39.921882 44.296875 41.614573 44.296875 43.593750 C44.296875 45.572927 44.804682 47.278639 45.820312 48.710938 C46.835943 50.143236 48.072909 50.859375 49.531250 50.859375 C50.937507 50.859375 52.148432 50.143236 53.164062 48.710938 C54.179693 47.278639 54.687500 45.572927 54.687500 43.593750 C54.687500 41.614573 54.179693 39.921882 53.164062 38.515625 C52.148432 37.109368 50.937507 36.406250 49.531250 36.406250 Z M67.656250 17.656250 C67.916668 16.927080 67.942709 14.791684 67.734375 11.250000 C67.526041 7.708316 66.640633 3.958353 65.078125 -0.000000 C65.078125 -0.000000 63.411475 0.442704 60.078125 1.328125 C56.744775 2.213546 52.343777 4.531231 46.875000 8.281250 C45.729161 7.968748 44.244801 7.734376 42.421875 7.578125 C40.598949 7.421874 38.723968 7.343750 36.796875 7.343750 C34.869782 7.343750 32.994801 7.421874 31.171875 7.578125 C29.348949 7.734376 27.864589 7.968748 26.718750 8.281250 C21.249973 4.531231 16.848975 2.213546 13.515625 1.328125 C10.182275 0.442704 8.515625 -0.000000 8.515625 -0.000000 C6.953117 3.958353 6.067709 7.708316 5.859375 11.250000 C5.651041 14.791684 5.703123 16.927080 6.015625 17.656250 C4.140616 19.687510 2.669276 21.953113 1.601562 24.453125 C0.533849 26.953137 0.000000 29.869775 0.000000 33.203125 C0.000000 40.390661 1.276029 45.950501 3.828125 49.882812 C6.380221 53.815124 9.335921 56.705720 12.695312 58.554688 C16.054704 60.403655 19.374984 61.497394 22.656250 61.835938 C25.937516 62.174481 28.333326 62.343750 29.843750 62.343750 C30.520837 62.343750 31.497389 62.356771 32.773438 62.382812 C34.049486 62.408854 35.390618 62.421875 36.796875 62.421875 C38.255216 62.421875 39.609369 62.408854 40.859375 62.382812 C42.109381 62.356771 43.072913 62.343750 43.750000 62.343750 C45.260424 62.343750 47.656234 62.174481 50.937500 61.835938 C54.218766 61.497394 57.539046 60.403655 60.898438 58.554688 C64.257829 56.705720 67.213529 53.815124 69.765625 49.882812 C72.317721 45.950501 73.593750 40.390661 73.593750 33.203125 C73.593750 29.869775 73.059901 26.953137 71.992188 24.453125 C70.924474 21.953113 69.479176 19.687510 67.656250 17.656250 Z M36.875000 58.828125 L36.718750 58.828125 C32.916648 58.828125 29.388037 58.658856 26.132812 58.320312 C22.877588 57.981769 20.039075 57.239589 17.617188 56.093750 C15.195300 54.947911 13.294278 53.294282 11.914062 51.132812 C10.533847 48.971343 9.843750 46.067727 9.843750 42.421875 C9.843750 40.651033 10.169268 38.958341 10.820312 37.343750 C11.471357 35.729159 12.552076 34.244798 14.062500 32.890625 C16.510429 30.651030 19.713522 29.739581 23.671875 30.156250 C27.630228 30.572919 31.979143 30.781250 36.718750 30.781250 C36.718750 30.781250 36.731771 30.781250 36.757812 30.781250 C36.783854 30.781250 36.796875 30.781250 36.796875 30.781250 C36.796875 30.781250 36.809896 30.781250 36.835938 30.781250 C36.861979 30.781250 36.875000 30.781250 36.875000 30.781250 C41.614607 30.781250 45.963522 30.572919 49.921875 30.156250 C53.880228 29.739581 57.083321 30.651030 59.531250 32.890625 C61.041674 34.244798 62.122393 35.729159 62.773438 37.343750 C63.424482 38.958341 63.750000 40.651033 63.750000 42.421875 C63.750000 46.067727 63.059903 48.971343 61.679688 51.132812 C60.299472 53.294282 58.398450 54.947911 55.976562 56.093750 C53.554675 57.239589 50.716162 57.981769 47.460938 58.320312 C44.205713 58.658856 40.677102 58.828125 36.875000 58.828125 Z M24.062500 36.406250 C22.656243 36.406250 21.445318 37.109368 20.429688 38.515625 C19.414057 39.921882 18.906250 41.614573 18.906250 43.593750 C18.906250 45.572927 19.414057 47.278639 20.429688 48.710938 C21.445318 50.143236 22.656243 50.859375 24.062500 50.859375 C25.520841 50.859375 26.757807 50.143236 27.773438 48.710938 C28.789068 47.278639 29.296875 45.572927 29.296875 43.593750 C29.296875 41.614573 28.789068 39.921882 27.773438 38.515625 C26.757807 37.109368 25.520841 36.406250 24.062500 36.406250 Z M76.796875 67.187500" style="fill:black"/>
</svg>
