<svg viewBox="0 0 56.718750 68.281250" version="1.1" xmlns="http://www.w3.org/2000/svg">
<path d="M40.000000 30.000000 L36.718750 36.640625 L31.718750 36.640625 L35.000000 30.000000 L30.000000 30.000000 L30.000000 20.000000 L40.000000 20.000000 Z M26.718750 30.000000 L23.359375 36.640625 L18.359375 36.640625 L21.718750 30.000000 L16.718750 30.000000 L16.718750 20.000000 L26.718750 20.000000 Z M28.359375 -0.000000 C24.453105 -0.000000 20.781267 0.742180 17.343750 2.226562 C13.906233 3.710945 10.898450 5.729154 8.320312 8.281250 C5.742175 10.833346 3.710945 13.828108 2.226562 17.265625 C0.742180 20.703142 0.000000 24.374980 0.000000 28.281250 C0.000000 32.187520 0.742180 35.872379 2.226562 39.335938 C3.710945 42.799496 5.742175 45.807279 8.320312 48.359375 C10.898450 50.911471 13.906233 52.929680 17.343750 54.414062 C20.781267 55.898445 24.453105 56.640625 28.359375 56.640625 L30.000000 56.640625 L30.000000 68.281250 C34.062520 66.354157 37.734359 63.880223 41.015625 60.859375 C44.296891 57.838527 47.096343 54.544289 49.414062 50.976562 C51.731782 47.408836 53.528639 43.671895 54.804688 39.765625 C56.080736 35.859355 56.718750 32.031269 56.718750 28.281250 C56.718750 24.374980 55.976570 20.703142 54.492188 17.265625 C53.007805 13.828108 50.976575 10.833346 48.398438 8.281250 C45.820300 5.729154 42.812517 3.710945 39.375000 2.226562 C35.937483 0.742180 32.265645 -0.000000 28.359375 -0.000000 Z M68.359375 66.640625" style="fill:black"/>
</svg>
