<svg viewBox="0 0 68.750000 56.015625" version="1.1" xmlns="http://www.w3.org/2000/svg">
<path d="M63.125000 4.609375 C61.458325 3.046867 59.570323 1.888025 57.460938 1.132812 C55.351552 0.377600 53.203136 -0.000000 51.015625 -0.000000 C48.828114 -0.000000 46.679698 0.377600 44.570312 1.132812 C42.460927 1.888025 40.572925 3.046867 38.906250 4.609375 L34.375000 8.750000 L29.843750 4.609375 C28.177075 3.046867 26.289073 1.888025 24.179688 1.132812 C22.070302 0.377600 19.921886 -0.000000 17.734375 -0.000000 C15.546864 -0.000000 13.398448 0.377600 11.289062 1.132812 C9.179677 1.888025 7.291675 3.046867 5.625000 4.609375 C3.749991 6.328134 2.343755 8.268218 1.406250 10.429688 C0.468745 12.591157 0.000000 14.804676 0.000000 17.070312 C0.000000 19.335949 0.468745 21.562489 1.406250 23.750000 C2.343755 25.937511 3.749991 27.890616 5.625000 29.609375 L34.375000 56.015625 L63.125000 29.609375 C65.000009 27.890616 66.406245 25.937511 67.343750 23.750000 C68.281255 21.562489 68.750000 19.335949 68.750000 17.070312 C68.750000 14.804676 68.281255 12.591157 67.343750 10.429688 C66.406245 8.268218 65.000009 6.328134 63.125000 4.609375 Z M74.375000 63.984375" style="fill:black"/>
</svg>
