<svg style="" width="72.968750" height="64.375000" version="1.1" xmlns="http://www.w3.org/2000/svg">
<path d="M71.028125 36.328125 L64.309375 36.328125 L64.309375 60.390625 C64.309375 61.276046 64.048961 62.161454 63.528125 63.046875 C63.007289 63.932296 61.939592 64.375000 60.325000 64.375000 L44.309375 64.375000 L44.309375 40.390625 L28.371875 40.390625 L28.371875 64.375000 L12.356250 64.375000 C10.741659 64.375000 9.673961 63.932296 9.153125 63.046875 C8.632289 62.161454 8.371875 61.276046 8.371875 60.390625 L8.371875 36.328125 L1.653125 36.328125 C0.455203 36.328125 -0.091667 36.041670 0.012500 35.468750 C0.116667 34.895830 0.585413 34.192712 1.418750 33.359375 L33.528125 1.250000 C33.892710 0.833331 34.322394 0.520834 34.817188 0.312500 C35.311982 0.104166 35.819789 -0.000000 36.340625 -0.000000 C36.861461 -0.000000 37.369269 0.104166 37.864063 0.312500 C38.358857 0.520834 38.788540 0.833331 39.153125 1.250000 L71.262500 33.359375 C72.095838 34.192712 72.564583 34.895830 72.668750 35.468750 C72.772917 36.041670 72.226048 36.328125 71.028125 36.328125 Z M76.340625 68.359375" style="fill:black"/>
</svg>