<svg viewBox="0 0 72.031250 72.031250" version="1.1" xmlns="http://www.w3.org/2000/svg">
<path d="M16.015625 8.046875 C16.015625 10.182302 15.325528 12.031242 13.945312 13.593750 C12.565097 15.156258 10.598971 15.937500 8.046875 15.937500 C5.598946 15.937500 3.645841 15.182299 2.187500 13.671875 C0.729159 12.161451 0.000000 10.338552 0.000000 8.203125 C0.000000 6.067698 0.716139 4.166675 2.148438 2.500000 C3.580736 0.833325 5.546862 -0.000000 8.046875 -0.000000 C10.494804 -0.000000 12.421868 0.794263 13.828125 2.382812 C15.234382 3.971362 15.963541 5.859364 16.015625 8.046875 Z M0.000000 72.031250 L0.000000 20.000000 L16.015625 20.000000 L16.015625 72.031250 Z M23.984375 37.812500 C23.984375 34.739568 23.945313 31.888034 23.867188 29.257812 C23.789062 26.627591 23.697917 24.218761 23.593750 22.031250 L37.968750 22.031250 L38.671875 28.906250 L38.984375 28.906250 C40.026047 27.291659 41.796863 25.546884 44.296875 23.671875 C46.796888 21.796866 50.130188 20.859375 54.296875 20.859375 C56.796888 20.859375 59.140614 21.289058 61.328125 22.148438 C63.515636 23.007817 65.390617 24.322908 66.953125 26.093750 C68.515633 27.864592 69.752600 30.091132 70.664062 32.773438 C71.575525 35.455743 72.031250 38.619773 72.031250 42.265625 L72.031250 72.031250 L56.015625 72.031250 L56.015625 44.609375 C56.015625 41.432276 55.377611 38.763032 54.101562 36.601562 C52.825514 34.440093 50.807305 33.359375 48.046875 33.359375 C45.911448 33.359375 44.257818 34.049472 43.085938 35.429688 C41.914057 36.809903 41.067711 38.203118 40.546875 39.609375 C40.338541 40.130211 40.195313 40.729163 40.117188 41.406250 C40.039062 42.083337 40.000000 42.760413 40.000000 43.437500 L40.000000 72.031250 L23.984375 72.031250 Z M76.015625 72.031250" style="fill:black"/>
</svg>
