<svg viewBox="0 0 72.031250 72.031250" version="1.1" xmlns="http://www.w3.org/2000/svg">
<path d="M63.984375 -0.000000 L8.046875 -0.000000 C5.807280 -0.000000 3.906258 0.794263 2.343750 2.382812 C0.781242 3.971362 0.000000 5.859364 0.000000 8.046875 L0.000000 64.062500 C0.000000 66.250011 0.781242 68.124992 2.343750 69.687500 C3.906258 71.250008 5.807280 72.031250 8.046875 72.031250 L63.984375 72.031250 C66.223970 72.031250 68.124992 71.250008 69.687500 69.687500 C71.250008 68.124992 72.031250 66.250011 72.031250 64.062500 L72.031250 8.046875 C72.031250 5.859364 71.250008 3.971362 69.687500 2.382812 C68.124992 0.794263 66.223970 -0.000000 63.984375 -0.000000 Z M35.937500 58.125000 C39.010432 58.125000 41.888007 57.539068 44.570312 56.367188 C47.252618 55.195307 49.596344 53.606781 51.601562 51.601562 C53.606781 49.596344 55.195307 47.252618 56.367188 44.570312 C57.539068 41.888007 58.125000 39.010432 58.125000 35.937500 C58.125000 35.260413 58.085938 34.596357 58.007812 33.945312 C57.929687 33.294268 57.812501 32.656253 57.656250 32.031250 L63.984375 32.031250 L63.984375 60.859375 C63.984375 61.640629 63.723961 62.304685 63.203125 62.851562 C62.682289 63.398440 62.031254 63.671875 61.250000 63.671875 L10.781250 63.671875 C9.999996 63.671875 9.348961 63.398440 8.828125 62.851562 C8.307289 62.304685 8.046875 61.640629 8.046875 60.859375 L8.046875 32.031250 L14.218750 32.031250 C14.114583 32.656253 14.023438 33.294268 13.945312 33.945312 C13.867187 34.596357 13.828125 35.260413 13.828125 35.937500 C13.828125 39.010432 14.401036 41.888007 15.546875 44.570312 C16.692714 47.252618 18.268219 49.596344 20.273438 51.601562 C22.278656 53.606781 24.622382 55.195307 27.304688 56.367188 C29.986993 57.539068 32.864568 58.125000 35.937500 58.125000 Z M22.109375 35.937500 C22.109375 32.135398 23.463528 28.880222 26.171875 26.171875 C28.880222 23.463528 32.135398 22.109375 35.937500 22.109375 C39.791686 22.109375 43.059882 23.463528 45.742188 26.171875 C48.424493 28.880222 49.765625 32.135398 49.765625 35.937500 C49.765625 39.791686 48.424493 43.072903 45.742188 45.781250 C43.059882 48.489597 39.791686 49.843750 35.937500 49.843750 C32.135398 49.843750 28.880222 48.489597 26.171875 45.781250 C23.463528 43.072903 22.109375 39.791686 22.109375 35.937500 Z M61.250000 20.000000 L54.765625 20.000000 C54.036455 20.000000 53.398440 19.739586 52.851562 19.218750 C52.304685 18.697914 52.031250 18.046879 52.031250 17.265625 L52.031250 10.781250 C52.031250 10.052080 52.304685 9.414065 52.851562 8.867188 C53.398440 8.320310 54.036455 8.046875 54.765625 8.046875 L61.250000 8.046875 C62.031254 8.046875 62.682289 8.320310 63.203125 8.867188 C63.723961 9.414065 63.984375 10.052080 63.984375 10.781250 L63.984375 17.265625 C63.984375 18.046879 63.723961 18.697914 63.203125 19.218750 C62.682289 19.739586 62.031254 20.000000 61.250000 20.000000 Z M76.015625 72.031250" style="fill:black"/>
</svg>
