<svg viewBox="0 0 55.937500 72.031250" version="1.1" xmlns="http://www.w3.org/2000/svg">
<path d="M51.171875 28.046875 L43.984375 28.046875 L43.984375 18.437500 C43.984375 15.520819 43.645837 12.929699 42.968750 10.664062 C42.291663 8.398426 41.289069 6.471362 39.960938 4.882812 C38.632806 3.294263 36.966156 2.083337 34.960938 1.250000 C32.955719 0.416663 30.625013 -0.000000 27.968750 -0.000000 C25.312487 -0.000000 22.981781 0.416663 20.976562 1.250000 C18.971344 2.083337 17.304694 3.294263 15.976562 4.882812 C14.648431 6.471362 13.645837 8.398426 12.968750 10.664062 C12.291663 12.929699 11.953125 15.520819 11.953125 18.437500 L11.953125 20.000000 L20.000000 20.000000 L20.000000 16.796875 C20.000000 13.932277 20.729159 11.757820 22.187500 10.273438 C23.645841 8.789055 25.572905 8.046875 27.968750 8.046875 C30.364595 8.046875 32.291659 8.789055 33.750000 10.273438 C35.208341 11.757820 35.937500 13.932277 35.937500 16.796875 L35.937500 28.046875 L3.984375 28.046875 C2.890620 28.046875 1.953129 28.567703 1.171875 29.609375 C0.390621 30.651047 0.000000 31.718745 0.000000 32.812500 L0.000000 64.062500 C0.000000 65.156255 0.364580 66.210932 1.093750 67.226562 C1.822920 68.242193 2.708328 68.932290 3.750000 69.296875 L8.593750 70.781250 C9.635422 71.145835 10.911451 71.445311 12.421875 71.679688 C13.932299 71.914064 15.260411 72.031250 16.406250 72.031250 L39.531250 72.031250 C40.677089 72.031250 42.005201 71.914064 43.515625 71.679688 C45.026049 71.445311 46.302078 71.145835 47.343750 70.781250 L52.187500 69.218750 C53.229172 68.906248 54.114580 68.242193 54.843750 67.226562 C55.572920 66.210932 55.937500 65.156255 55.937500 64.062500 L55.937500 32.812500 C55.937500 31.718745 55.416672 30.651047 54.375000 29.609375 C53.333328 28.567703 52.265630 28.046875 51.171875 28.046875 Z M67.968750 72.031250" style="fill:black"/>
</svg>
