<svg viewBox="0 0 62.968750 80.390625" version="1.1" xmlns="http://www.w3.org/2000/svg">
<path d="M25.567864 52.853263 C25.047028 55.613693 24.474117 58.322000 23.849114 60.978263 C23.224111 63.634526 22.442869 66.134501 21.505364 68.478263 C20.567859 70.822025 19.448079 72.983461 18.145989 74.962638 C16.843899 76.941814 15.229332 78.608464 13.302239 79.962638 C12.729320 75.795950 12.599113 71.863698 12.911614 68.165763 C13.224116 64.467828 13.757965 60.913176 14.513177 57.501700 C15.268389 54.090225 16.114734 50.743904 17.052239 47.462638 C17.989744 44.181372 18.797027 40.874113 19.474114 37.540763 C18.328275 35.613670 17.755364 33.335047 17.755364 30.704825 C17.755364 28.074604 18.237130 25.678795 19.200677 23.517325 C20.164223 21.355856 21.544418 19.676186 23.341302 18.478263 C25.138186 17.280340 27.234519 17.176175 29.630364 18.165763 C32.651213 19.311602 33.888179 21.473039 33.341302 24.650138 C32.794424 27.827237 31.961099 31.147516 30.841302 34.611075 C29.721504 38.074634 29.083490 41.290748 28.927239 44.259513 C28.770988 47.228278 30.541804 49.077218 34.239739 49.806388 C38.146009 50.587642 41.440247 49.572027 44.122552 46.759513 C46.804857 43.946999 48.718900 40.444430 49.864739 36.251700 C51.010578 32.058971 51.349116 27.749118 50.880364 23.322013 C50.411612 18.894907 48.953293 15.457442 46.505364 13.009513 C43.015763 9.467829 38.966325 7.566806 34.356927 7.306388 C29.747529 7.045970 25.437676 7.970440 21.427239 10.079825 C17.416802 12.189211 14.174647 15.262097 11.700677 19.298575 C9.226706 23.335054 8.406402 27.879279 9.239739 32.931388 C9.604324 35.431400 10.515774 37.423568 11.974114 38.907950 C13.432455 40.392333 13.198082 42.827204 11.270989 46.212638 C6.791800 45.223050 3.757976 43.087654 2.169427 39.806388 C0.580877 36.525122 -0.135262 32.540786 0.020989 27.853263 C0.177240 23.999077 1.049627 20.470466 2.638177 17.267325 C4.226726 14.064184 6.283997 11.264733 8.810052 8.868888 C11.336106 6.473043 14.187640 4.532958 17.364739 3.048575 C20.541838 1.564193 23.797014 0.639723 27.130364 0.275138 C31.297052 -0.193614 35.359511 -0.063407 39.317864 0.665763 C43.276217 1.394933 46.830869 2.697004 49.981927 4.572013 C53.132984 6.447022 55.763166 8.868873 57.872552 11.837638 C59.981937 14.806403 61.323070 18.269910 61.895989 22.228263 C62.468909 26.707452 62.312660 31.147512 61.427239 35.548575 C60.541818 39.949639 58.979334 43.868871 56.739739 47.306388 C54.500145 50.743905 51.661631 53.478253 48.224114 55.509513 C44.786597 57.540773 40.828303 58.374098 36.349114 58.009513 C33.901185 57.801179 31.974121 57.189205 30.567864 56.173575 C29.161607 55.157945 27.494957 54.051186 25.567864 52.853263 Z M71.114739 75.978263" style="fill:black"/>
</svg>
