<svg viewBox="0 0 76.875000 76.796875" version="1.1" xmlns="http://www.w3.org/2000/svg">
<path d="M38.437500 -0.000000 C33.124973 -0.000000 28.138044 1.002594 23.476562 3.007812 C18.815081 5.013031 14.752621 7.747379 11.289062 11.210938 C7.825504 14.674496 5.078135 18.736956 3.046875 23.398438 C1.015615 28.059919 0.000000 33.046848 0.000000 38.359375 C0.000000 43.671902 1.015615 48.658831 3.046875 53.320312 C5.078135 57.981794 7.825504 62.044254 11.289062 65.507812 C14.752621 68.971371 18.815081 71.718740 23.476562 73.750000 C28.138044 75.781260 33.124973 76.796875 38.437500 76.796875 C43.750027 76.796875 48.736956 75.781260 53.398438 73.750000 C58.059919 71.718740 62.122379 68.971371 65.585938 65.507812 C69.049496 62.044254 71.796865 57.981794 73.828125 53.320312 C75.859385 48.658831 76.875000 43.671902 76.875000 38.359375 C76.875000 33.046848 75.859385 28.059919 73.828125 23.398438 C71.796865 18.736956 69.049496 14.674496 65.585938 11.210938 C62.122379 7.747379 58.059919 5.013031 53.398438 3.007812 C48.736956 1.002594 43.750027 -0.000000 38.437500 -0.000000 Z M41.093750 47.500000 C39.843744 47.395833 38.867191 47.083336 38.164062 46.562500 C37.460934 46.041664 36.614588 45.494795 35.625000 44.921875 C35.104164 47.682305 34.427087 50.299467 33.593750 52.773438 C32.760413 55.247408 31.380218 57.187493 29.453125 58.593750 C28.828122 54.374979 29.010412 50.585954 30.000000 47.226562 C30.989588 43.867171 31.848955 40.520850 32.578125 37.187500 C31.380202 35.208323 31.328120 32.825535 32.421875 30.039062 C33.515630 27.252590 35.286446 26.354162 37.734375 27.343750 C39.192716 27.916670 39.791668 29.010409 39.531250 30.625000 C39.270832 32.239591 38.867190 33.919262 38.320312 35.664062 C37.773435 37.408863 37.447917 39.036451 37.343750 40.546875 C37.239583 42.057299 38.124991 42.994790 40.000000 43.359375 C41.979177 43.723960 43.645827 43.203132 45.000000 41.796875 C46.354173 40.390618 47.330726 38.632823 47.929688 36.523438 C48.528649 34.414052 48.697918 32.239595 48.437500 30.000000 C48.177082 27.760405 47.447923 26.015631 46.250000 24.765625 C44.479158 22.994783 42.421887 22.031251 40.078125 21.875000 C37.734363 21.718749 35.559906 22.174474 33.554688 23.242188 C31.549469 24.309901 29.908861 25.872386 28.632812 27.929688 C27.356764 29.986989 26.927081 32.291654 27.343750 34.843750 C27.552084 36.093756 28.020830 37.096350 28.750000 37.851562 C29.479170 38.606775 29.375005 39.843741 28.437500 41.562500 C26.145822 41.041664 24.596358 39.947925 23.789062 38.281250 C22.981767 36.614575 22.630208 34.609387 22.734375 32.265625 C22.890626 28.359355 24.374986 25.143242 27.187500 22.617188 C30.000014 20.091133 33.072900 18.645835 36.406250 18.281250 C40.677105 17.812498 44.531233 18.554678 47.968750 20.507812 C51.406267 22.460947 53.411455 25.416647 53.984375 29.375000 C54.296877 31.666678 54.218752 33.919260 53.750000 36.132812 C53.281248 38.346365 52.486985 40.325512 51.367188 42.070312 C50.247390 43.815113 48.815113 45.195307 47.070312 46.210938 C45.325512 47.226568 43.333345 47.656251 41.093750 47.500000 Z M78.437500 74.375000" style="fill:black"/>
</svg>
