<svg viewBox="0 0 66.328125 66.406250" version="1.1" xmlns="http://www.w3.org/2000/svg">
<path d="M37.261883 37.261883 C34.084784 40.438983 30.894712 43.173330 27.691571 45.465008 C24.488430 47.756687 22.157724 48.199391 20.699383 46.793133 C18.616040 44.709790 16.597831 43.199388 14.644696 42.261883 C12.691561 41.324379 9.423365 42.678532 4.840008 46.324383 C0.256652 50.022319 -1.071459 53.160308 0.855633 55.738446 C2.782726 58.316584 4.735832 60.621248 6.715008 62.652508 C7.860848 63.798348 9.748849 64.371258 12.379071 64.371258 C15.009292 64.371258 18.082178 63.707203 21.597821 62.379071 C25.113464 61.050939 28.954571 59.019710 33.121258 56.285321 C37.287946 53.550932 41.506654 50.048363 45.777508 45.777508 C50.048363 41.506654 53.537912 37.287946 56.246258 33.121258 C58.954605 28.954571 60.972814 25.113464 62.300946 21.597821 C63.629078 18.082178 64.293133 15.022313 64.293133 12.418133 C64.293133 9.813954 63.720223 7.912931 62.574383 6.715008 C60.595207 4.735832 58.316584 2.782726 55.738446 0.855633 C53.160308 -1.071459 50.022319 0.256652 46.324383 4.840008 C42.678532 9.423365 41.324379 12.691561 42.261883 14.644696 C43.199388 16.597831 44.683748 18.616040 46.715008 20.699383 C48.173349 22.157724 47.756687 24.488430 45.465008 27.691571 C43.173330 30.894712 40.438983 34.084784 37.261883 37.261883 Z M72.340008 68.355633" style="fill:black"/>
</svg>
