<svg viewBox="0 0 40.000000 63.984375" version="1.1" xmlns="http://www.w3.org/2000/svg">
<path d="M20.000000 -0.000000 C17.239570 -0.000000 14.648450 0.520828 12.226562 1.562500 C9.804675 2.604172 7.682301 4.023429 5.859375 5.820312 C4.036449 7.617196 2.604172 9.739571 1.562500 12.187500 C0.520828 14.635429 0.000000 17.239570 0.000000 20.000000 C0.000000 24.739607 1.041656 29.700495 3.125000 34.882812 C5.208344 40.065130 7.499987 44.804666 10.000000 49.101562 C12.500012 53.398459 14.791656 56.953111 16.875000 59.765625 C18.958344 62.578139 20.000000 63.984375 20.000000 63.984375 C20.000000 63.984375 21.041656 62.578139 23.125000 59.765625 C25.208344 56.953111 27.499988 53.398459 30.000000 49.101562 C32.500012 44.804666 34.791656 40.065130 36.875000 34.882812 C38.958344 29.700495 40.000000 24.739607 40.000000 20.000000 C40.000000 17.239570 39.479172 14.635429 38.437500 12.187500 C37.395828 9.739571 35.963551 7.617196 34.140625 5.820312 C32.317699 4.023429 30.195325 2.604172 27.773438 1.562500 C25.351550 0.520828 22.760430 -0.000000 20.000000 -0.000000 Z M20.000000 31.015625 C17.031235 31.015625 14.492198 29.960948 12.382812 27.851562 C10.273427 25.742177 9.218750 23.203140 9.218750 20.234375 C9.218750 17.213527 10.273427 14.648448 12.382812 12.539062 C14.492198 10.429677 17.031235 9.375000 20.000000 9.375000 C22.968765 9.375000 25.507802 10.429677 27.617188 12.539062 C29.726573 14.648448 30.781250 17.213527 30.781250 20.234375 C30.781250 23.203140 29.726573 25.742177 27.617188 27.851562 C25.507802 29.960948 22.968765 31.015625 20.000000 31.015625 Z M60.000000 67.968750" style="fill:black"/>
</svg>
