<svg viewBox="0 0 28.046875 40.000000" version="1.1" xmlns="http://www.w3.org/2000/svg">
<path d="M9.375000 18.671875 C10.677090 19.921881 12.226554 20.546875 14.023438 20.546875 C15.820321 20.546875 17.356764 19.908861 18.632812 18.632812 C19.908861 17.356764 20.546875 15.820321 20.546875 14.023438 C20.546875 12.226554 19.908861 10.690111 18.632812 9.414062 C17.356764 8.138014 15.820321 7.500000 14.023438 7.500000 C12.226554 7.500000 10.690111 8.138014 9.414062 9.414062 C8.138014 10.690111 7.500000 12.226554 7.500000 14.023438 C7.500000 15.820321 8.124994 17.369785 9.375000 18.671875 Z M11.171875 11.171875 C11.953129 10.390621 12.903640 10.000000 14.023438 10.000000 C15.143235 10.000000 16.093746 10.390621 16.875000 11.171875 C17.656254 11.953129 18.046875 12.903640 18.046875 14.023438 C18.046875 15.143235 17.656254 16.093746 16.875000 16.875000 C16.093746 17.656254 15.143235 18.046875 14.023438 18.046875 C12.903640 18.046875 11.953129 17.656254 11.171875 16.875000 C10.390621 16.093746 10.000000 15.143235 10.000000 14.023438 C10.000000 12.903640 10.390621 11.953129 11.171875 11.171875 Z M13.125000 39.296875 C13.281251 39.505209 13.489582 39.687499 13.750000 39.843750 C13.906251 39.895834 14.036458 39.921875 14.140625 39.921875 C14.244792 39.921875 14.374999 39.895834 14.531250 39.843750 C14.739584 39.687499 14.947916 39.505209 15.156250 39.296875 C15.468752 38.984373 15.885414 38.515628 16.406250 37.890625 C16.927086 37.265622 17.877597 36.028655 19.257812 34.179688 C20.638028 32.330720 21.874995 30.507821 22.968750 28.710938 C24.062505 26.914054 25.104162 24.817720 26.093750 22.421875 C27.083338 20.026030 27.682291 17.786469 27.890625 15.703125 C27.994792 15.078122 28.046875 14.505211 28.046875 13.984375 C28.046875 10.130189 26.679701 6.835951 23.945312 4.101562 C21.210924 1.367174 17.903665 -0.000000 14.023438 -0.000000 C10.143210 -0.000000 6.835951 1.367174 4.101562 4.101562 C1.367174 6.835951 0.000000 10.130189 0.000000 13.984375 C0.000000 14.557295 0.052083 15.156247 0.156250 15.781250 C0.364584 17.812510 0.950516 20.013009 1.914062 22.382812 C2.877609 24.752616 3.971348 26.901032 5.195312 28.828125 C6.419277 30.755218 7.643223 32.526034 8.867188 34.140625 C10.091152 35.755216 11.093746 37.018225 11.875000 37.929688 C12.656254 38.841150 13.072916 39.296875 13.125000 39.296875 Z M5.859375 5.859375 C8.098970 3.619780 10.807276 2.500000 13.984375 2.500000 C17.161474 2.500000 19.882801 3.619780 22.148438 5.859375 C24.414074 8.098970 25.546875 10.807276 25.546875 13.984375 C25.546875 14.401044 25.494792 14.895830 25.390625 15.468750 C25.182291 17.395843 24.622400 19.492176 23.710938 21.757812 C22.799475 24.023449 21.666673 26.171865 20.312500 28.203125 C18.958327 30.234385 17.812505 31.888014 16.875000 33.164062 C15.937495 34.440111 15.026046 35.624995 14.140625 36.718750 C13.203120 35.624995 12.252609 34.440111 11.289062 33.164062 C10.325516 31.888014 9.166673 30.234385 7.812500 28.203125 C6.458327 26.171865 5.299484 24.023449 4.335938 21.757812 C3.372391 19.492176 2.786459 17.395843 2.578125 15.468750 C2.526041 14.895830 2.500000 14.401044 2.500000 13.984375 C2.500000 10.807276 3.619780 8.098970 5.859375 5.859375 Z M35.000000 37.500000" style="fill:black"/>
</svg>