<svg viewBox="0 0 57.142857 62.857143" version="1.1" xmlns="http://www.w3.org/2000/svg">
<path d="M43.660714 26.741071 C45.595248 24.895824 46.562500 22.485134 46.562500 19.508929 C46.562500 16.532723 45.595248 14.122033 43.660714 12.276786 C41.726181 10.431538 39.181563 9.508929 36.026786 9.508929 L21.741071 9.508929 L21.741071 29.508929 L36.026786 29.508929 C39.181563 29.508929 41.726181 28.586319 43.660714 26.741071 Z M51.473214 5.446429 C55.252995 9.077399 57.142857 13.764852 57.142857 19.508929 C57.142857 25.253005 55.260435 29.940458 51.495536 33.571429 C47.730636 37.202399 42.872054 39.017857 36.919643 39.017857 L21.741071 39.017857 L21.741071 44.285714 L44.285714 44.285714 C44.702383 44.285714 45.044642 44.419642 45.312500 44.687500 C45.580358 44.955358 45.714286 45.297617 45.714286 45.714286 L45.714286 51.428571 C45.714286 51.845240 45.580358 52.187499 45.312500 52.455357 C45.044642 52.723216 44.702383 52.857143 44.285714 52.857143 L21.741071 52.857143 L21.741071 61.428571 C21.741071 61.845240 21.599704 62.187499 21.316964 62.455357 C21.034225 62.723216 20.699407 62.857143 20.312500 62.857143 L12.857143 62.857143 C12.440474 62.857143 12.098216 62.723216 11.830357 62.455357 C11.562499 62.187499 11.428571 61.845240 11.428571 61.428571 L11.428571 52.857143 L1.428571 52.857143 C1.011903 52.857143 0.669644 52.723216 0.401786 52.455357 C0.133927 52.187499 0.000000 51.845240 0.000000 51.428571 L0.000000 45.714286 C0.000000 45.297617 0.133927 44.955358 0.401786 44.687500 C0.669644 44.419642 1.011903 44.285714 1.428571 44.285714 L11.428571 44.285714 L11.428571 39.017857 L1.428571 39.017857 C1.011903 39.017857 0.669644 38.883930 0.401786 38.616071 C0.133927 38.348213 0.000000 38.005954 0.000000 37.589286 L0.000000 30.937500 C0.000000 30.550593 0.133927 30.215775 0.401786 29.933036 C0.669644 29.650296 1.011903 29.508929 1.428571 29.508929 L11.428571 29.508929 L11.428571 1.428571 C11.428571 1.011903 11.562499 0.669644 11.830357 0.401786 C12.098216 0.133927 12.440474 -0.000000 12.857143 -0.000000 L36.919643 -0.000000 C42.872054 -0.000000 47.723196 1.815458 51.473214 5.446429 Z M57.142857 62.857143" style="fill:black"/>
</svg>
