<svg viewBox="0 0 76.875000 76.796875" version="1.1" xmlns="http://www.w3.org/2000/svg">
<path d="M47.109375 37.812500 C46.640623 37.499998 46.119795 37.213543 45.546875 36.953125 C44.973955 36.692707 44.375003 36.432293 43.750000 36.171875 C43.072913 35.963541 42.369795 35.768230 41.640625 35.585938 C40.911455 35.403645 40.156254 35.208334 39.375000 35.000000 C38.749997 34.895833 38.216148 34.778646 37.773438 34.648438 C37.330727 34.518229 36.953127 34.427084 36.640625 34.375000 C36.380207 34.270833 36.119793 34.166667 35.859375 34.062500 C35.598957 33.958333 35.338543 33.854167 35.078125 33.750000 C34.817707 33.593749 34.596355 33.437501 34.414062 33.281250 C34.231770 33.124999 34.062501 32.968751 33.906250 32.812500 C33.802083 32.656249 33.710938 32.473959 33.632812 32.265625 C33.554687 32.057291 33.515625 31.848959 33.515625 31.640625 C33.515625 31.223956 33.619791 30.859377 33.828125 30.546875 C34.036459 30.234373 34.348956 29.947918 34.765625 29.687500 C35.182294 29.374998 35.677080 29.153646 36.250000 29.023438 C36.822920 28.893229 37.447913 28.828125 38.125000 28.828125 C38.906254 28.828125 39.570310 28.893229 40.117188 29.023438 C40.664065 29.153646 41.093748 29.348957 41.406250 29.609375 C41.770835 29.869793 42.096353 30.182290 42.382812 30.546875 C42.669272 30.911460 42.942707 31.354164 43.203125 31.875000 C43.411459 32.239585 43.606770 32.552082 43.789062 32.812500 C43.971355 33.072918 44.166666 33.281249 44.375000 33.437500 C44.583334 33.593751 44.817707 33.723958 45.078125 33.828125 C45.338543 33.932292 45.651040 33.984375 46.015625 33.984375 C46.432294 33.984375 46.809894 33.906251 47.148438 33.750000 C47.486981 33.593749 47.786457 33.385418 48.046875 33.125000 C48.307293 32.812498 48.515624 32.500002 48.671875 32.187500 C48.828126 31.874998 48.906250 31.536460 48.906250 31.171875 C48.906250 30.807290 48.854167 30.429689 48.750000 30.039062 C48.645833 29.648436 48.489584 29.244794 48.281250 28.828125 C48.072916 28.463540 47.812502 28.098960 47.500000 27.734375 C47.187498 27.369790 46.796877 27.005210 46.328125 26.640625 C45.911456 26.276040 45.429690 25.963543 44.882812 25.703125 C44.335935 25.442707 43.750003 25.208334 43.125000 25.000000 C42.447913 24.791666 41.731775 24.635417 40.976562 24.531250 C40.221350 24.427083 39.401046 24.375000 38.515625 24.375000 C37.421870 24.375000 36.393234 24.453124 35.429688 24.609375 C34.466141 24.765626 33.567712 24.999998 32.734375 25.312500 C31.901038 25.625002 31.171878 26.002602 30.546875 26.445312 C29.921872 26.888023 29.375002 27.421872 28.906250 28.046875 C28.489581 28.619795 28.164064 29.257809 27.929688 29.960938 C27.695311 30.664066 27.578125 31.380205 27.578125 32.109375 C27.578125 32.942712 27.682291 33.697913 27.890625 34.375000 C28.098959 35.052087 28.437498 35.651039 28.906250 36.171875 C29.322919 36.692711 29.804685 37.174477 30.351562 37.617188 C30.898440 38.059898 31.536455 38.437498 32.265625 38.750000 C32.942712 39.010418 33.710933 39.283853 34.570312 39.570312 C35.429692 39.856772 36.380203 40.104166 37.421875 40.312500 C38.151045 40.468751 38.815101 40.624999 39.414062 40.781250 C40.013024 40.937501 40.546873 41.093749 41.015625 41.250000 C41.432294 41.354167 41.822915 41.510416 42.187500 41.718750 C42.552085 41.927084 42.864582 42.161457 43.125000 42.421875 C43.385418 42.682293 43.567708 42.968748 43.671875 43.281250 C43.776042 43.593752 43.828125 43.932290 43.828125 44.296875 C43.828125 44.817711 43.710939 45.286456 43.476562 45.703125 C43.242186 46.119794 42.890627 46.510415 42.421875 46.875000 C41.901039 47.239585 41.315107 47.499999 40.664062 47.656250 C40.013018 47.812501 39.270837 47.890625 38.437500 47.890625 C37.864580 47.890625 37.343752 47.851563 36.875000 47.773438 C36.406248 47.695312 35.989585 47.578126 35.625000 47.421875 C35.260415 47.213541 34.934897 47.005209 34.648438 46.796875 C34.361978 46.588541 34.140626 46.354168 33.984375 46.093750 C33.776041 45.833332 33.567709 45.520835 33.359375 45.156250 C33.151041 44.791665 32.968751 44.401044 32.812500 43.984375 C32.656249 43.619790 32.486980 43.294272 32.304688 43.007812 C32.122395 42.721353 31.901043 42.473959 31.640625 42.265625 C31.432291 42.057291 31.184897 41.901042 30.898438 41.796875 C30.611978 41.692708 30.286460 41.640625 29.921875 41.640625 C29.505206 41.640625 29.127606 41.705729 28.789062 41.835938 C28.450519 41.966146 28.151043 42.161457 27.890625 42.421875 C27.630207 42.682293 27.421876 42.981769 27.265625 43.320312 C27.109374 43.658856 27.031250 44.010415 27.031250 44.375000 C27.031250 44.947920 27.135416 45.546872 27.343750 46.171875 C27.552084 46.796878 27.890623 47.421872 28.359375 48.046875 C28.723960 48.619795 29.179685 49.153643 29.726562 49.648438 C30.273440 50.143232 30.885413 50.572915 31.562500 50.937500 C32.500005 51.458336 33.554682 51.848957 34.726562 52.109375 C35.898443 52.369793 37.187493 52.500000 38.593750 52.500000 C39.791673 52.500000 40.898432 52.408855 41.914062 52.226562 C42.929693 52.044270 43.880204 51.770835 44.765625 51.406250 C45.598962 51.041665 46.354163 50.585940 47.031250 50.039062 C47.708337 49.492185 48.281248 48.906253 48.750000 48.281250 C49.218752 47.604163 49.557291 46.888025 49.765625 46.132812 C49.973959 45.377600 50.078125 44.583337 50.078125 43.750000 C50.078125 43.072913 50.013021 42.434899 49.882812 41.835938 C49.752604 41.236976 49.557293 40.677086 49.296875 40.156250 C49.036457 39.687498 48.723960 39.257814 48.359375 38.867188 C47.994790 38.476561 47.578127 38.125002 47.109375 37.812500 Z M38.437500 -0.000000 C33.124973 -0.000000 28.138044 1.002594 23.476562 3.007812 C18.815081 5.013031 14.752621 7.747379 11.289062 11.210938 C7.825504 14.674496 5.078135 18.736956 3.046875 23.398438 C1.015615 28.059919 0.000000 33.046848 0.000000 38.359375 C0.000000 43.671902 1.015615 48.658831 3.046875 53.320312 C5.078135 57.981794 7.825504 62.044254 11.289062 65.507812 C14.752621 68.971371 18.815081 71.718740 23.476562 73.750000 C28.138044 75.781260 33.124973 76.796875 38.437500 76.796875 C43.750027 76.796875 48.736956 75.781260 53.398438 73.750000 C58.059919 71.718740 62.122379 68.971371 65.585938 65.507812 C69.049496 62.044254 71.796865 57.981794 73.828125 53.320312 C75.859385 48.658831 76.875000 43.671902 76.875000 38.359375 C76.875000 33.046848 75.859385 28.059919 73.828125 23.398438 C71.796865 18.736956 69.049496 14.674496 65.585938 11.210938 C62.122379 7.747379 58.059919 5.013031 53.398438 3.007812 C48.736956 1.002594 43.750027 -0.000000 38.437500 -0.000000 Z M47.656250 59.843750 C46.666662 59.843750 45.716150 59.726564 44.804688 59.492188 C43.893225 59.257811 43.046879 58.932294 42.265625 58.515625 C41.692705 58.619792 41.106774 58.697916 40.507812 58.750000 C39.908851 58.802084 39.296878 58.828125 38.671875 58.828125 C35.963528 58.828125 33.411470 58.294276 31.015625 57.226562 C28.619780 56.158849 26.536467 54.713551 24.765625 52.890625 C22.994783 51.067699 21.588547 48.932304 20.546875 46.484375 C19.505203 44.036446 18.984375 41.406264 18.984375 38.593750 C18.984375 37.916663 19.023437 37.239587 19.101562 36.562500 C19.179688 35.885413 19.270833 35.208337 19.375000 34.531250 C18.906248 33.645829 18.528647 32.708338 18.242188 31.718750 C17.955728 30.729162 17.812500 29.687505 17.812500 28.593750 C17.812500 25.364567 18.932280 22.604178 21.171875 20.312500 C23.411470 18.020822 26.093734 16.875000 29.218750 16.875000 C30.364589 16.875000 31.445307 17.031248 32.460938 17.343750 C33.476568 17.656252 34.427079 18.098955 35.312500 18.671875 C35.833336 18.567708 36.380205 18.489584 36.953125 18.437500 C37.526045 18.385416 38.098955 18.359375 38.671875 18.359375 C41.380222 18.359375 43.932280 18.893224 46.328125 19.960938 C48.723970 21.028651 50.807283 22.473949 52.578125 24.296875 C54.348967 26.119801 55.742182 28.255196 56.757812 30.703125 C57.773443 33.151054 58.281250 35.781236 58.281250 38.593750 C58.281250 39.322920 58.242188 40.052080 58.164062 40.781250 C58.085937 41.510420 57.994792 42.239580 57.890625 42.968750 C58.255210 43.750004 58.541666 44.570308 58.750000 45.429688 C58.958334 46.289067 59.062500 47.187495 59.062500 48.125000 C59.062500 51.354183 57.942720 54.114572 55.703125 56.406250 C53.463530 58.697928 50.781266 59.843750 47.656250 59.843750 Z M78.437500 74.375000" style="fill:black"/>
</svg>
