<svg viewBox="0 0 80.234375 80.000000" version="1.1" xmlns="http://www.w3.org/2000/svg">
<path d="M76.648155 29.025298 C75.606483 25.483613 74.486703 22.332603 73.288780 19.572173 C72.090858 16.811742 70.801808 14.363850 69.421593 12.228423 C68.041378 10.092995 66.543997 8.270097 64.929405 6.759673 C63.366897 5.249248 61.622123 3.999261 59.695030 3.009673 C57.924188 2.020084 55.997124 1.264884 53.913780 0.744048 C51.778353 0.223212 49.460668 -0.024182 46.960655 0.001860 C44.460643 0.027902 41.726295 0.327378 38.757530 0.900298 C35.736682 1.421134 32.481506 2.228417 28.991905 3.322173 C22.273122 5.301349 16.752344 7.671117 12.429405 10.431548 C8.158551 13.139895 4.994520 16.382050 2.937218 20.158110 C0.879916 23.934171 -0.096637 28.348189 0.007530 33.400298 C0.163781 38.452406 1.283562 44.311723 3.366905 50.978423 C4.825246 55.978448 6.491896 60.301321 8.366905 63.947173 C10.241915 67.593024 12.377310 70.600807 14.773155 72.970610 C17.169001 75.340414 19.877307 77.098209 22.898155 78.244048 C25.866920 79.389887 29.226262 79.962798 32.976280 79.962798 C35.684627 79.962798 38.497099 79.715404 41.413780 79.220610 C44.330462 78.725816 47.533554 77.983636 51.023155 76.994048 C57.689855 74.910704 63.158551 72.488853 67.429405 69.728423 C71.700260 66.967992 74.877312 63.686775 76.960655 59.884673 C79.043999 56.082570 80.033572 51.655531 79.929405 46.603423 C79.825238 41.551314 78.731499 35.691998 76.648155 29.025298 Z M48.991905 70.353423 C43.158543 72.072181 38.158593 73.035713 33.991905 73.244048 C29.825218 73.400298 26.231504 72.658118 23.210655 71.017485 C20.189807 69.376852 17.611708 66.759691 15.476280 63.165923 C13.340853 59.572155 11.413789 54.858660 9.695030 49.025298 C7.924188 43.244019 6.960656 38.270110 6.804405 34.103423 C6.596071 29.936735 7.312210 26.343021 8.952843 23.322173 C10.593476 20.301324 13.236679 17.697184 16.882530 15.509673 C20.476298 13.374245 25.189793 11.421140 31.023155 9.650298 C34.356505 8.660709 37.364288 7.918529 40.046593 7.423735 C42.728898 6.928941 45.163769 6.681548 47.351280 6.681548 C49.174206 6.681548 50.905960 6.837796 52.546593 7.150298 C54.187226 7.462799 55.684607 7.957586 57.038780 8.634673 C58.445037 9.415927 59.773149 10.431541 61.023155 11.681548 C62.273162 12.931554 63.458045 14.467997 64.577843 16.290923 C65.697640 18.113848 66.778358 20.197161 67.820030 22.540923 C68.809619 24.936768 69.773151 27.645074 70.710655 30.665923 C72.377330 36.499285 73.262738 41.525277 73.366905 45.744048 C73.523156 49.910735 72.767955 53.530491 71.101280 56.603423 C69.434605 59.676355 66.804423 62.280495 63.210655 64.415923 C59.564804 66.603434 54.825268 68.582580 48.991905 70.353423 Z M58.991905 38.634673 L52.663780 40.978423 L49.304405 31.681548 L55.710655 29.337798 C56.543993 28.973212 57.168987 28.413322 57.585655 27.658110 C58.002324 26.902898 58.028365 26.004470 57.663780 24.962798 C57.351279 24.129460 56.804409 23.504466 56.023155 23.087798 C55.241901 22.671129 54.356494 22.645087 53.366905 23.009673 L47.038780 25.353423 L44.695030 19.025298 C44.330445 18.191960 43.757534 17.566966 42.976280 17.150298 C42.195026 16.733629 41.309619 16.681546 40.320030 16.994048 C39.486693 17.306549 38.861699 17.853419 38.445030 18.634673 C38.028362 19.415927 38.002320 20.301334 38.366905 21.290923 L40.710655 27.619048 L31.335655 30.978423 L29.304405 24.337798 C28.991904 23.504460 28.405972 22.879466 27.546593 22.462798 C26.687213 22.046129 25.840868 21.994046 25.007530 22.306548 C24.174193 22.462798 23.549199 22.957585 23.132530 23.790923 C22.715862 24.624260 22.663779 25.457585 22.976280 26.290923 L25.320030 32.619048 L18.991905 34.962798 C18.158568 35.327383 17.533574 35.900294 17.116905 36.681548 C16.700237 37.462802 16.674195 38.348209 17.038780 39.337798 C17.195031 40.014884 17.559611 40.574775 18.132530 41.017485 C18.705450 41.460196 19.330444 41.681548 20.007530 41.681548 C20.163781 41.681548 20.333050 41.668527 20.515343 41.642485 C20.697635 41.616443 20.866904 41.499257 21.023155 41.290923 L27.351280 39.025298 L30.710655 48.322173 L24.304405 50.665923 C23.471068 50.978424 22.846074 51.525294 22.429405 52.306548 C22.012737 53.087802 21.986695 53.973209 22.351280 54.962798 C22.507531 55.639884 22.872111 56.199775 23.445030 56.642485 C24.017950 57.085196 24.642944 57.306548 25.320030 57.306548 C25.476281 57.306548 25.645550 57.293527 25.827843 57.267485 C26.010135 57.241443 26.179404 57.150298 26.335655 56.994048 L32.663780 54.650298 L35.007530 60.978423 C35.163781 61.655509 35.541381 62.215400 36.140343 62.658110 C36.739304 63.100821 37.351277 63.322173 37.976280 63.322173 C38.184615 63.322173 38.366904 63.309152 38.523155 63.283110 C38.679406 63.257068 38.835654 63.165923 38.991905 63.009673 C39.825243 62.645087 40.450237 62.072177 40.866905 61.290923 C41.283574 60.509669 41.335657 59.624261 41.023155 58.634673 L38.679405 52.306548 L47.976280 49.025298 L50.320030 55.353423 C50.476281 55.978426 50.853881 56.512275 51.452843 56.954985 C52.051804 57.397696 52.689819 57.619048 53.366905 57.619048 C53.523156 57.619048 53.679404 57.606027 53.835655 57.579985 C53.991906 57.553943 54.148154 57.462798 54.304405 57.306548 C55.137743 56.994046 55.762737 56.447177 56.179405 55.665923 C56.596074 54.884669 56.648157 53.999261 56.335655 53.009673 L53.991905 46.681548 L60.320030 44.337798 C61.153368 43.973212 61.778362 43.413322 62.195030 42.658110 C62.611699 41.902898 62.663782 41.004470 62.351280 39.962798 C62.507531 39.494045 62.195034 39.077383 61.413780 38.712798 C60.632526 38.348212 59.825243 38.322171 58.991905 38.634673 Z M37.038780 46.290923 L33.679405 36.994048 L42.976280 33.634673 L46.335655 43.009673 Z M80.007530 73.322173" style="fill:black"/>
</svg>
