<svg viewBox="0 0 80.000000 80.000000" version="1.1" xmlns="http://www.w3.org/2000/svg">
<path d="M53.080357 58.348214 L59.642857 27.410714 C59.910716 26.101184 59.754467 25.163693 59.174107 24.598214 C58.593747 24.032735 57.827386 23.928570 56.875000 24.285714 L18.303571 39.151786 C17.440472 39.479168 16.852680 39.851188 16.540179 40.267857 C16.227677 40.684526 16.190475 41.078867 16.428571 41.450893 C16.666668 41.822919 17.142854 42.113094 17.857143 42.321429 L27.723214 45.401786 L50.625000 30.982143 C51.250003 30.565474 51.726189 30.476189 52.053571 30.714286 C52.261906 30.863096 52.202383 31.086308 51.875000 31.383929 L33.348214 48.125000 L33.348214 48.125000 L32.633929 58.303571 C33.318456 58.303571 33.988092 57.976194 34.642857 57.321429 L39.464286 52.678571 L49.464286 60.044643 C51.369057 61.116077 52.574402 60.550606 53.080357 58.348214 Z M80.000000 40.000000 C80.000000 45.416694 78.943463 50.595213 76.830357 55.535714 C74.717251 60.476215 71.875018 64.732125 68.303571 68.303571 C64.732125 71.875018 60.476215 74.717251 55.535714 76.830357 C50.595213 78.943463 45.416694 80.000000 40.000000 80.000000 C34.583306 80.000000 29.404787 78.943463 24.464286 76.830357 C19.523785 74.717251 15.267875 71.875018 11.696429 68.303571 C8.124982 64.732125 5.282749 60.476215 3.169643 55.535714 C1.056537 50.595213 0.000000 45.416694 0.000000 40.000000 C0.000000 34.583306 1.056537 29.404787 3.169643 24.464286 C5.282749 19.523785 8.124982 15.267875 11.696429 11.696429 C15.267875 8.124982 19.523785 5.282749 24.464286 3.169643 C29.404787 1.056537 34.583306 -0.000000 40.000000 -0.000000 C45.416694 -0.000000 50.595213 1.056537 55.535714 3.169643 C60.476215 5.282749 64.732125 8.124982 68.303571 11.696429 C71.875018 15.267875 74.717251 19.523785 76.830357 24.464286 C78.943463 29.404787 80.000000 34.583306 80.000000 40.000000 Z M80.000000 68.571429" style="fill:black"/>
</svg>
