<svg viewBox="0 0 64.062500 72.656250" version="1.1" xmlns="http://www.w3.org/2000/svg">
<path d="M46.640625 25.473154 C46.484374 25.108569 47.096347 24.092954 48.476562 22.426279 C49.856778 20.759604 51.171869 18.728374 52.421875 16.332529 C53.671881 13.936684 54.479165 11.332543 54.843750 8.520029 C55.208335 5.707515 54.322927 2.973167 52.187500 0.316904 C51.718748 -0.308099 50.937505 -0.008623 49.843750 1.215342 C48.749995 2.439306 47.421883 4.079915 45.859375 6.137217 C44.296867 8.194519 42.486989 10.395017 40.429688 12.738779 C38.372386 15.082541 36.145845 17.087729 33.750000 18.754404 C32.395827 19.639825 30.716156 20.746585 28.710938 22.074717 C26.705719 23.402848 24.765634 24.783043 22.890625 26.215342 C21.015616 27.647641 19.401048 29.066897 18.046875 30.473154 C16.692702 31.879411 16.015625 33.129399 16.015625 34.223154 L16.015625 61.566904 C16.015625 62.816910 17.122385 64.066898 19.335938 65.316904 C21.549490 66.566910 24.348941 67.686691 27.734375 68.676279 C31.119809 69.665867 34.843730 70.473151 38.906250 71.098154 C42.968770 71.723157 46.874981 72.035654 50.625000 72.035654 C51.979173 72.035654 53.437492 70.225776 55.000000 66.605967 C56.562508 62.986157 58.020827 58.858594 59.375000 54.223154 C60.729173 49.587714 61.848954 45.108592 62.734375 40.785654 C63.619796 36.462716 64.062500 33.624203 64.062500 32.270029 C64.062500 30.915856 63.177092 29.861179 61.406250 29.105967 C59.635408 28.350755 57.682302 27.764823 55.546875 27.348154 C53.411448 26.931485 51.419280 26.605968 49.570312 26.371592 C47.721345 26.137216 46.744792 25.837739 46.640625 25.473154 Z M12.031250 25.863779 C10.729160 25.863779 8.398454 26.579918 5.039062 28.012217 C1.679671 29.444516 0.000000 32.895002 0.000000 38.363779 L0.000000 57.738779 C0.000000 63.207557 1.679671 66.592939 5.039062 67.895029 C8.398454 69.197119 10.729160 69.848154 12.031250 69.848154 C13.333340 69.848154 12.994802 69.184098 11.015625 67.855967 C9.036448 66.527835 8.046875 64.171088 8.046875 60.785654 L8.046875 35.316904 C8.046875 31.775220 9.036448 29.314307 11.015625 27.934092 C12.994802 26.553876 13.333340 25.863779 12.031250 25.863779 Z M72.031250 72.035654" style="fill:black"/>
</svg>
