<svg viewBox="0 0 76.875000 76.796875" version="1.1" xmlns="http://www.w3.org/2000/svg">
<path d="M38.437500 -0.000000 C33.124973 -0.000000 28.138044 1.002594 23.476562 3.007812 C18.815081 5.013031 14.752621 7.747379 11.289062 11.210938 C7.825504 14.674496 5.078135 18.736956 3.046875 23.398438 C1.015615 28.059919 0.000000 33.046848 0.000000 38.359375 C0.000000 43.671902 1.015615 48.658831 3.046875 53.320312 C5.078135 57.981794 7.825504 62.044254 11.289062 65.507812 C14.752621 68.971371 18.815081 71.718740 23.476562 73.750000 C28.138044 75.781260 33.124973 76.796875 38.437500 76.796875 C43.750027 76.796875 48.736956 75.781260 53.398438 73.750000 C58.059919 71.718740 62.122379 68.971371 65.585938 65.507812 C69.049496 62.044254 71.796865 57.981794 73.828125 53.320312 C75.859385 48.658831 76.875000 43.671902 76.875000 38.359375 C76.875000 33.046848 75.859385 28.059919 73.828125 23.398438 C71.796865 18.736956 69.049496 14.674496 65.585938 11.210938 C62.122379 7.747379 58.059919 5.013031 53.398438 3.007812 C48.736956 1.002594 43.750027 -0.000000 38.437500 -0.000000 Z M54.062500 31.406250 C54.062500 31.562501 54.062500 31.731770 54.062500 31.914062 C54.062500 32.096355 54.062500 32.265624 54.062500 32.421875 C54.062500 34.921887 53.593755 37.447904 52.656250 40.000000 C51.718745 42.552096 50.338551 44.856761 48.515625 46.914062 C46.692699 48.971364 44.453138 50.651035 41.796875 51.953125 C39.140612 53.255215 36.067726 53.906250 32.578125 53.906250 C30.442698 53.906250 28.398447 53.606774 26.445312 53.007812 C24.492178 52.408851 22.656259 51.588547 20.937500 50.546875 C21.250002 50.546875 21.562498 50.559896 21.875000 50.585938 C22.187502 50.611979 22.499998 50.625000 22.812500 50.625000 C24.583342 50.625000 26.263013 50.338545 27.851562 49.765625 C29.440112 49.192705 30.885410 48.411463 32.187500 47.421875 C30.520825 47.369791 29.049486 46.848963 27.773438 45.859375 C26.497389 44.869787 25.598961 43.619799 25.078125 42.109375 C25.338543 42.161459 25.585936 42.200521 25.820312 42.226562 C26.054689 42.252604 26.276041 42.265625 26.484375 42.265625 C26.848960 42.265625 27.200519 42.239584 27.539062 42.187500 C27.877606 42.135416 28.203123 42.083334 28.515625 42.031250 C26.796866 41.666665 25.351568 40.794278 24.179688 39.414062 C23.007807 38.033847 22.421875 36.432301 22.421875 34.609375 L22.421875 34.531250 C22.942711 34.791668 23.489580 34.999999 24.062500 35.156250 C24.635420 35.312501 25.234372 35.416666 25.859375 35.468750 C24.869787 34.791663 24.062503 33.893235 23.437500 32.773438 C22.812497 31.653640 22.500000 30.442715 22.500000 29.140625 C22.500000 28.463538 22.591145 27.799482 22.773438 27.148438 C22.955730 26.497393 23.203123 25.885420 23.515625 25.312500 C25.390634 27.604178 27.669257 29.466139 30.351562 30.898438 C33.033868 32.330736 35.963526 33.124999 39.140625 33.281250 C39.036458 32.968748 38.971354 32.669272 38.945312 32.382812 C38.919271 32.096353 38.906250 31.822918 38.906250 31.562500 C38.906250 29.479156 39.648430 27.695320 41.132812 26.210938 C42.617195 24.726555 44.401031 23.984375 46.484375 23.984375 C47.578130 23.984375 48.593745 24.192706 49.531250 24.609375 C50.468755 25.026044 51.302080 25.598955 52.031250 26.328125 C52.864587 26.171874 53.684892 25.937502 54.492188 25.625000 C55.299483 25.312498 56.067705 24.947919 56.796875 24.531250 C56.536457 25.416671 56.119795 26.210934 55.546875 26.914062 C54.973955 27.617191 54.296879 28.229164 53.515625 28.750000 C54.244795 28.645833 54.973955 28.489584 55.703125 28.281250 C56.432295 28.072916 57.135413 27.812502 57.812500 27.500000 C57.343748 28.281254 56.783857 28.997393 56.132812 29.648438 C55.481768 30.299482 54.791670 30.885414 54.062500 31.406250 Z M78.437500 74.375000" style="fill:black"/>
</svg>
