<svg viewBox="0 0 72.031250 79.453125" version="1.1" xmlns="http://www.w3.org/2000/svg">
<path d="M26.953125 7.766427 C24.921865 9.276851 23.554691 11.060687 22.851562 13.117989 C22.148434 15.175291 21.848958 16.854962 21.953125 18.157052 C22.109376 19.719560 22.291666 21.295065 22.500000 22.883614 C22.708334 24.472164 22.812500 25.266427 22.812500 25.266427 C22.812500 25.266427 22.604169 25.500799 22.187500 25.969552 C21.770831 26.438304 21.562500 27.349753 21.562500 28.703927 C21.822918 32.141444 22.369788 33.782053 23.203125 33.625802 C24.036462 33.469551 24.557291 34.146628 24.765625 35.657052 C25.338545 39.250820 26.106766 41.308091 27.070312 41.828927 C28.033859 42.349763 28.515625 43.599750 28.515625 45.578927 C28.515625 48.860193 27.708341 51.438292 26.093750 53.313302 C24.479159 55.188311 21.562521 57.037251 17.343750 58.860177 C15.208323 59.797681 13.098969 60.800276 11.015625 61.867989 C8.932281 62.935703 7.083341 64.120587 5.468750 65.422677 C3.854159 66.724767 2.539068 68.183085 1.523438 69.797677 C0.507807 71.412268 0.000000 73.209125 0.000000 75.188302 L0.000000 79.172677 L72.031250 79.172677 L72.031250 75.188302 C72.031250 73.209125 71.523443 71.412268 70.507812 69.797677 C69.492182 68.183085 68.177091 66.724767 66.562500 65.422677 C64.947909 64.120587 63.098969 62.935703 61.015625 61.867989 C58.932281 60.800276 56.822927 59.823723 54.687500 58.938302 C50.468729 57.063292 47.552091 55.188311 45.937500 53.313302 C44.322909 51.438292 43.515625 48.860193 43.515625 45.578927 C43.515625 43.599750 43.997391 42.349763 44.960938 41.828927 C45.924484 41.308091 46.692705 39.250820 47.265625 35.657052 C47.473959 34.146628 47.994788 33.469551 48.828125 33.625802 C49.661462 33.782053 50.208332 32.141444 50.468750 28.703927 C50.468750 27.349753 50.260419 26.451325 49.843750 26.008614 C49.427081 25.565904 49.218750 25.344552 49.218750 25.344552 C49.218750 25.344552 49.322916 24.537268 49.531250 22.922677 C49.739584 21.308085 49.921874 19.719560 50.078125 18.157052 C50.182292 16.490377 49.622402 14.276857 48.398438 11.516427 C47.174473 8.755996 44.661477 6.828932 40.859375 5.735177 C40.182288 5.058090 39.817709 4.211744 39.765625 3.196114 C39.713541 2.180484 40.703115 1.125807 42.734375 0.032052 C38.255186 -0.176283 35.091155 0.631001 33.242188 2.453927 C31.393220 4.276853 29.296887 6.047668 26.953125 7.766427 Z M76.015625 75.188302" style="fill:black"/>
</svg>
