<svg style="" width="73.203125" height="66.328125" version="1.1" xmlns="http://www.w3.org/2000/svg">
<path d="M71.640625 15.326969 C70.651037 21.108248 68.671890 26.602985 65.703125 31.811344 C62.734360 37.019703 59.518246 41.707156 56.054688 45.873844 C52.591129 50.040531 49.205746 53.569142 45.898438 56.459781 C42.591129 59.350421 40.078134 61.342588 38.359375 62.436344 C35.026025 64.675938 31.953139 64.741042 29.140625 62.631656 C26.328111 60.522271 24.348964 58.295731 23.203125 55.951969 C22.578122 54.597795 21.679693 52.019696 20.507812 48.217594 C19.335932 44.415492 18.125006 40.444177 16.875000 36.303531 C15.624994 32.162886 14.453130 28.373861 13.359375 24.936344 C12.265620 21.498827 11.484377 19.493638 11.015625 18.920719 C9.973953 17.670713 8.372407 17.748837 6.210938 19.155094 C4.049468 20.561351 2.968750 21.264469 2.968750 21.264469 L0.000000 17.436344 C0.000000 17.436344 0.690097 16.642081 2.070312 15.053531 C3.450528 13.464982 5.195302 11.681145 7.304688 9.701969 C9.414073 7.722792 11.731758 5.834790 14.257812 4.037906 C16.783867 2.241022 19.218738 1.108221 21.562500 0.639469 C24.062512 0.118633 25.989577 0.691544 27.343750 2.358219 C28.697923 4.024894 29.752600 6.186331 30.507812 8.842594 C31.263025 11.498857 31.848956 14.376433 32.265625 17.475406 C32.682294 20.574380 33.203122 23.347790 33.828125 25.795719 C34.973964 30.483242 35.989579 34.102998 36.875000 36.655094 C37.760421 39.207190 38.697912 40.483219 39.687500 40.483219 C40.677088 40.483219 42.070304 39.285314 43.867188 36.889469 C45.664071 34.493624 47.604156 31.290531 49.687500 27.280094 C51.822927 23.269657 51.992196 19.962399 50.195312 17.358219 C48.398429 14.754039 45.442729 14.701956 41.328125 17.201969 C42.161462 12.201944 44.388003 8.204588 48.007812 5.209781 C51.627622 2.214975 55.364564 0.509263 59.218750 0.092594 C63.072936 -0.324075 66.367174 0.665499 69.101562 3.061344 C71.835951 5.457189 72.682297 9.545690 71.640625 15.326969 Z M76.015625 67.983219" style="fill:black"/>
</svg>