<svg viewBox="0 0 76.875000 76.796875" version="1.1" xmlns="http://www.w3.org/2000/svg">
<path d="M38.437500 -0.000000 C33.124973 -0.000000 28.138044 1.002594 23.476562 3.007812 C18.815081 5.013031 14.752621 7.747379 11.289062 11.210938 C7.825504 14.674496 5.078135 18.736956 3.046875 23.398438 C1.015615 28.059919 0.000000 33.046848 0.000000 38.359375 C0.000000 43.671902 1.015615 48.658831 3.046875 53.320312 C5.078135 57.981794 7.825504 62.044254 11.289062 65.507812 C14.752621 68.971371 18.815081 71.718740 23.476562 73.750000 C28.138044 75.781260 33.124973 76.796875 38.437500 76.796875 C43.750027 76.796875 48.736956 75.781260 53.398438 73.750000 C58.059919 71.718740 62.122379 68.971371 65.585938 65.507812 C69.049496 62.044254 71.796865 57.981794 73.828125 53.320312 C75.859385 48.658831 76.875000 43.671902 76.875000 38.359375 C76.875000 33.046848 75.859385 28.059919 73.828125 23.398438 C71.796865 18.736956 69.049496 14.674496 65.585938 11.210938 C62.122379 7.747379 58.059919 5.013031 53.398438 3.007812 C48.736956 1.002594 43.750027 -0.000000 38.437500 -0.000000 Z M56.015625 30.937500 C55.546873 33.854181 54.557299 36.640612 53.046875 39.296875 C51.536451 41.953138 49.908863 44.322906 48.164062 46.406250 C46.419262 48.489594 44.713550 50.260409 43.046875 51.718750 C41.380200 53.177091 40.104171 54.192705 39.218750 54.765625 C37.499991 55.911464 35.937507 55.950526 34.531250 54.882812 C33.124993 53.815099 32.135420 52.682298 31.562500 51.484375 C31.249998 50.807288 30.794274 49.505218 30.195312 47.578125 C29.596351 45.651032 28.984378 43.645844 28.359375 41.562500 C27.734372 39.479156 27.148440 37.565113 26.601562 35.820312 C26.054685 34.075512 25.651043 33.046877 25.390625 32.734375 C24.869789 32.161455 24.062505 32.226559 22.968750 32.929688 C21.874995 33.632816 21.328125 33.984375 21.328125 33.984375 L19.843750 32.031250 C19.843750 32.031250 21.067696 30.729180 23.515625 28.125000 C25.963554 25.520820 28.359363 23.984377 30.703125 23.515625 C33.203137 23.046873 34.713539 24.440088 35.234375 27.695312 C35.755211 30.950537 36.328122 33.802071 36.953125 36.250000 C37.526045 38.593762 38.033852 40.416660 38.476562 41.718750 C38.919273 43.020840 39.374998 43.671875 39.843750 43.671875 C40.364586 43.671875 41.080725 43.059902 41.992188 41.835938 C42.903650 40.611973 43.880203 39.010427 44.921875 37.031250 C46.015630 34.999990 46.106775 33.320319 45.195312 31.992188 C44.283850 30.664056 42.786469 30.651035 40.703125 31.953125 C41.119794 29.401029 42.252595 27.369799 44.101562 25.859375 C45.950530 24.348951 47.838532 23.489584 49.765625 23.281250 C51.692718 23.072916 53.346347 23.567702 54.726562 24.765625 C56.106778 25.963548 56.536461 28.020819 56.015625 30.937500 Z M78.437500 74.375000" style="fill:black"/>
</svg>
