<svg viewBox="0 0 80.468750 45.781250" version="1.1" xmlns="http://www.w3.org/2000/svg">
<path d="M71.203126 32.109375 C71.203126 32.109375 72.348948 33.294259 74.640626 35.664062 C76.932304 38.033866 78.494789 39.947909 79.328126 41.406250 C79.328126 41.458334 79.341147 41.497396 79.367189 41.523438 C79.393231 41.549479 79.406251 41.562500 79.406251 41.562500 C79.718753 42.135420 79.914063 42.630206 79.992189 43.046875 C80.070314 43.463544 80.031252 43.828123 79.875001 44.140625 C79.614583 44.661461 79.132817 45.052082 78.429689 45.312500 C77.726560 45.572918 77.218753 45.729166 76.906251 45.781250 C76.906251 45.781250 75.031270 45.781250 71.281251 45.781250 C67.531233 45.781250 65.578127 45.781250 65.421876 45.781250 C65.057291 45.781250 64.484380 45.690105 63.703126 45.507812 C62.921872 45.325520 62.010423 44.869795 60.968751 44.140625 C60.187497 43.619789 59.419276 42.942712 58.664064 42.109375 C57.908852 41.276038 57.166672 40.442712 56.437501 39.609375 C55.343746 38.307285 54.302090 37.174484 53.312501 36.210938 C52.322913 35.247391 51.333340 34.765625 50.343751 34.765625 C50.239584 34.765625 50.122398 34.778646 49.992189 34.804688 C49.861980 34.830729 49.744794 34.869791 49.640626 34.921875 C48.911456 35.130209 48.169276 35.833327 47.414064 37.031250 C46.658852 38.229173 46.281251 40.234361 46.281251 43.046875 C46.281251 43.932296 46.020837 44.609373 45.500001 45.078125 C44.979165 45.546877 44.458337 45.781250 43.937501 45.781250 C43.937501 45.781250 43.104176 45.781250 41.437501 45.781250 C39.770826 45.781250 38.859377 45.781250 38.703126 45.781250 C37.817705 45.781250 35.408875 45.312505 31.476564 44.375000 C27.544253 43.437495 23.520855 40.807313 19.406251 36.484375 C16.906239 33.828112 14.497409 30.664081 12.179689 26.992188 C9.861969 23.320294 7.817719 19.817725 6.046876 16.484375 C4.276034 13.151025 2.856778 10.299491 1.789064 7.929688 C0.721350 5.559884 0.187501 4.348959 0.187501 4.296875 C-0.125000 3.619788 -0.046876 3.098960 0.421876 2.734375 C0.890629 2.369790 1.437498 2.187500 2.062501 2.187500 L13.625001 2.187500 C14.406255 2.187500 14.953125 2.382811 15.265626 2.773438 C15.578128 3.164064 15.838542 3.567706 16.046876 3.984375 C16.255211 4.453127 16.723956 5.546866 17.453126 7.265625 C18.182297 8.984384 19.171870 10.937489 20.421876 13.125000 C22.453137 16.666684 24.119787 19.205721 25.421876 20.742188 C26.723966 22.278654 27.869788 23.046875 28.859376 23.046875 C29.067711 23.046875 29.263021 23.020834 29.445314 22.968750 C29.627606 22.916666 29.796876 22.838542 29.953126 22.734375 C31.255216 22.057288 31.919272 20.039079 31.945314 16.679688 C31.971356 13.320296 31.958335 11.171880 31.906251 10.234375 C31.906251 10.078124 31.854169 9.283861 31.750001 7.851562 C31.645834 6.419264 31.255213 5.234380 30.578126 4.296875 C30.109374 3.671872 29.523442 3.216147 28.820314 2.929688 C28.117185 2.643228 27.531254 2.447917 27.062501 2.343750 C27.218752 2.135416 27.427083 1.914064 27.687501 1.679688 C27.947919 1.445311 28.234375 1.223959 28.546876 1.015625 C29.432297 0.598956 30.617181 0.325521 32.101564 0.195312 C33.585946 0.065104 35.109369 -0.000000 36.671876 -0.000000 L38.468751 -0.000000 C40.187510 0.052084 41.385415 0.130208 42.062501 0.234375 C42.739588 0.338542 43.390623 0.468749 44.015626 0.625000 C45.265633 0.937502 45.994792 1.614578 46.203126 2.656250 C46.411461 3.697922 46.463544 5.598945 46.359376 8.359375 C46.307293 9.192712 46.268231 10.052079 46.242189 10.937500 C46.216147 11.822921 46.203126 12.786453 46.203126 13.828125 C46.203126 14.088543 46.203126 14.335936 46.203126 14.570312 C46.203126 14.804689 46.203126 15.052082 46.203126 15.312500 C46.151043 16.718757 46.190105 18.138014 46.320314 19.570312 C46.450523 21.002611 47.036454 22.031247 48.078126 22.656250 C48.182294 22.760417 48.312501 22.838541 48.468751 22.890625 C48.625002 22.942709 48.781251 22.968750 48.937501 22.968750 C49.250003 22.968750 50.018224 22.552087 51.242189 21.718750 C52.466153 20.885413 54.510404 18.046899 57.375001 13.203125 C58.572924 11.067698 59.601560 8.971364 60.460939 6.914062 C61.320318 4.856761 61.802084 3.723959 61.906251 3.515625 C61.958335 3.411458 62.062501 3.242189 62.218751 3.007812 C62.375002 2.773436 62.557292 2.604167 62.765626 2.500000 C62.921877 2.395833 63.091146 2.330729 63.273439 2.304688 C63.455731 2.278646 63.598959 2.265625 63.703126 2.265625 L77.218751 2.265625 C78.000005 2.265625 78.624999 2.317708 79.093751 2.421875 C79.562504 2.526042 79.848959 2.734373 79.953126 3.046875 C80.109377 3.463544 79.875004 4.531241 79.250001 6.250000 C78.624998 7.968759 76.776058 10.911437 73.703126 15.078125 C73.182290 15.807295 72.687504 16.471351 72.218751 17.070312 C71.749999 17.669274 71.307295 18.229164 70.890626 18.750000 C68.078112 22.447935 66.684897 24.895827 66.710939 26.093750 C66.736981 27.291673 68.234362 29.296861 71.203126 32.109375 Z M80.031251 58.906250" style="fill:black"/>
</svg>
