<svg viewBox="0 0 80.000000 61.562500" version="1.1" xmlns="http://www.w3.org/2000/svg">
<path d="M40.000000 -0.000000 C30.156201 -0.000000 22.539089 0.325518 17.148438 0.976562 C11.757786 1.627607 7.786471 3.020823 5.234375 5.156250 C2.682279 7.291677 1.171877 10.390605 0.703125 14.453125 C0.234373 18.515645 0.000000 23.958299 0.000000 30.781250 C0.000000 37.604201 0.234373 43.046855 0.703125 47.109375 C1.171877 51.171895 2.682279 54.283843 5.234375 56.445312 C7.786471 58.606782 11.757786 59.999997 17.148438 60.625000 C22.539089 61.250003 30.156201 61.562500 40.000000 61.562500 C49.843799 61.562500 57.460911 61.250003 62.851562 60.625000 C68.242214 59.999997 72.213529 58.606782 74.765625 56.445312 C77.317721 54.283843 78.828123 51.171895 79.296875 47.109375 C79.765627 43.046855 80.000000 37.604201 80.000000 30.781250 C80.000000 23.958299 79.765627 18.515645 79.296875 14.453125 C78.828123 10.390605 77.317721 7.291677 74.765625 5.156250 C72.213529 3.020823 68.242214 1.627607 62.851562 0.976562 C57.460911 0.325518 49.843799 -0.000000 40.000000 -0.000000 Z M52.812500 32.109375 L34.843750 40.546875 C34.062496 40.911460 33.398440 40.911460 32.851562 40.546875 C32.304685 40.182290 32.031250 39.557296 32.031250 38.671875 L32.031250 22.890625 C32.031250 22.057288 32.304685 21.458335 32.851562 21.093750 C33.398440 20.729165 34.062496 20.729165 34.843750 21.093750 L52.812500 29.453125 C53.593754 29.817710 53.984375 30.260414 53.984375 30.781250 C53.984375 31.302086 53.593754 31.744790 52.812500 32.109375 Z M80.000000 66.796875" style="fill:black"/>
</svg>
